<svg width="30" height="80" viewBox="0 0 30 80" fill="none" xmlns="http://www.w3.org/2000/svg">
<g clip-path="url(#clip0_402_8196)">
<path d="M29.5029 8.5884C29.4303 8.38473 29.3163 8.19236 29.1711 8.05658C28.8913 7.75106 28.5077 7.5587 28.0827 7.5587H3.99146C3.13106 7.5587 2.43652 8.31683 2.43652 9.2447V73.6747C2.43652 74.6026 3.13106 75.3607 3.99146 75.3607H28.0827C28.9327 75.3607 29.6376 74.6026 29.6376 73.6747V9.25601C29.6376 9.01839 29.5962 8.79208 29.5029 8.5884ZM11.9009 17.4936H14.8968V14.2235C14.8968 13.5446 15.4047 12.9788 16.0371 12.9788C16.6694 12.9788 17.1774 13.5446 17.1774 14.2235V17.4936H20.1629C20.7952 17.4936 21.3031 18.0481 21.3031 18.7383C21.3031 19.4286 20.7952 19.983 20.1629 19.983H17.1774V23.2532C17.1774 23.9321 16.6694 24.4979 16.0371 24.4979C15.4047 24.4979 14.8968 23.9321 14.8968 23.2532V19.983H11.9009C11.2686 19.983 10.7606 19.4286 10.7606 18.7383C10.7606 18.0481 11.2686 17.4936 11.9009 17.4936Z" fill="#ABF15C" stroke="#ABF15C" stroke-width="0.7" stroke-miterlimit="10"/>
<path d="M29.5029 8.5884C29.4303 8.38473 29.3163 8.20368 29.1711 8.05658C28.8913 7.75106 28.5077 7.5587 28.0827 7.5587H3.99146C3.13106 7.5587 2.43652 8.31683 2.43652 9.2447V29.918H29.6273V9.2447C29.6273 9.00707 29.5858 8.79208 29.5029 8.5884ZM20.1629 19.983H17.1774V23.2532C17.1774 23.9321 16.6694 24.4979 16.0371 24.4979C15.4047 24.4979 14.8968 23.9321 14.8968 23.2532V19.983H11.9009C11.2686 19.983 10.7606 19.4286 10.7606 18.7383C10.7606 18.0481 11.2686 17.4936 11.9009 17.4936H14.8968V14.2235C14.8968 13.5446 15.4047 12.9788 16.0371 12.9788C16.6694 12.9788 17.1774 13.5446 17.1774 14.2235V17.4936H20.1629C20.7952 17.4936 21.3031 18.0481 21.3031 18.7383C21.3031 19.4286 20.7952 19.983 20.1629 19.983Z" fill="#ABF15C" stroke="#ABF15C" stroke-width="0.7" stroke-miterlimit="10"/>
<path d="M8.39746 7.5587V2.94201C8.39746 1.5389 9.44445 0.396042 10.7299 0.396042H22.3816C23.667 0.396042 24.714 1.5389 24.714 2.94201V7.5587H8.39746Z" fill="#ABF15C" stroke="#ABF15C" stroke-width="0.7" stroke-miterlimit="10"/>
<path d="M25.5534 79.604H6.52097C5.34958 79.604 4.40625 78.6535 4.40625 77.488V75.372H27.6785V77.488C27.6785 78.6648 26.7248 79.604 25.5638 79.604H25.5534Z" fill="#ABF15C" stroke="#ABF15C" stroke-width="0.7" stroke-miterlimit="10"/>
<path d="M21.3032 18.7383C21.3032 19.4286 20.7953 19.983 20.163 19.983H17.1775V23.2532C17.1775 23.9321 16.6695 24.4979 16.0372 24.4979C15.4048 24.4979 14.8969 23.9321 14.8969 23.2532V19.983H11.901C11.2687 19.983 10.7607 19.4286 10.7607 18.7383C10.7607 18.0481 11.2687 17.4936 11.901 17.4936H14.8969V14.2235C14.8969 13.5446 15.4048 12.9788 16.0372 12.9788C16.6695 12.9788 17.1775 13.5446 17.1775 14.2235V17.4936H20.163C20.7953 17.4936 21.3032 18.0481 21.3032 18.7383Z" fill="#ABF15C" stroke="#ABF15C" stroke-width="0.7" stroke-miterlimit="10"/>
<path d="M20.163 68.198H11.901C11.2687 68.198 10.7607 67.6436 10.7607 66.9533C10.7607 66.2631 11.2687 65.7086 11.901 65.7086H20.163C20.7953 65.7086 21.3032 66.2631 21.3032 66.9533C21.3032 67.6436 20.7953 68.198 20.163 68.198Z" fill="#ABF15C" stroke="#ABF15C" stroke-width="0.7" stroke-miterlimit="10"/>
<path d="M27.4296 8.5884C27.3571 8.38473 27.243 8.19236 27.0979 8.05658C26.818 7.75106 26.4345 7.5587 26.0094 7.5587H1.91822C1.05782 7.5587 0.363281 8.31683 0.363281 9.2447V73.6747C0.363281 74.6026 1.05782 75.3607 1.91822 75.3607H26.0094C26.8595 75.3607 27.5644 74.6026 27.5644 73.6747V9.25601C27.5644 9.01839 27.5229 8.79208 27.4296 8.5884ZM9.82769 17.4936H12.8235V14.2235C12.8235 13.5446 13.3315 12.9788 13.9638 12.9788C14.5962 12.9788 15.1041 13.5446 15.1041 14.2235V17.4936H18.0896C18.722 17.4936 19.2299 18.0481 19.2299 18.7383C19.2299 19.4286 18.722 19.983 18.0896 19.983H15.1041V23.2532C15.1041 23.9321 14.5962 24.4979 13.9638 24.4979C13.3315 24.4979 12.8235 23.9321 12.8235 23.2532V19.983H9.82769C9.19535 19.983 8.6874 19.4286 8.6874 18.7383C8.6874 18.0481 9.19535 17.4936 9.82769 17.4936Z" fill="white" stroke="#393938" stroke-width="0.7" stroke-miterlimit="10"/>
<path d="M27.4296 8.5884C27.3571 8.38473 27.243 8.20368 27.0979 8.05658C26.818 7.75106 26.4345 7.5587 26.0094 7.5587H1.91822C1.05782 7.5587 0.363281 8.31683 0.363281 9.2447V29.918H27.554V9.2447C27.554 9.00707 27.5126 8.79208 27.4296 8.5884ZM18.0896 19.983H15.1041V23.2532C15.1041 23.9321 14.5962 24.4979 13.9638 24.4979C13.3315 24.4979 12.8235 23.9321 12.8235 23.2532V19.983H9.82769C9.19535 19.983 8.6874 19.4286 8.6874 18.7383C8.6874 18.0481 9.19535 17.4936 9.82769 17.4936H12.8235V14.2235C12.8235 13.5446 13.3315 12.9788 13.9638 12.9788C14.5962 12.9788 15.1041 13.5446 15.1041 14.2235V17.4936H18.0896C18.722 17.4936 19.2299 18.0481 19.2299 18.7383C19.2299 19.4286 18.722 19.983 18.0896 19.983Z" fill="white" stroke="#393938" stroke-width="0.7" stroke-miterlimit="10"/>
<path d="M6.32324 7.5587V2.94201C6.32324 1.5389 7.37024 0.396042 8.65565 0.396042H20.3073C21.5928 0.396042 22.6398 1.5389 22.6398 2.94201V7.5587H6.32324Z" fill="white" stroke="#393938" stroke-width="0.7" stroke-miterlimit="10"/>
<path d="M23.4792 79.604H4.44675C3.27536 79.604 2.33203 78.6535 2.33203 77.488V75.372H25.6043V77.488C25.6043 78.6648 24.6506 79.604 23.4896 79.604H23.4792Z" fill="white" stroke="#393938" stroke-width="0.7" stroke-miterlimit="10"/>
<path d="M19.229 18.7383C19.229 19.4286 18.7211 19.983 18.0887 19.983H15.1032V23.2532C15.1032 23.9321 14.5953 24.4979 13.963 24.4979C13.3306 24.4979 12.8227 23.9321 12.8227 23.2532V19.983H9.82681C9.19447 19.983 8.68652 19.4286 8.68652 18.7383C8.68652 18.0481 9.19447 17.4936 9.82681 17.4936H12.8227V14.2235C12.8227 13.5446 13.3306 12.9788 13.963 12.9788C14.5953 12.9788 15.1032 13.5446 15.1032 14.2235V17.4936H18.0887C18.7211 17.4936 19.229 18.0481 19.229 18.7383Z" fill="white" stroke="#393938" stroke-width="0.7" stroke-miterlimit="10"/>
<path d="M18.0887 68.198H9.82681C9.19447 68.198 8.68652 67.6436 8.68652 66.9533C8.68652 66.2631 9.19447 65.7086 9.82681 65.7086H18.0887C18.7211 65.7086 19.229 66.2631 19.229 66.9533C19.229 67.6436 18.7211 68.198 18.0887 68.198Z" fill="white" stroke="#393938" stroke-width="0.7" stroke-miterlimit="10"/>
</g>
<defs>
<clipPath id="clip0_402_8196">
<rect width="30" height="80" fill="white"/>
</clipPath>
</defs>
</svg>
