<svg width="50" height="80" viewBox="0 0 50 80" fill="none" xmlns="http://www.w3.org/2000/svg">
<g clip-path="url(#clip0_473_9879)">
<path d="M49.9999 66.9445C49.8633 67.3934 44.1241 85.018 28.5776 76.692C28.5776 76.692 15.1428 84.4409 8.75148 68.1737C8.88192 68.2538 9.00614 68.3233 9.13036 68.3981C9.00614 68.318 8.88192 68.2485 8.75769 68.1683C16.8198 63.2892 21.6769 54.7709 21.6459 46.2578C21.6086 36.1256 14.6148 28.318 3.86328 23.9091C3.86328 23.9091 6.98751 12.7401 23.2732 14.5037C23.3229 14.5037 23.3726 14.5144 23.4161 14.5197C24.4285 11.185 26.8074 5.96392 33.3043 1.3841C33.9378 0.935199 34.8446 0.988639 35.4099 1.47495C35.4471 1.50701 35.4844 1.54442 35.5217 1.58183C36.0682 2.15898 35.9627 3.01937 35.2981 3.49499C30.0931 7.15564 27.8633 11.2011 26.7887 14.1884C31.1366 12.4516 44.4906 8.38476 49.8633 21.344C42.2173 26.7468 37.3602 34.9606 37.3974 44.1897C37.4347 53.3921 42.3291 61.5685 50.0123 66.9445H49.9999Z" fill="#ABF15C"/>
<path d="M32.3728 2.65598C26.6834 6.664 24.466 11.1156 23.4722 14.2151C23.4039 14.4235 23.3418 14.6212 23.2859 14.8136C23.0499 15.6259 22.8946 16.3153 22.7828 16.8604C22.5219 18.0147 22.3294 18.9339 21.1182 19.1423C20.2424 19.2866 19.3977 18.8003 19.23 18.0468C19.1368 17.6673 19.2424 17.2933 19.4784 16.9993C19.5219 16.839 19.5654 16.6199 19.6275 16.3474C19.702 16.0053 19.7952 15.5939 19.9132 15.1289C19.9691 14.9205 20.025 14.6961 20.0871 14.4609C21.0312 11.0942 23.3604 5.43487 30.348 0.507682C30.994 0.0480964 31.9256 0.101537 32.4971 0.598531C32.5343 0.630595 32.5716 0.668003 32.6089 0.705411C33.1679 1.2986 33.0623 2.17502 32.3791 2.66132L32.3728 2.65598Z" fill="white" stroke="#393938" stroke-width="0.7" stroke-miterlimit="10"/>
<path d="M47.4227 67.5591C37.0066 79.2732 22.9072 72.2298 22.9072 72.2298C14.6526 74.6667 10.9569 72.326 5.22398 68.8257C13.4786 63.8343 18.4476 55.1182 18.4103 46.4075C18.3731 36.0454 11.2178 28.0615 0.217773 23.5458C17.137 20.4249 21.9196 27.2064 21.9196 27.2064C28.901 19.3454 47.2737 20.9219 47.2737 20.9219C39.4538 26.4476 34.4849 34.8484 34.5221 44.2913C34.5594 53.7021 39.5656 62.0708 47.4227 67.5645V67.5591Z" fill="white" stroke="#393938" stroke-width="0.7" stroke-linecap="round" stroke-linejoin="round"/>
<path d="M47.2737 20.9165C47.2737 20.9165 28.901 19.34 21.9196 27.2011C21.9196 27.2011 17.137 20.4195 0.217773 23.5404C0.217773 23.5404 3.41653 12.1149 20.0749 13.9212C20.7768 14.0014 21.4973 14.1029 22.2426 14.2258C22.2426 14.2258 22.6836 14.0014 23.4662 13.6807C27.6836 11.9599 41.6836 7.44958 47.2737 20.9165Z" fill="white" stroke="#393938" stroke-width="0.7" stroke-linecap="round" stroke-linejoin="round"/>
<path d="M47.422 67.5538C47.422 67.5538 41.6146 86.151 25.5028 77.5311C25.5028 77.5311 11.7637 85.4562 5.22949 68.815C10.9624 72.3206 14.6519 74.656 22.9127 72.2244C22.9127 72.2244 37.0121 79.2679 47.4282 67.5538H47.422Z" fill="white" stroke="#393938" stroke-width="0.7" stroke-linecap="round" stroke-linejoin="round"/>
</g>
<defs>
<clipPath id="clip0_473_9879">
<rect width="50" height="80" fill="white"/>
</clipPath>
</defs>
</svg>
