<svg width="51" height="80" viewBox="0 0 51 80" fill="none" xmlns="http://www.w3.org/2000/svg">
<g clip-path="url(#clip0_402_8335)">
<path d="M49.9098 20.8417C49.9098 23.5778 49.276 26.2576 48.0322 28.8248C47.1712 30.5475 46.059 32.3153 44.9827 34.0267L44.8273 34.2632C42.9497 37.247 41.0243 40.3209 40.3068 43.3835L38.4532 54.2491C40.1394 55.0936 41.0722 56.3659 41.0722 57.841C41.0722 59.1921 40.3068 60.3857 38.8957 61.2414C40.3068 62.0971 41.0722 63.2681 41.0722 64.5968C41.0722 65.9254 40.3068 67.1415 38.8957 67.9972C40.3068 68.8529 41.0722 70.0239 41.0722 71.3526C41.0722 73.0528 39.8404 74.5053 37.6998 75.3498C37.4726 75.4398 37.2334 75.5186 36.9942 75.5862L36.4202 76.2393C33.6577 78.4124 30.1777 79.6059 26.578 79.6059H26.4704C22.8708 79.6059 19.3908 78.4124 16.6283 76.2393L15.9107 75.2372C15.7194 75.1696 15.54 75.102 15.3606 75.0345C13.1243 74.145 11.9882 72.9177 11.9882 71.3976C11.9882 69.8776 12.8493 68.7066 14.4159 67.8508C12.8134 67.0063 11.9882 65.9254 11.9882 64.6418C11.9882 63.1893 12.8493 61.9507 14.4159 61.095C12.8134 60.2505 11.9882 59.1696 11.9882 57.886C11.9882 56.3997 12.933 55.0823 14.6072 54.2266L12.7297 43.3385C12.0361 40.3209 10.0987 37.2358 8.23315 34.2632L8.07768 34.0267C7.00138 32.3153 5.88921 30.5475 5.02817 28.8248C3.77249 26.2576 3.13867 23.5778 3.13867 20.8417C3.13867 9.66081 13.6386 0.574249 26.5302 0.574249C39.4219 0.574249 49.9098 9.66081 49.9098 20.8417Z" fill="#ABF15C" stroke="#ABF15C" stroke-width="0.7" stroke-miterlimit="10"/>
<path d="M35.1403 53.5172V56.6024C33.8248 56.9852 31.4091 57.6608 30.6198 57.6608H17.7282C17.4412 57.627 14.8939 57.064 13.124 56.6587V53.3483L13.1958 53.7537L24.1501 55.0148L35.0924 53.7537L35.1403 53.5172Z" fill="white" stroke="#393938" stroke-width="0.7" stroke-miterlimit="10"/>
<path d="M30.6198 68.6502C32.3658 68.6502 33.9085 68.3687 35.1403 67.8846V70.4293C33.8248 70.8121 31.4091 71.4877 30.6198 71.4877H17.7282C17.4412 71.4539 14.8939 70.8909 13.124 70.4743V67.5806C15.2168 68.4138 17.5966 68.6502 17.6445 68.6502H30.6198Z" fill="white" stroke="#393938" stroke-width="0.7" stroke-miterlimit="10"/>
<path d="M30.6198 75.5637C32.3658 75.5637 33.9085 75.2822 35.1403 74.798L34.0281 76.0591C31.2656 78.2322 27.7856 79.4258 24.186 79.4258H24.0783C20.4787 79.4258 16.9987 78.2322 14.2362 76.0591L13.124 74.494C15.2168 75.3272 17.5966 75.5637 17.6445 75.5637H30.6198Z" fill="white" stroke="#393938" stroke-width="0.7" stroke-miterlimit="10"/>
<path d="M30.6198 61.7256C32.3658 61.7256 33.9085 61.4553 35.1403 60.9712V63.5158C33.8248 63.8987 31.4091 64.5742 30.6198 64.5742H17.7282C17.4412 64.5405 14.8939 63.9775 13.124 63.5609V60.6671C15.2168 61.5004 17.5966 61.7256 17.6445 61.7256H30.6198Z" fill="white" stroke="#393938" stroke-width="0.7" stroke-miterlimit="10"/>
<path d="M38.6679 64.4166C38.6679 63.088 37.9026 61.917 36.4914 61.0612C37.9026 60.2055 38.6679 59.012 38.6679 57.6608C38.6679 56.0732 37.6036 54.7333 35.6663 53.8663L35.4869 53.7875L35.1879 53.9226C35.1162 53.9564 35.0444 53.9901 34.9726 54.0127L34.7096 54.114V56.6249C32.4852 57.2554 31.1099 57.5707 30.6077 57.5707H17.7638C17.5366 57.5482 15.3242 57.064 13.5304 56.6474V53.4722L12.9564 53.6974C10.8157 54.5419 9.58398 55.9944 9.58398 57.6946C9.58398 58.9782 10.3972 60.0591 12.0116 60.9036C10.4331 61.7706 9.58398 63.0091 9.58398 64.4504C9.58398 65.734 10.3972 66.8149 12.0116 67.6594C10.4331 68.5264 9.58398 69.7649 9.58398 71.2062C9.58398 72.7262 10.7201 73.9535 12.9564 74.8431C15.0492 75.6763 17.4768 75.9353 17.6323 75.9353H30.6077C32.3537 75.9353 33.9801 75.665 35.2836 75.1471C37.4242 74.3026 38.656 72.8501 38.656 71.1499C38.656 69.8212 37.8906 68.6502 36.4795 67.7945C37.8906 66.9388 38.656 65.7452 38.656 64.3941L38.6679 64.4166ZM13.5424 68.3124C15.4797 68.9768 17.4888 69.1907 17.6443 69.1907H30.6196C32.1264 69.1907 33.5256 68.988 34.7215 68.6052V70.1253C32.4972 70.7558 31.1219 71.0711 30.6196 71.0711H17.7758C17.5486 71.0485 15.3362 70.5644 13.5424 70.1478V68.2899V68.3124ZM34.7215 63.3807C32.4972 64.0113 31.1219 64.3265 30.6196 64.3265H17.7758C17.5486 64.304 15.3362 63.8198 13.5424 63.4032V61.5454C15.4797 62.2097 17.4888 62.4236 17.6443 62.4236H30.6196C32.1264 62.4236 33.5256 62.221 34.7215 61.8381V63.3582V63.3807Z" fill="white" stroke="#393938" stroke-width="0.7" stroke-miterlimit="10"/>
<path d="M24.1386 0.394089C11.235 0.394089 0.74707 9.48065 0.74707 20.6615C0.74707 23.3976 1.38089 26.0774 2.63657 28.6446C3.49761 30.3673 4.60978 32.1351 5.68608 33.8353L5.84155 34.0718C7.70713 37.0443 9.64446 40.1295 10.3381 43.1471L12.3113 54.6094L24.1864 55.9606L35.954 54.6094L37.9032 43.1921C38.6088 40.1295 40.5462 37.0556 42.4117 34.083L42.5672 33.8353C43.6435 32.1239 44.7557 30.3673 45.6167 28.6334C46.8724 26.0661 47.5062 23.3863 47.5062 20.6502C47.5182 9.48065 37.0303 0.394089 24.1386 0.394089Z" fill="white" stroke="#393938" stroke-width="0.7" stroke-miterlimit="10"/>
<path d="M33.5742 30.5362C33.5383 30.4236 32.5936 27.8001 30.1181 27.5299C28.8504 27.3835 27.6785 27.5412 26.7218 27.9465C25.9684 27.6763 25.0954 27.5299 24.1267 27.5299C22.7993 27.5299 21.6393 27.8114 20.7065 28.2618C19.8933 27.8114 18.9963 27.5299 18.2071 27.5299C15.5522 27.5299 14.7151 29.5904 14.6553 30.6713V30.7389L18.6615 55.544L19.9052 55.6903L15.8512 30.6939C15.887 30.311 16.186 28.6559 18.2071 28.6559C18.6495 28.6559 19.1279 28.7797 19.5943 28.9711C18.8648 29.5904 18.4462 30.311 18.4462 31.0091C18.4462 31.5721 18.7213 32.0563 19.2116 32.3828C19.69 32.7093 20.3477 32.867 21.1729 32.867C21.8545 32.867 22.3807 32.7544 22.7634 32.5292C23.1819 32.2815 23.4211 31.8761 23.4211 31.4145C23.4211 30.6488 22.7634 29.7481 21.8425 29.0162C22.4764 28.791 23.2298 28.6559 24.1267 28.6559C24.605 28.6559 25.0475 28.6896 25.4541 28.7685C25.2867 28.9148 25.1432 29.0837 25.0236 29.2526C24.4257 30.0746 24.318 30.9979 24.7246 31.7298C24.9638 32.1576 25.5857 32.867 27.0925 32.867C27.8579 32.867 28.4678 32.6981 28.9222 32.3603C29.3766 32.0338 29.6158 31.5496 29.6158 30.9979C29.6158 30.1759 29.1016 29.3314 28.1807 28.6896C28.683 28.5996 29.281 28.5658 29.9746 28.6446C31.4575 28.8135 32.2109 30.3336 32.4022 30.7727L28.3601 55.6228L29.6039 55.4764L33.5981 30.7952L33.622 30.6601L33.5742 30.5362ZM22.2252 31.4145C22.2252 31.7298 21.3403 31.741 21.1729 31.741C20.4553 31.741 20.0846 31.5946 19.9052 31.4708C19.7258 31.3469 19.6421 31.2118 19.6421 31.0091C19.6421 30.615 19.9889 30.0633 20.6945 29.5792C21.5675 30.1872 22.2252 30.9528 22.2252 31.4145ZM28.4199 30.9979C28.4199 31.2006 28.3482 31.3582 28.1807 31.482C28.0253 31.5946 27.7024 31.741 27.0925 31.741C26.4348 31.741 25.9803 31.5496 25.777 31.2006C25.5857 30.8515 25.6694 30.3448 26.0042 29.8944C26.1119 29.7481 26.363 29.4553 26.7935 29.1963C27.8818 29.703 28.4199 30.4799 28.4199 30.9979Z" fill="#393938"/>
</g>
<defs>
<clipPath id="clip0_402_8335">
<rect width="50" height="80" fill="white" transform="translate(0.328125)"/>
</clipPath>
</defs>
</svg>
