<svg width="81" height="80" viewBox="0 0 81 80" fill="none" xmlns="http://www.w3.org/2000/svg">
<g clip-path="url(#clip0_402_8259)">
<path d="M21.0207 63.4807L18.8033 77.2175C18.6092 78.4484 16.8414 78.4484 16.637 77.2175L14.4707 63.6049C16.6268 63.5532 19.0588 63.5118 21.0207 63.4807Z" fill="#ABF15C" stroke="#ABF15C" stroke-width="0.7" stroke-miterlimit="10"/>
<path d="M67.4426 63.5945L65.2456 77.2175C65.0413 78.4484 63.2735 78.4484 63.0793 77.2175L60.8926 63.4704C62.7625 63.5014 65.2048 63.5325 67.4426 63.5945Z" fill="#ABF15C" stroke="#ABF15C" stroke-width="0.7" stroke-miterlimit="10"/>
<path d="M79.5107 24.9082C78.029 24.06 76.2306 23.6773 74.5752 24.1324C71.4994 24.9185 69.6295 28.2389 69.2923 31.4663C68.9959 34.0729 69.466 36.7106 69.8032 39.3483C69.5579 39.2863 69.3025 39.2346 69.0572 39.1932C68.9142 39.1621 68.7813 39.1415 68.6485 39.1208C68.4952 39.1001 68.3522 39.0794 68.1887 39.0587C68.0456 39.038 67.9026 39.0173 67.7595 39.007C67.5347 38.976 67.2997 38.9449 67.0647 38.9346C66.707 38.8932 66.3494 38.8725 65.9815 38.8415C64.694 38.7691 63.3758 38.7587 62.0781 38.738C45.4118 38.738 34.6007 38.6967 26.7428 38.9449C26.5486 38.9449 26.3647 38.9553 26.1705 38.9656C26.1297 38.9656 26.0786 38.9656 26.0275 38.9656C20.7037 39.1932 16.4017 39.6173 12.7129 40.3724C12.4165 40.4448 12.0998 40.4758 11.8034 40.5793C11.8034 40.1965 11.8034 39.7931 11.8341 39.4104C11.9363 37.083 12.4779 34.828 12.58 32.5213C12.6414 30.225 12.1713 27.7528 10.5874 26.1081C9.23862 24.7013 7.10297 24.091 5.233 24.5358C4.28269 24.7323 3.47543 25.2185 2.77036 25.8391C2.72949 26.015 2.70905 26.1805 2.70905 26.3874C2.70905 27.9286 2.46381 38.2415 3.32215 44.3134C4.12941 50.3439 4.97754 56.7468 4.97754 57.7812C4.97754 58.3501 5.53955 60.1396 6.57161 61.6188C5.52933 60.15 4.96732 58.3501 4.96732 57.7812C4.96732 56.7468 4.11919 50.3439 3.31194 44.3134C2.46381 38.2519 2.69883 27.9286 2.69883 26.3874C2.69883 26.1805 2.72949 26.0047 2.76014 25.8391C2.96451 24.6082 3.74111 23.8428 4.44618 23.0566C5.26365 22.1671 12.202 18.1536 12.202 18.1536C12.5085 13.8091 13.5201 8.5234 15.7273 4.27204C17.8936 0.0724007 23.34 0.51719 24.7706 0.41375C26.0581 0.351687 56.5295 0.351687 57.8068 0.41375C59.1965 0.51719 64.6838 0.0724002 66.8501 4.28238C69.0164 8.53374 70.0382 13.8091 70.3754 18.1639C70.3754 18.1639 77.3137 22.1671 78.0903 23.067C78.6012 23.6152 79.1633 24.1945 79.5107 24.9082Z" fill="#ABF15C" stroke="#ABF15C" stroke-width="0.7" stroke-miterlimit="10"/>
<path d="M79.2757 44.3238C78.4275 50.3543 77.6203 56.7572 77.6203 57.7916C77.6203 58.226 77.2831 59.3949 76.6597 60.5741C76.5984 60.6879 76.5371 60.812 76.4656 60.9258C76.4043 61.0499 76.3225 61.1637 76.251 61.2775C76.1795 61.4016 76.0977 61.5154 76.016 61.6292C75.7707 61.9705 75.5051 62.2912 75.2189 62.5808C74.473 63.3256 73.5636 63.8221 72.5213 63.76C71.4381 63.698 69.5375 63.6462 67.453 63.6049C65.2151 63.5532 62.7627 63.5118 60.9029 63.4807C59.2884 63.4601 58.1031 63.4394 57.8579 63.4394H24.6991C24.4232 63.4394 22.962 63.4497 21.0205 63.4807C19.0585 63.5118 16.6265 63.5532 14.4704 63.6049C12.6516 63.6462 11.0371 63.698 10.0765 63.7497C9.02403 63.8117 8.10437 63.3152 7.35843 62.5705C7.06209 62.2808 6.79642 61.9602 6.56139 61.6188C5.52933 60.1397 4.96732 58.3502 4.96732 57.7812C4.96732 56.7468 4.11919 50.3439 3.31194 44.3134C2.46381 38.2519 2.69883 27.9286 2.69883 26.3874C2.69883 26.1805 2.72949 26.0047 2.76014 25.8392C3.47543 25.2185 4.28268 24.7427 5.22278 24.5358C7.09275 24.091 9.2284 24.7117 10.5772 26.1081C12.1713 27.7528 12.6414 30.2146 12.5698 32.5213C12.4676 34.8177 11.9261 37.083 11.8239 39.4104C11.7932 39.7931 11.7932 40.1965 11.7932 40.5793C12.0896 40.4758 12.4063 40.4448 12.7027 40.3724C16.4017 39.6173 20.6935 39.1932 26.0173 38.9656C26.0581 38.9656 26.1092 38.9656 26.1603 38.9656C26.3545 38.9656 26.5384 38.9553 26.7326 38.9449C34.6007 38.6967 45.4016 38.738 62.0678 38.738C63.3554 38.7587 64.6735 38.7691 65.9713 38.8415C66.3289 38.8622 66.6866 38.8932 67.0544 38.9346C67.2895 38.9449 67.5245 38.976 67.7493 39.007C67.8923 39.0173 68.0354 39.038 68.1785 39.0587C68.3317 39.0794 68.485 39.1001 68.6383 39.1208C68.7711 39.1415 68.9142 39.1621 69.047 39.1932C69.2923 39.2346 69.5477 39.2863 69.793 39.3483C69.4558 36.7106 68.9857 34.0729 69.2821 31.4663C69.6193 28.239 71.4892 24.9186 74.565 24.1324C76.2204 23.6876 78.0188 24.0703 79.5005 24.9082C79.7048 25.3633 79.8479 25.8495 79.8479 26.3977C79.8785 27.939 80.0829 38.2519 79.2654 44.3238H79.2757Z" fill="#ABF15C" stroke="#ABF15C" stroke-width="0.7" stroke-miterlimit="10"/>
<path d="M62.0785 38.7277C45.4122 38.7277 34.6011 38.6863 26.7432 38.9346C35.3266 38.6036 46.5465 38.7277 62.0785 38.7277Z" fill="#ABF15C" stroke="#ABF15C" stroke-width="0.7" stroke-miterlimit="10"/>
<path d="M69.3232 39.2139C68.24 39.007 67.116 38.8932 65.9818 38.8311C64.6942 38.7587 63.3761 38.7484 62.0783 38.7277C45.4121 38.7277 34.601 38.6863 26.743 38.9346C26.5489 38.9346 26.3649 38.9449 26.1708 38.9553C26.1299 38.9553 26.0788 38.9553 26.0277 38.9553C20.4791 39.1518 16.402 39.5242 12.7131 40.1862C12.2431 40.2586 12.7029 40.0103 12.2227 40.1241C12.6007 38.6863 17.761 35.428 19.488 34.4763C19.7945 34.3005 20.1011 34.1971 20.4383 34.166C38.0753 32.2524 61.363 33.9902 62.5892 34.2074C63.5293 34.4039 67.443 37.2899 69.4151 39.0484C69.4867 39.1104 69.4254 39.2242 69.3232 39.2139Z" fill="#ABF15C" stroke="#ABF15C" stroke-width="0.7" stroke-miterlimit="10"/>
<path d="M12.2021 18.1639C13.6123 16.9434 15.7786 15.7641 18.0062 16.9744C21.7359 19.2087 20.9389 29.4492 19.6003 34.0626C19.6003 34.0833 19.5594 34.0729 19.5594 34.0626C19.1098 27.4942 19.3653 19.9948 17.2705 18.0605C16.0954 17.0675 13.9597 17.4812 12.2124 18.1743L12.2021 18.1639Z" fill="#ABF15C" stroke="#ABF15C" stroke-width="0.7" stroke-miterlimit="10"/>
<path d="M70.3648 18.1639C68.6073 17.4709 66.4818 17.0571 65.3067 18.0502C63.2528 19.9534 63.5389 27.5459 63.12 34.0522C63.12 34.135 62.9974 34.1453 62.9769 34.0729C61.6996 29.2837 60.9434 19.157 64.571 16.9847C66.8088 15.7745 68.9649 16.9537 70.3751 18.1743L70.3648 18.1639Z" fill="#ABF15C" stroke="#ABF15C" stroke-width="0.7" stroke-miterlimit="10"/>
<path d="M19.0998 64.9703L16.8824 78.707C16.6883 79.9483 14.9205 79.9483 14.7161 78.707L12.5498 65.0944C14.7059 65.0427 17.1379 65.0013 19.0998 64.9703Z" fill="white" stroke="#393938" stroke-width="0.7" stroke-miterlimit="10"/>
<path d="M65.5217 65.0841L63.3247 78.707C63.1204 79.9483 61.3628 79.9483 61.1584 78.707L58.9717 64.9599C60.8417 64.991 63.2839 65.0323 65.5217 65.0841Z" fill="white" stroke="#393938" stroke-width="0.7" stroke-miterlimit="10"/>
<path d="M1.68685 48.0683C1.58466 47.3132 1.48248 46.5581 1.38029 45.8029C0.532166 39.7414 0.767189 29.4182 0.767189 27.8769C0.767189 27.67 0.797845 27.5045 0.838718 27.3287C0.808063 27.5045 0.777408 27.67 0.777408 27.8769C0.777408 29.4182 0.532166 39.7414 1.39051 45.8029C1.4927 46.5581 1.59488 47.3132 1.68685 48.0683Z" fill="white" stroke="#393938" stroke-width="0.7" stroke-miterlimit="10"/>
<path d="M2.90268 57.6468C2.92312 57.7606 2.93334 57.8743 2.93334 57.9778C2.93334 57.9261 2.92312 57.864 2.9129 57.8019C2.87203 57.4192 2.82093 56.9744 2.76984 56.4779C2.76984 56.4469 2.75962 56.4262 2.75962 56.3952C2.73919 56.2917 2.72897 56.1883 2.71875 56.0745V56.0331C2.71875 56.0331 2.72897 56.0641 2.72897 56.0745C2.74941 56.2917 2.78006 56.5089 2.8005 56.7055C2.84137 57.0468 2.87203 57.3571 2.90268 57.6468Z" fill="white" stroke="#393938" stroke-width="0.7" stroke-miterlimit="10"/>
<path d="M3.046 59.2811C3.046 59.4052 3.07665 59.6121 3.13796 59.8603C3.06643 59.6121 3.03578 59.4156 3.03578 59.2811C3.03578 59.0639 2.9949 58.6191 2.93359 57.9778C2.97447 58.3088 3.00512 58.588 3.01534 58.8053C3.02556 58.9087 3.03578 59.0018 3.03578 59.0846C3.046 59.1673 3.046 59.2294 3.046 59.2811Z" fill="white" stroke="#393938" stroke-width="0.7" stroke-miterlimit="10"/>
<path d="M3.28163 60.3465C3.28163 60.3465 3.30207 60.4396 3.32251 60.481C3.30207 60.4293 3.28163 60.3879 3.27141 60.3465C3.27141 60.3155 3.26119 60.2845 3.25098 60.2638C3.26119 60.2845 3.27141 60.3155 3.28163 60.3465Z" fill="white" stroke="#393938" stroke-width="0.7" stroke-miterlimit="10"/>
<path d="M3.95609 61.9705C3.88456 61.8257 3.81303 61.6809 3.7415 61.5361C3.71085 61.4637 3.68019 61.4016 3.64954 61.3292C3.55757 61.1223 3.47583 60.9154 3.4043 60.7189C3.45539 60.8534 3.50648 60.9775 3.56779 61.1223C3.61888 61.2568 3.68019 61.4016 3.75172 61.5361C3.81303 61.6809 3.88456 61.8257 3.95609 61.9705Z" fill="white" stroke="#393938" stroke-width="0.7" stroke-miterlimit="10"/>
<path d="M67.4023 40.7034C66.3191 40.4862 65.1951 40.3827 64.0609 40.3207C62.7733 40.2483 61.4552 40.2379 60.1574 40.2172C46.291 40.2172 36.4813 40.1759 29.0423 40.3207C28.419 40.331 27.8161 40.3414 27.2235 40.3517C26.7738 40.3724 26.3242 40.3827 25.8951 40.3931C25.5272 40.3931 25.1696 40.4138 24.8221 40.4241C24.628 40.4345 24.444 40.4345 24.2499 40.4448C24.209 40.4551 24.1579 40.4551 24.1068 40.4551C23.7594 40.4551 23.4222 40.4758 23.085 40.4965C18.0473 40.6931 14.2563 41.0551 10.7922 41.6861C10.3222 41.7585 10.782 41.5206 10.3018 41.624C10.6798 40.1759 15.8401 36.9279 17.5671 35.9659C17.8736 35.79 18.1802 35.6969 18.5174 35.6556C36.1544 33.7419 59.4524 35.49 60.6683 35.6969C61.6084 35.8935 65.5221 38.7794 67.4942 40.5379C67.5658 40.6 67.5045 40.7137 67.4023 40.7034Z" fill="white" stroke="#393938" stroke-width="0.7" stroke-miterlimit="10"/>
<path d="M77.9777 32.4283C77.9777 32.9041 77.9777 33.4109 77.9675 33.9281V33.9798C77.9675 34.497 77.9675 35.0453 77.9675 35.5935V35.6349C77.9573 35.9038 77.9573 36.1831 77.947 36.4624V36.5038C77.947 36.7831 77.9368 37.0623 77.9266 37.3416V37.3727C77.9164 37.6623 77.9164 37.9416 77.9062 38.2312V38.2622C77.8959 38.5415 77.8857 38.8312 77.8755 39.1208V39.1518C77.8653 39.4311 77.8551 39.7207 77.8346 40.0104V40.031C77.8244 40.331 77.8142 40.6207 77.7938 40.8999C77.7733 41.1999 77.7631 41.4792 77.7427 41.7688V41.7895C77.7325 42.0688 77.712 42.3481 77.6814 42.6274C77.6711 42.917 77.6507 43.1963 77.62 43.4652C77.5894 43.8997 77.5485 44.3134 77.5076 44.7065C77.4872 44.8306 77.477 44.9444 77.4566 45.0582C77.4259 45.3168 77.3952 45.5651 77.3646 45.803C77.3135 46.1753 77.2624 46.5581 77.2113 46.9305C77.1602 47.3132 77.1091 47.6959 77.058 48.0683C77.0274 48.2545 76.9967 48.4407 76.9763 48.6269C76.9456 48.8234 76.9252 49.0096 76.9048 49.1958H76.8945C76.8537 49.5682 76.8026 49.9405 76.7515 50.3026C76.7004 50.675 76.6493 51.037 76.6084 51.3887C76.5165 52.1024 76.4245 52.7955 76.3427 53.4575C76.2201 54.3781 76.1179 55.2366 76.026 56.0021C76.0055 56.1572 75.9953 56.3021 75.9749 56.4469C75.9544 56.5917 75.9442 56.7365 75.9238 56.871V56.9124C75.8931 57.1503 75.8727 57.3778 75.8523 57.5847C75.8318 57.6985 75.8216 57.8019 75.8216 57.895C75.8012 58.0192 75.7909 58.1536 75.7807 58.2674C75.7603 58.495 75.7399 58.6915 75.7296 58.857C75.7296 58.9087 75.7194 58.9501 75.7194 58.9915V59.0225C75.7092 59.126 75.7092 59.2191 75.7092 59.2811C75.7092 59.3846 75.6888 59.5397 75.6479 59.7259C75.6275 59.819 75.5968 59.9121 75.5661 60.0259C75.5559 60.0879 75.5355 60.1397 75.5151 60.2017C75.5151 60.2224 75.5048 60.2431 75.4946 60.2638C75.4844 60.3052 75.4742 60.3465 75.4537 60.3879C75.4129 60.512 75.372 60.6465 75.3209 60.7706C75.2698 60.9051 75.2187 61.0292 75.1574 61.1741C75.0961 61.3189 75.0246 61.4637 74.9633 61.6085C74.8815 61.7637 74.81 61.9085 74.7384 62.0533C74.6874 62.1774 74.6158 62.2912 74.5443 62.4153C74.4728 62.5291 74.4012 62.6532 74.3297 62.767C74.2582 62.8912 74.1764 63.0049 74.0947 63.1084C73.8495 63.4497 73.594 63.7704 73.2977 64.06C72.5415 64.8048 71.6423 65.3013 70.6 65.2392C69.5168 65.1772 67.6162 65.1254 65.5317 65.0841C63.2938 65.0323 60.8516 64.991 58.9817 64.9599C57.3671 64.9392 56.1818 64.9289 55.9366 64.9289H22.7778C22.5121 64.9289 21.0407 64.9393 19.0992 64.9703C17.1372 65.0013 14.7052 65.0427 12.5492 65.0944C10.7405 65.1461 9.11577 65.1875 8.15524 65.2392C7.10275 65.3013 6.19331 64.8048 5.43714 64.06C5.15103 63.7704 4.88535 63.4497 4.64011 63.1084C4.38465 62.736 4.14962 62.3533 3.95547 61.9705C3.88394 61.8257 3.81242 61.6809 3.75111 61.5361C3.67958 61.4016 3.61827 61.2568 3.56717 61.1223C3.50586 60.9775 3.45477 60.8534 3.40368 60.7189C3.37302 60.6362 3.34237 60.5638 3.32193 60.481C3.3015 60.4396 3.29128 60.3879 3.28106 60.3465C3.27084 60.3155 3.26062 60.2845 3.2504 60.2638C3.19931 60.119 3.16866 59.9845 3.138 59.8604C3.07669 59.6121 3.04603 59.4052 3.04603 59.2811C3.04603 59.2294 3.04603 59.1673 3.03582 59.0846C3.03582 59.0018 3.0256 58.9087 3.01538 58.8053C3.00516 58.5881 2.97451 58.3088 2.93363 57.9778C2.93363 57.9054 2.93363 57.833 2.9132 57.7606C2.9132 57.7295 2.9132 57.6881 2.90298 57.6468C2.90298 57.6054 2.89276 57.5537 2.88254 57.502C2.8621 57.2951 2.84167 57.0779 2.81101 56.8399C2.81101 56.7986 2.81101 56.7469 2.80079 56.7055C2.78036 56.5089 2.7497 56.2917 2.72926 56.0745C2.72926 56.0641 2.72926 56.0538 2.71905 56.0331C2.66795 55.5883 2.60664 55.1022 2.53511 54.585C2.49424 54.2436 2.45337 53.8816 2.40227 53.5195C2.33075 52.9817 2.25922 52.4334 2.18769 51.8542C2.14681 51.5749 2.11616 51.2853 2.07529 50.9853C1.99354 50.406 1.92201 49.8061 1.84026 49.1958C1.78917 48.8234 1.73808 48.4407 1.68699 48.0683C1.59502 47.3132 1.49284 46.5581 1.39065 45.803C0.532304 39.7414 0.777546 29.4182 0.777546 27.8769C0.777546 27.67 0.808201 27.5045 0.838856 27.3287C1.55415 26.7184 2.3614 26.2322 3.31171 26.0357C5.17147 25.5806 7.31733 26.2012 8.66616 27.608C10.2602 29.2527 10.7303 31.7145 10.6588 34.0109C10.5566 36.3072 10.015 38.5726 9.91281 40.8999C9.88216 41.2827 9.88216 41.6861 9.88216 42.0688C10.1887 41.9654 10.4953 41.9343 10.7916 41.8619C14.2454 41.1482 18.2306 40.7344 23.0844 40.4965C23.4216 40.4758 23.7588 40.4655 24.1062 40.4551C24.1573 40.4551 24.2084 40.4551 24.2493 40.4448C24.4434 40.4345 24.6273 40.4345 24.8215 40.4241C25.1689 40.4138 25.5266 40.4034 25.8944 40.3931C26.3236 40.3827 26.7732 40.3724 27.2228 40.3517C27.8155 40.3414 28.4184 40.331 29.0417 40.3207C36.4807 40.1759 46.2904 40.2172 60.1568 40.2172C61.4545 40.2379 62.7727 40.2483 64.0602 40.3207C64.3054 40.331 64.5507 40.3517 64.7959 40.3724C64.939 40.3931 65.0718 40.4034 65.2047 40.4138C65.4193 40.4345 65.6338 40.4551 65.8382 40.4862C65.9711 40.4965 66.1039 40.5172 66.2367 40.5379C66.4002 40.5482 66.5535 40.5689 66.717 40.6C66.8498 40.6207 66.9929 40.6413 67.1359 40.6724C67.3812 40.7241 67.6264 40.7758 67.8819 40.8275C67.5447 38.1898 67.0746 35.5521 67.371 32.9558C67.7082 29.7285 69.5781 26.3977 72.6539 25.6116C74.3093 25.1668 76.1077 25.5495 77.5894 26.3977C77.6303 26.4805 77.6609 26.5736 77.7018 26.6563C77.7018 26.6977 77.7325 26.7391 77.7427 26.7805C77.7631 26.8218 77.7733 26.8736 77.7938 26.9253C77.8142 26.977 77.8244 27.0391 77.8346 27.1011C77.8653 27.2253 77.8857 27.3494 77.9062 27.4735C77.9164 27.608 77.9266 27.7424 77.9266 27.8769C77.9368 28.4355 77.9675 30.1629 77.9675 32.4283H77.9777Z" fill="white" stroke="#393938" stroke-width="0.7" stroke-miterlimit="10"/>
<path d="M2.71875 56.0331C2.71875 56.0331 2.72922 56.0645 2.72922 56.075H2.71875V56.0331Z" fill="white" stroke="#393938" stroke-width="0.7" stroke-miterlimit="10"/>
<path d="M2.72949 56.0745C2.74993 56.2917 2.78058 56.5089 2.80102 56.7054C2.80102 56.633 2.78058 56.5606 2.77037 56.4779C2.77037 56.4468 2.76015 56.4262 2.76015 56.3951C2.74993 56.2917 2.72949 56.1882 2.72949 56.0745Z" fill="white" stroke="#393938" stroke-width="0.7" stroke-miterlimit="10"/>
<path d="M2.90332 57.6468C2.92427 57.7605 2.93474 57.8743 2.93474 57.9778C2.93474 57.926 2.92427 57.864 2.91379 57.8019C2.91379 57.7502 2.91379 57.6985 2.90332 57.6468Z" fill="white" stroke="#393938" stroke-width="0.7" stroke-miterlimit="10"/>
<path d="M3.25098 60.2638C3.25098 60.2638 3.27192 60.3155 3.2824 60.3465H3.27192C3.27192 60.3465 3.26145 60.2845 3.25098 60.2638Z" fill="white" stroke="#393938" stroke-width="0.7" stroke-miterlimit="10"/>
<path d="M3.75131 61.5361H3.7411C3.71044 61.4637 3.67979 61.4016 3.64913 61.3292C3.61847 61.2568 3.58782 61.1844 3.56738 61.1223C3.61847 61.2568 3.67979 61.4016 3.75131 61.5361Z" fill="white" stroke="#393938" stroke-width="0.7" stroke-miterlimit="10"/>
<path d="M77.3644 45.803C76.5163 51.8335 75.709 58.2364 75.709 59.2708C75.709 59.7052 75.3718 60.8637 74.7383 62.0533C75.3616 60.8741 75.6988 59.7052 75.6988 59.2708C75.6988 58.2364 76.5163 51.8335 77.3542 45.803C78.1717 39.7414 77.9673 29.4182 77.9366 27.8769C77.9366 27.3287 77.7936 26.8425 77.5892 26.3977C77.7936 26.8425 77.9366 27.3287 77.9366 27.8769C77.9673 29.4182 78.1717 39.7311 77.3542 45.803H77.3644Z" fill="white" stroke="#393938" stroke-width="0.7" stroke-miterlimit="10"/>
<path d="M77.5894 26.3977C76.1077 25.5495 74.3093 25.1668 72.6539 25.6116C69.5782 26.3977 67.7082 29.7285 67.371 32.9558C67.0747 35.5521 67.5447 38.1898 67.8819 40.8275C67.6264 40.7758 67.3812 40.7241 67.136 40.6724C66.9929 40.6413 66.8499 40.6206 66.717 40.6C66.9418 40.631 67.1768 40.662 67.4016 40.7034C67.5038 40.7137 67.5651 40.6 67.4936 40.5379C65.5215 38.7794 61.6078 35.8935 60.6677 35.6969C59.4517 35.4901 36.1537 33.7419 18.5167 35.6556C18.1795 35.6969 17.873 35.79 17.5664 35.9659C15.8395 36.9279 10.6792 40.1759 10.3011 41.624C10.7814 41.5206 10.3216 41.7585 10.7916 41.6861C14.2557 41.0551 18.0467 40.6931 23.0844 40.4965C18.2306 40.7344 14.2454 41.1482 10.7916 41.8619C10.4953 41.9343 10.1887 41.9654 9.88217 42.0688C9.88217 41.6861 9.88217 41.2827 9.91282 40.8999C10.015 38.5725 10.5566 36.3072 10.6588 34.0109C10.7303 31.7145 10.2602 29.2527 8.66618 27.608C7.31734 26.2012 5.17148 25.5806 3.31172 26.0357C2.36141 26.2322 1.55416 26.7184 0.838867 27.3287C1.04324 26.0978 1.81984 25.3426 2.52491 24.5462C3.34238 23.6566 10.2807 19.6535 10.2807 19.6535C10.5872 15.2987 11.5989 10.0233 13.806 5.77192C15.9723 1.56194 21.4188 2.00673 22.8493 1.90329C24.1266 1.83088 54.598 1.83088 55.8855 1.90329C57.2752 2.00673 62.7625 1.56194 64.9288 5.77192C67.0951 10.0233 68.1169 15.2987 68.4541 19.6535C68.4541 19.6535 75.3925 23.6566 76.1691 24.5462C76.68 25.1047 77.242 25.6737 77.5894 26.3977Z" fill="white" stroke="#393938" stroke-width="0.7" stroke-miterlimit="10"/>
</g>
<defs>
<clipPath id="clip0_402_8259">
<rect width="80" height="80" fill="white" transform="translate(0.328125)"/>
</clipPath>
</defs>
</svg>
