<svg width="70" height="84" viewBox="0 0 70 84" fill="none" xmlns="http://www.w3.org/2000/svg">
<path d="M34.6794 2.29102C16.9145 2.29102 2.5144 16.6506 2.5144 34.3656C2.5144 58.3079 34.6794 80.4793 34.6794 80.4793C34.6794 80.4793 66.8444 57.9584 66.8444 34.3656C66.8444 16.6506 52.4443 2.29102 34.6794 2.29102ZM52.4093 42.3871C48.1798 46.2727 34.6735 56.9389 34.6735 56.9389C34.6735 56.9389 21.3659 46.9484 16.9378 42.3871C12.1066 37.4181 12.1066 29.3674 16.9378 24.3983C21.769 19.4293 29.597 19.4293 34.4282 24.3983L34.6735 24.6488L34.9189 24.3983C39.7501 19.4293 47.5781 19.4293 52.4093 24.3983C57.2404 29.3674 57.5033 37.7035 52.4093 42.3871Z" fill="#ABF15C" stroke="#ABF15C" stroke-miterlimit="10"/>
<path d="M33.0986 4.45605C15.3336 4.45605 0.933594 18.8156 0.933594 36.5306C0.933594 60.4729 33.0986 82.6444 33.0986 82.6444C33.0986 82.6444 65.2635 60.1234 65.2635 36.5306C65.2635 18.8156 50.8635 4.45605 33.0986 4.45605ZM50.8284 44.5522C46.599 48.4377 33.0927 59.104 33.0927 59.104C33.0927 59.104 19.7851 49.1135 15.357 44.5522C10.5258 39.5831 10.5258 31.5324 15.357 26.5634C20.1882 21.5943 28.0162 21.5943 32.8474 26.5634L33.0927 26.8139L33.3381 26.5634C38.1693 21.5943 45.9973 21.5943 50.8284 26.5634C55.6596 31.5324 55.9225 39.8686 50.8284 44.5522Z" fill="white" stroke="#393938" stroke-miterlimit="10"/>
</svg>
