<svg width="52" height="82" viewBox="0 0 52 82" fill="none" xmlns="http://www.w3.org/2000/svg">
<g clip-path="url(#clip0_402_8310)">
<path d="M33.9672 16.8165C33.9672 16.8165 33.9672 16.8475 33.9672 16.8599V16.8724L35.8027 16.8972V16.8413L33.9672 16.8165Z" fill="#ABF15C" stroke="#ABF15C" stroke-miterlimit="10"/>
<path d="M17.5263 16.6241V16.6365L19.125 16.6613V16.6489L17.5263 16.6241Z" fill="#ABF15C" stroke="#ABF15C" stroke-miterlimit="10"/>
<path d="M33.9672 16.8165C33.9672 16.8165 33.9672 16.8475 33.9672 16.8599L35.8027 16.8848V16.8413L33.9672 16.8165Z" fill="#ABF15C" stroke="#ABF15C" stroke-miterlimit="10"/>
<path d="M21.0987 2.67621C21.2434 2.56448 21.4145 2.46516 21.5987 2.40308C21.5987 2.40308 24.5197 1.21128 26.9868 1.32922C27.4013 1.34784 27.8092 1.39129 28.2039 1.44716C28.2171 1.44716 28.2368 1.44095 28.25 1.44095C27.8421 1.37888 27.4211 1.33543 26.9868 1.3168C24.5197 1.19886 21.5987 2.39067 21.5987 2.39067C21.4145 2.45274 21.2434 2.55206 21.0987 2.67621Z" fill="#ABF15C" stroke="#ABF15C" stroke-miterlimit="10"/>
<path d="M18.1909 10.0195C18.5199 9.69669 18.9936 9.49185 19.5002 9.51047L20.3291 9.54151V9.52909L19.5002 9.49806C18.987 9.47944 18.5133 9.68428 18.1909 10.0195Z" fill="#ABF15C" stroke="#ABF15C" stroke-miterlimit="10"/>
<path d="M3.37507 40.8513C2.00665 38.1138 1.98692 31.503 8.67113 24.5508C12.8619 20.1933 19.0264 18.4242 19.0264 18.4242L19.1251 16.6613V16.6489L17.5264 16.6241L17.7303 11.0685C17.7303 10.9071 17.7632 10.7519 17.8224 10.6092C17.8817 10.4478 17.9672 10.2926 18.0659 10.1622C18.1053 10.1126 18.1448 10.0629 18.1909 10.0195C18.5198 9.6967 18.9935 9.49185 19.5001 9.51048L20.329 9.54151V9.5291L20.4803 3.88043C20.4803 3.71904 20.5132 3.55765 20.5724 3.40868C20.6119 3.29695 20.6645 3.18521 20.7303 3.07969C20.829 2.92451 20.954 2.78795 21.0988 2.67621C21.2435 2.56448 21.4145 2.46516 21.5988 2.40309C21.5988 2.40309 24.5198 1.21128 26.9869 1.32922C27.4014 1.34785 27.8093 1.3913 28.204 1.44716C30.4606 1.76374 32.2501 2.54586 32.2501 2.54586C32.9014 2.79415 33.329 3.40247 33.3224 4.07286L33.2632 9.70911H34.0922C35.0395 9.70911 35.8027 10.4416 35.8027 11.3416V16.8413L33.9672 16.8165C33.9672 16.8165 33.9672 16.8475 33.9672 16.8599V16.8724C33.9672 17.1455 33.9672 17.3938 33.9803 17.611C33.9869 18.0952 33.9935 18.4242 33.9935 18.4242C33.9935 18.4242 43.7764 24.4018 45.5856 29.5167C47.3882 34.6315 42.1317 39.0139 41.9672 42.6203C41.8027 46.2206 45.0856 46.9965 46.408 52.0182C47.7764 57.2634 51.5198 72.2417 50.5001 76.8475C50.4803 76.9344 50.4606 77.0213 50.4343 77.102C50.4145 77.1827 50.3882 77.2572 50.3619 77.3255C50.3422 77.3813 50.3224 77.4372 50.3027 77.4869C50.2632 77.5676 50.2238 77.6421 50.1843 77.7103C49.6777 78.5359 48.0461 80.6899 48.0461 80.6899H7.19086C7.19086 80.6899 7.12507 80.6092 7.00665 80.4726C6.98691 80.4478 6.9606 80.4229 6.94086 80.3981C6.93428 80.3919 6.9277 80.3857 6.9277 80.3795C6.88823 80.336 6.84218 80.2802 6.78955 80.2243C6.78955 80.2181 6.78297 80.2119 6.77639 80.2057C6.74349 80.1622 6.70402 80.1188 6.66455 80.0691C6.10534 79.4049 5.20402 78.3125 4.48692 77.3317C4.38165 77.1889 4.28297 77.0524 4.19086 76.9158C4.17112 76.8972 4.15797 76.8724 4.14481 76.8475H4.13823C3.78954 76.3385 3.51323 75.8916 3.40797 75.5936C2.96718 74.3398 5.79613 59.1442 8.1777 51.0002C9.52639 46.3882 4.97375 44.0294 3.37507 40.8513ZM10.8159 38.8339C11.1316 38.747 11.4474 38.6042 11.7698 38.4242C11.8685 38.3745 11.9606 38.3249 12.0527 38.2628C12.1777 38.1883 12.2961 38.1076 12.4211 38.0207C12.4343 38.0145 12.454 38.0021 12.4672 37.9897C12.5527 37.9276 12.6382 37.8655 12.7303 37.7972C12.8093 37.7352 12.8817 37.6793 12.9606 37.611C13.0724 37.5241 13.1843 37.4248 13.2961 37.3255C13.7435 36.9282 14.1974 36.4627 14.6448 35.9351C14.7567 35.8047 14.8751 35.6681 14.9803 35.5316C15.3224 35.1157 15.658 34.6626 15.9869 34.1846C18.7698 30.1436 18.5527 24.7805 17.4869 24.0108C17.4014 23.9549 17.3224 23.8991 17.2369 23.8556C17.1514 23.8059 17.0593 23.7687 16.9672 23.7377C15.0001 23.0424 11.908 25.3143 9.34218 28.3932C6.89481 31.3416 5.7106 36.4875 7.93428 38.3063C8.79612 39.0077 9.77639 39.1567 10.8159 38.8339Z" fill="#ABF15C" stroke="#ABF15C" stroke-miterlimit="10"/>
<path d="M33.9673 16.8786C33.9673 17.1455 33.9673 17.3938 33.9805 17.611V16.8786H33.9673Z" fill="#ABF15C" stroke="#ABF15C" stroke-miterlimit="10"/>
<path d="M4.1378 76.8475C4.1378 76.8475 4.17069 76.891 4.19043 76.9158C4.17069 76.8972 4.15754 76.8724 4.14438 76.8475H4.1378Z" fill="#ABF15C" stroke="#ABF15C" stroke-miterlimit="10"/>
</g>
<path d="M1.724 40.8386C0.356236 38.0798 0.33651 31.4175 7.01751 24.4111C11.2063 20.0196 17.3678 18.2367 17.3678 18.2367L17.4664 16.4601V16.4476L15.8685 16.4226L16.0724 10.8237C16.0724 10.6611 16.1052 10.5047 16.1644 10.3608C16.2236 10.1981 16.3091 10.0417 16.4077 9.91037C16.4472 9.86033 16.4866 9.81028 16.5327 9.76649C16.8615 9.44119 17.3349 9.23476 17.8412 9.25352L18.6698 9.2848V9.27229L18.821 3.5796C18.821 3.41695 18.8539 3.2543 18.9131 3.10416C18.9525 2.99156 19.0052 2.87896 19.0709 2.77261C19.1695 2.61622 19.2945 2.47859 19.4392 2.36599C19.5838 2.25339 19.7548 2.1533 19.9389 2.09074C19.9389 2.09074 22.8586 0.889644 25.3245 1.0085C25.7388 1.02727 26.1465 1.07106 26.541 1.12736C28.7965 1.4464 30.5851 2.23462 30.5851 2.23462C31.2361 2.48485 31.6635 3.09791 31.657 3.77352L31.5978 9.45371H32.4263C33.3732 9.45371 34.136 10.1919 34.136 11.099V16.6415L32.3014 16.6165C32.3014 16.6165 32.3014 16.6478 32.3014 16.6603V16.6728C32.3014 16.948 32.3014 17.1983 32.3145 17.4172C32.3211 17.9052 32.3277 18.2367 32.3277 18.2367C32.3277 18.2367 42.1059 24.261 43.9142 29.4157C45.716 34.5704 40.4619 38.9869 40.2975 42.6215C40.1331 46.2498 43.4145 47.0317 44.7362 52.0926C46.104 57.3787 49.8456 72.4737 48.8263 77.1154C48.8066 77.203 48.7869 77.2906 48.7606 77.3719C48.7408 77.4532 48.7145 77.5283 48.6882 77.5971C48.6685 77.6534 48.6488 77.7097 48.6291 77.7598C48.5896 77.8411 48.5501 77.9162 48.5107 77.985C48.0044 78.817 46.3736 80.9877 46.3736 80.9877H5.53795C5.53795 80.9877 5.47219 80.9064 5.35383 80.7688C5.3341 80.7437 5.3078 80.7187 5.28807 80.6937C5.28149 80.6874 5.27492 80.6812 5.27492 80.6749C5.23547 80.6311 5.18944 80.5748 5.13683 80.5185C5.13683 80.5123 5.13025 80.506 5.12368 80.4998C5.0908 80.456 5.05135 80.4122 5.01189 80.3621C4.45295 79.6928 3.55207 78.5918 2.83531 77.6034C2.73009 77.4595 2.63145 77.3219 2.53939 77.1842C2.51966 77.1655 2.50652 77.1404 2.49336 77.1154H2.48679C2.13827 76.6025 1.86209 76.152 1.75688 75.8518C1.3163 74.5881 4.14389 59.2741 6.52432 51.0667C7.87236 46.4187 3.32191 44.0415 1.724 40.8386ZM9.16121 38.8055C9.47684 38.7179 9.79248 38.574 10.1147 38.3926C10.2133 38.3426 10.3054 38.2925 10.3975 38.23C10.5224 38.1549 10.6408 38.0736 10.7657 37.986C10.7789 37.9797 10.7986 37.9672 10.8117 37.9547C10.8972 37.8921 10.9827 37.8296 11.0748 37.7608C11.1537 37.6982 11.226 37.6419 11.3049 37.5731C11.4167 37.4855 11.5285 37.3854 11.6403 37.2853C12.0874 36.885 12.5412 36.4158 12.9883 35.8841C13.1001 35.7527 13.2185 35.6151 13.3237 35.4774C13.6656 35.0583 14.001 34.6016 14.3298 34.12C17.1113 30.0475 16.8943 24.6426 15.8291 23.8669C15.7436 23.8106 15.6647 23.7542 15.5792 23.7105C15.4937 23.6604 15.4016 23.6229 15.3096 23.5916C13.3434 22.891 10.2528 25.1806 7.68823 28.2834C5.24204 31.2548 4.0584 36.4408 6.28102 38.2737C7.14244 38.9806 8.12223 39.1308 9.16121 38.8055Z" fill="white" stroke="#393938" stroke-width="0.7" stroke-miterlimit="10"/>
<defs>
<clipPath id="clip0_402_8310">
<rect width="50" height="82" fill="white" transform="matrix(-1 0 0 1 52 0)"/>
</clipPath>
</defs>
</svg>
