<svg width="116" height="60" viewBox="0 0 116 60" fill="none" xmlns="http://www.w3.org/2000/svg">
<g clip-path="url(#clip0_402_8365)">
<path d="M36.5701 11.9896C37.8115 11.9896 38.8189 10.9655 38.8189 9.70344V2.64827C38.8189 1.3862 37.8115 0.362061 36.5701 0.362061H11.1925C9.95114 0.362061 8.93359 1.3862 8.93359 2.64827V9.70344C8.93359 10.9655 9.95114 11.9896 11.1925 11.9896H36.5701Z" fill="#ABF15C" stroke="#ABF15C" stroke-width="0.7" stroke-miterlimit="10"/>
<path d="M66.5775 0.362061H41.1999C39.958 0.362061 38.9512 1.38563 38.9512 2.64827V9.70344C38.9512 10.9661 39.958 11.9896 41.1999 11.9896H66.5775C67.8195 11.9896 68.8263 10.9661 68.8263 9.70344V2.64827C68.8263 1.38563 67.8195 0.362061 66.5775 0.362061Z" fill="#ABF15C" stroke="#ABF15C" stroke-width="0.7" stroke-miterlimit="10"/>
<path d="M96.6664 0.362061H71.2888C70.0468 0.362061 69.04 1.38563 69.04 2.64827V9.70344C69.04 10.9661 70.0468 11.9896 71.2888 11.9896H96.6664C97.9083 11.9896 98.9151 10.9661 98.9151 9.70344V2.64827C98.9151 1.38563 97.9083 0.362061 96.6664 0.362061Z" fill="#ABF15C" stroke="#ABF15C" stroke-width="0.7" stroke-miterlimit="10"/>
<path d="M52.8513 24.4034C54.0927 24.4034 55.1001 23.3793 55.1001 22.1172V15.0621C55.1001 13.8 54.0927 12.7758 52.8513 12.7758H27.4738C26.2324 12.7758 25.2148 13.8 25.2148 15.0621V22.1172C25.2148 23.3793 26.2324 24.4034 27.4738 24.4034H52.8513Z" fill="#ABF15C" stroke="#ABF15C" stroke-width="0.7" stroke-miterlimit="10"/>
<path d="M82.8587 12.7758H57.4812C56.2392 12.7758 55.2324 13.7994 55.2324 15.0621V22.1172C55.2324 23.3799 56.2392 24.4034 57.4812 24.4034H82.8587C84.1007 24.4034 85.1075 23.3799 85.1075 22.1172V15.0621C85.1075 13.7994 84.1007 12.7758 82.8587 12.7758Z" fill="#ABF15C" stroke="#ABF15C" stroke-width="0.7" stroke-miterlimit="10"/>
<path d="M112.948 12.7758H87.5701C86.3281 12.7758 85.3213 13.7994 85.3213 15.0621V22.1172C85.3213 23.3799 86.3281 24.4034 87.5701 24.4034H112.948C114.19 24.4034 115.196 23.3799 115.196 22.1172V15.0621C115.196 13.7994 114.19 12.7758 112.948 12.7758Z" fill="#ABF15C" stroke="#ABF15C" stroke-width="0.7" stroke-miterlimit="10"/>
<path d="M93.6136 2.94827H68.2361C66.7131 2.94827 65.4785 4.20342 65.4785 5.75172V12.8069C65.4785 14.3552 66.7131 15.6103 68.2361 15.6103H93.6136C95.1366 15.6103 96.3711 14.3552 96.3711 12.8069V5.75172C96.3711 4.20342 95.1366 2.94827 93.6136 2.94827Z" fill="white" stroke="#393938" stroke-width="0.7" stroke-miterlimit="10"/>
<path d="M61.0531 2.94827H35.6755C34.1526 2.94827 32.918 4.20342 32.918 5.75172V12.8069C32.918 14.3552 34.1526 15.6103 35.6755 15.6103H61.0531C62.576 15.6103 63.8106 14.3552 63.8106 12.8069V5.75172C63.8106 4.20342 62.576 2.94827 61.0531 2.94827Z" fill="white" stroke="#393938" stroke-width="0.7" stroke-miterlimit="10"/>
<path d="M28.4915 2.94827H3.11399C1.59104 2.94827 0.356445 4.20342 0.356445 5.75172V12.8069C0.356445 14.3552 1.59104 15.6103 3.11399 15.6103H28.4915C30.0145 15.6103 31.2491 14.3552 31.2491 12.8069V5.75172C31.2491 4.20342 30.0145 2.94827 28.4915 2.94827Z" fill="white" stroke="#393938" stroke-width="0.7" stroke-miterlimit="10"/>
<path d="M37.3646 36.8173C38.1684 36.8173 38.8197 35.7931 38.8197 34.531V27.4759C38.8197 26.2138 38.1684 25.1897 37.3646 25.1897H20.9516C20.1477 25.1897 19.4863 26.2138 19.4863 27.4759V34.531C19.4863 35.7931 20.1477 36.8173 20.9516 36.8173H37.3646Z" fill="#ABF15C" stroke="#ABF15C" stroke-width="0.7" stroke-miterlimit="10"/>
<path d="M66.5775 25.1897H41.1999C39.958 25.1897 38.9512 26.2132 38.9512 27.4759V34.531C38.9512 35.7937 39.958 36.8173 41.1999 36.8173H66.5775C67.8195 36.8173 68.8263 35.7937 68.8263 34.531V27.4759C68.8263 26.2132 67.8195 25.1897 66.5775 25.1897Z" fill="#ABF15C" stroke="#ABF15C" stroke-width="0.7" stroke-miterlimit="10"/>
<path d="M96.6664 25.1897H71.2888C70.0468 25.1897 69.04 26.2132 69.04 27.4759V34.531C69.04 35.7937 70.0468 36.8173 71.2888 36.8173H96.6664C97.9083 36.8173 98.9151 35.7937 98.9151 34.531V27.4759C98.9151 26.2132 97.9083 25.1897 96.6664 25.1897Z" fill="#ABF15C" stroke="#ABF15C" stroke-width="0.7" stroke-miterlimit="10"/>
<path d="M52.8513 49.231C54.0927 49.231 55.1001 48.2069 55.1001 46.9448V39.8897C55.1001 38.6276 54.0927 37.6035 52.8513 37.6035H27.4738C26.2324 37.6035 25.2148 38.6276 25.2148 39.8897V46.9448C25.2148 48.2069 26.2324 49.231 27.4738 49.231H52.8513Z" fill="#ABF15C" stroke="#ABF15C" stroke-width="0.7" stroke-miterlimit="10"/>
<path d="M82.8587 37.6035H57.4812C56.2392 37.6035 55.2324 38.627 55.2324 39.8897V46.9448C55.2324 48.2075 56.2392 49.231 57.4812 49.231H82.8587C84.1007 49.231 85.1075 48.2075 85.1075 46.9448V39.8897C85.1075 38.627 84.1007 37.6035 82.8587 37.6035Z" fill="#ABF15C" stroke="#ABF15C" stroke-width="0.7" stroke-miterlimit="10"/>
<path d="M112.948 37.6035H87.5701C86.3281 37.6035 85.3213 38.627 85.3213 39.8897V46.9448C85.3213 48.2075 86.3281 49.231 87.5701 49.231H112.948C114.19 49.231 115.196 48.2075 115.196 46.9448V39.8897C115.196 38.627 114.19 37.6035 112.948 37.6035Z" fill="#ABF15C" stroke="#ABF15C" stroke-width="0.7" stroke-miterlimit="10"/>
<path d="M109.895 46.3965H84.5173C82.9944 46.3965 81.7598 47.6517 81.7598 49.2V56.2552C81.7598 57.8035 82.9944 59.0586 84.5173 59.0586H109.895C111.418 59.0586 112.652 57.8035 112.652 56.2552V49.2C112.652 47.6517 111.418 46.3965 109.895 46.3965Z" fill="white" stroke="#393938" stroke-width="0.7" stroke-miterlimit="10"/>
<path d="M77.3333 46.3965H51.9558C50.4328 46.3965 49.1982 47.6517 49.1982 49.2V56.2552C49.1982 57.8035 50.4328 59.0586 51.9558 59.0586H77.3333C78.8563 59.0586 80.0909 57.8035 80.0909 56.2552V49.2C80.0909 47.6517 78.8563 46.3965 77.3333 46.3965Z" fill="white" stroke="#393938" stroke-width="0.7" stroke-miterlimit="10"/>
<path d="M44.7718 46.3965H19.3943C17.8713 46.3965 16.6367 47.6517 16.6367 49.2V56.2552C16.6367 57.8035 17.8713 59.0586 19.3943 59.0586H44.7718C46.2948 59.0586 47.5293 57.8035 47.5293 56.2552V49.2C47.5293 47.6517 46.2948 46.3965 44.7718 46.3965Z" fill="white" stroke="#393938" stroke-width="0.7" stroke-miterlimit="10"/>
<path d="M93.6136 31.9138H68.2361C66.7131 31.9138 65.4785 33.1689 65.4785 34.7172V41.7724C65.4785 43.3207 66.7131 44.5759 68.2361 44.5759H93.6136C95.1366 44.5759 96.3711 43.3207 96.3711 41.7724V34.7172C96.3711 33.1689 95.1366 31.9138 93.6136 31.9138Z" fill="white" stroke="#393938" stroke-width="0.7" stroke-miterlimit="10"/>
<path d="M61.0531 31.9138H35.6755C34.1526 31.9138 32.918 33.1689 32.918 34.7172V41.7724C32.918 43.3207 34.1526 44.5759 35.6755 44.5759H61.0531C62.576 44.5759 63.8106 43.3207 63.8106 41.7724V34.7172C63.8106 33.1689 62.576 31.9138 61.0531 31.9138Z" fill="white" stroke="#393938" stroke-width="0.7" stroke-miterlimit="10"/>
<path d="M28.4915 31.9138H3.11399C1.59104 31.9138 0.356445 33.1689 0.356445 34.7172V41.7724C0.356445 43.3207 1.59104 44.5759 3.11399 44.5759H28.4915C30.0145 44.5759 31.2491 43.3207 31.2491 41.7724V34.7172C31.2491 33.1689 30.0145 31.9138 28.4915 31.9138Z" fill="white" stroke="#393938" stroke-width="0.7" stroke-miterlimit="10"/>
<path d="M109.895 17.431H84.5173C82.9944 17.431 81.7598 18.6862 81.7598 20.2345V27.2896C81.7598 28.838 82.9944 30.0931 84.5173 30.0931H109.895C111.418 30.0931 112.652 28.838 112.652 27.2896V20.2345C112.652 18.6862 111.418 17.431 109.895 17.431Z" fill="white" stroke="#393938" stroke-width="0.7" stroke-miterlimit="10"/>
<path d="M77.3333 17.431H51.9558C50.4328 17.431 49.1982 18.6862 49.1982 20.2345V27.2896C49.1982 28.838 50.4328 30.0931 51.9558 30.0931H77.3333C78.8563 30.0931 80.0909 28.838 80.0909 27.2896V20.2345C80.0909 18.6862 78.8563 17.431 77.3333 17.431Z" fill="white" stroke="#393938" stroke-width="0.7" stroke-miterlimit="10"/>
<path d="M44.7718 17.431H19.3943C17.8713 17.431 16.6367 18.6862 16.6367 20.2345V27.2896C16.6367 28.838 17.8713 30.0931 19.3943 30.0931H44.7718C46.2948 30.0931 47.5293 28.838 47.5293 27.2896V20.2345C47.5293 18.6862 46.2948 17.431 44.7718 17.431Z" fill="white" stroke="#393938" stroke-width="0.7" stroke-miterlimit="10"/>
</g>
<defs>
<clipPath id="clip0_402_8365">
<rect width="116" height="60" fill="white"/>
</clipPath>
</defs>
</svg>
