<svg width="60" height="80" viewBox="0 0 60 80" fill="none" xmlns="http://www.w3.org/2000/svg">
<g clip-path="url(#clip0_404_9375)">
<path d="M48.2639 71.4711C52.1256 63.7568 59.2708 48.3782 59.2708 39.9898C59.2708 32.0508 54.4842 26.7831 50.2757 22.1395C47.8477 19.4683 45.5353 16.9467 44.8416 14.5001C44.4023 13.0272 44.3098 10.98 46.8071 7.80942H46.6915C47.3852 7.80942 48.0789 7.18528 48.287 6.41136L49.4201 1.84269C49.6513 0.943938 49.212 0.194977 48.4489 0.194977H14.2027C13.4397 0.194977 13.0003 0.943938 13.2315 1.84269L14.3646 6.41136C14.5496 7.18528 15.2664 7.80942 15.9601 7.80942H15.8676C17.3476 9.68182 18.55 11.9537 17.81 14.5001C17.0932 16.9467 14.804 19.4683 12.376 22.1395C8.14434 26.7831 3.38086 32.0508 3.38086 39.9898C3.38086 48.3782 10.5261 63.7818 14.3877 71.4711L13.2547 76.0398C13.0234 76.9386 13.4628 77.6875 14.2259 77.6875H48.472C49.2351 77.6875 49.6745 76.9386 49.4432 76.0398L48.3102 71.4711H48.2639Z" fill="#ABF15C"/>
<path d="M45.9001 72.76C46.0619 71.4119 46.825 70.4133 47.4494 69.2649C48.0968 68.0416 48.6287 66.6934 49.2068 65.4202C50.4786 62.6241 51.7041 59.778 52.7909 56.8821C54.6408 52.0388 56.6988 46.6213 56.6988 41.2787C56.6988 33.3397 51.9122 28.072 47.7037 23.4284C45.507 21.0068 41.8534 17.7114 42.0384 13.9166C42.1078 12.5935 42.709 11.3702 43.3796 10.2717C43.6108 9.89721 43.8421 9.54769 44.1658 9.27307C44.397 9.09831 44.6745 8.97349 44.9058 8.77376C46.2469 7.75018 46.4319 4.72937 46.8481 3.10662C47.0794 2.20787 46.64 1.45891 45.877 1.45891H11.6308C10.8677 1.45891 10.4284 2.20787 10.6596 3.10662C11.1221 5.00399 11.2377 7.57543 12.7638 8.87363C12.9951 9.07335 13.2494 9.22314 13.4807 9.44783C13.7582 9.69748 13.9894 10.022 14.2206 10.3466C17.5504 15.4645 12.972 19.9583 9.82714 23.4534C5.59551 28.097 0.832031 33.3647 0.832031 41.3037C0.832031 46.6213 2.86691 52.0138 4.69369 56.8571C5.7805 59.7281 6.98293 62.5492 8.25473 65.3203C9.17968 67.3675 11.7002 70.7878 11.6077 73.0347C11.6077 73.3592 11.5383 73.6588 11.4689 73.9584C11.2839 74.932 9.71152 79.0263 11.6539 79.0263H41.0441C42.1078 79.0263 46.4782 79.6005 46.8481 78.2774C46.9869 77.7531 46.8481 77.1789 46.6632 76.6546C46.2701 75.4313 45.7845 74.1831 45.9001 72.8849C45.9001 72.8349 45.9001 72.81 45.9001 72.76Z" fill="white" stroke="#393938" stroke-width="0.7" stroke-miterlimit="10"/>
</g>
<defs>
<clipPath id="clip0_404_9375">
<rect width="60" height="80" fill="white"/>
</clipPath>
</defs>
</svg>
