<svg width="60" height="80" viewBox="0 0 60 80" fill="none" xmlns="http://www.w3.org/2000/svg">
<g clip-path="url(#clip0_402_8390)">
<path d="M23.6564 74.8564V75.3041C23.6564 75.7938 22.2186 76.5074 20.4447 76.7522C15.9383 77.3259 11.3675 77.3259 6.86111 76.7522C5.08717 76.5074 3.64941 75.7938 3.64941 75.3041V74.8564C3.97845 75.0173 4.38617 75.1712 4.83681 75.3041C5.26599 75.43 5.73809 75.521 6.23165 75.5909C7.24737 75.7238 8.2631 75.8218 9.26452 75.8917C13.2058 76.1926 17.1614 76.0876 21.0884 75.5909C22.1113 75.451 23.0269 75.1712 23.6635 74.8564H23.6564Z" fill="#ABF15C" stroke="#ABF15C" stroke-width="0.7" stroke-miterlimit="10"/>
<path d="M24.5933 36.2886V74.0169C24.5933 74.2617 24.2356 74.5765 23.6562 74.8564C23.0196 75.1712 22.104 75.451 21.0811 75.5909C17.1613 76.0806 13.1985 76.1856 9.25723 75.8918C8.24865 75.8218 7.24008 75.7239 6.22435 75.5909C5.7308 75.521 5.26585 75.423 4.82952 75.3041C4.37888 75.1712 3.97831 75.0173 3.64212 74.8564C3.05558 74.5765 2.70508 74.2687 2.70508 74.0169V36.2886C2.70508 35.9109 2.80522 35.3022 2.92682 34.9454L4.18575 31.2517L4.3002 30.9299C4.37173 30.9508 4.45041 30.9508 4.52194 30.9508C4.79375 30.9299 5.07272 30.9229 5.33738 30.9159C5.85955 30.8949 6.38172 30.8809 6.89674 30.8599C7.7551 30.8319 8.62061 30.8039 9.47897 30.7969C9.92961 30.776 10.3659 30.776 10.8166 30.769C11.0741 30.769 11.3387 30.762 11.5963 30.762C11.7465 30.9369 11.911 31.0978 12.0827 31.2097C12.3545 31.3916 12.612 31.5805 12.8838 31.7484C13.5061 32.1541 13.7922 32.1401 14.4002 31.7274C14.6363 31.5665 14.8795 31.4056 15.1298 31.2377C15.3015 31.1118 15.4732 30.9508 15.6234 30.762C18.0053 30.783 20.3873 30.8389 22.7478 30.9439H22.8122C22.8694 30.9439 22.9266 30.9439 22.9838 30.9229L23.0911 31.2447L24.3501 34.9384C24.4788 35.2952 24.5718 35.9039 24.5718 36.2816L24.5933 36.2886Z" fill="#ABF15C" stroke="#ABF15C" stroke-width="0.7" stroke-miterlimit="10"/>
<path d="M11.6176 30.755C11.3601 30.755 11.0955 30.7619 10.838 30.7619C10.3873 30.7689 9.95099 30.7689 9.50035 30.7899C8.64199 30.7969 7.77648 30.8249 6.91812 30.8529C6.39595 30.8739 5.87378 30.8879 5.35877 30.9089C5.08695 30.9159 4.80798 30.9298 4.54332 30.9438C4.47179 30.9438 4.39311 30.9438 4.32158 30.9228C3.84233 30.8669 3.46322 30.5731 3.43461 30.1743C3.39884 29.7336 3.84948 29.3488 4.42887 29.3348C5.27293 29.2998 6.12414 29.2648 6.97534 29.2439C7.03972 29.2369 7.1041 29.2369 7.17563 29.2369C8.37733 29.2019 9.59334 29.1669 10.795 29.1599C10.8523 29.4258 10.9596 29.7126 11.1098 30.0134C11.1813 30.1533 11.2743 30.2932 11.3601 30.4261C11.4388 30.5381 11.5318 30.657 11.6319 30.7619L11.6176 30.755Z" fill="#ABF15C" stroke="#ABF15C" stroke-width="0.7" stroke-miterlimit="10"/>
<path d="M23.8848 30.1813C23.8562 30.5661 23.4842 30.8739 23.005 30.9298C22.9477 30.9508 22.8905 30.9508 22.8333 30.9508H22.7689C20.4084 30.8459 18.0193 30.7829 15.6445 30.7689C15.7447 30.664 15.8234 30.5521 15.902 30.4331C16.0022 30.3002 16.088 30.1603 16.1595 30.0204C16.3098 29.7196 16.4314 29.4258 16.4671 29.1599C18.613 29.1949 20.7518 29.2579 22.8834 29.3418C23.4699 29.3628 23.9134 29.7476 23.8776 30.1813H23.8848Z" fill="#ABF15C" stroke="#ABF15C" stroke-width="0.7" stroke-miterlimit="10"/>
<path d="M15.0226 20.1843C14.1141 20.0864 13.2057 20.0864 12.3044 20.1843C10.9382 20.3592 9.76512 21.8073 9.77943 23.1086C9.9511 25.1513 10.2658 26.3826 10.6521 28.4114C10.695 28.6282 10.7308 28.8591 10.7808 29.1039C10.7808 29.1249 10.788 29.1389 10.788 29.1599C10.8452 29.4258 10.9525 29.7126 11.1027 30.0134C11.1743 30.1533 11.2673 30.2932 11.3531 30.4262C11.4318 30.5381 11.5248 30.657 11.6249 30.7619C11.7751 30.9368 11.9396 31.0977 12.1113 31.2097C12.3831 31.3916 12.6406 31.5805 12.9124 31.7484C13.5348 32.1541 13.8209 32.1401 14.4289 31.7274C14.6649 31.5665 14.9081 31.4056 15.1585 31.2377C15.3302 31.1117 15.5018 30.9508 15.652 30.7619C15.7522 30.657 15.8309 30.5451 15.9095 30.4262C16.0097 30.2932 16.0955 30.1533 16.1671 30.0134C16.3173 29.7126 16.4389 29.4188 16.4746 29.1529C16.4818 29.1459 16.4818 29.1249 16.4818 29.1179C16.5247 28.8661 16.5819 28.6352 16.6248 28.4044C17.0183 26.3756 17.3545 25.1443 17.5333 23.1086C17.569 21.8073 16.4031 20.3662 15.0297 20.1843H15.0226ZM16.5605 23.7242C16.5605 24.8995 15.5662 25.8509 14.3144 25.8509H12.9983C11.7608 25.8509 10.7522 24.8995 10.7522 23.7242V23.1855C10.7522 22.0172 11.7608 21.0728 12.9983 21.0728H14.3144C15.5591 21.0728 16.5605 22.0242 16.5605 23.1855V23.7242Z" fill="#ABF15C" stroke="#ABF15C" stroke-width="0.7" stroke-miterlimit="10"/>
<path d="M22.0558 75.556V76.0037C22.0558 76.4934 20.618 77.207 18.8441 77.4518C14.3377 78.0255 9.76691 78.0255 5.26053 77.4518C3.48658 77.207 2.04883 76.4934 2.04883 76.0037V75.556C2.37787 75.7169 2.78559 75.8708 3.23623 76.0037C3.66541 76.1296 4.1375 76.2206 4.63106 76.2905C5.64679 76.4234 6.66251 76.5214 7.66393 76.5913C11.6052 76.8922 15.5608 76.7872 19.4878 76.2905C20.5107 76.1506 21.4263 75.8708 22.0629 75.556H22.0558Z" fill="white" stroke="#393938" stroke-width="0.7" stroke-miterlimit="10"/>
<path d="M22.9858 36.9882V74.7165C22.9858 74.9613 22.6282 75.2761 22.0488 75.556C21.4122 75.8708 20.4966 76.1506 19.4737 76.2905C15.5539 76.7802 11.5911 76.8852 7.6498 76.5913C6.64123 76.5214 5.63266 76.4234 4.61693 76.2905C4.12338 76.2206 3.65843 76.1226 3.2221 76.0037C2.77146 75.8708 2.37089 75.7169 2.0347 75.556C1.44815 75.2761 1.09766 74.9683 1.09766 74.7165V36.9882C1.09766 36.6104 1.1978 36.0018 1.3194 35.645L2.57833 31.9513L2.69278 31.6294C2.76431 31.6504 2.84299 31.6504 2.91452 31.6504C3.18633 31.6294 3.4653 31.6225 3.72996 31.6155C4.25213 31.5945 4.7743 31.5805 5.28931 31.5595C6.14767 31.5315 7.01319 31.5035 7.87155 31.4965C8.32219 31.4755 8.75852 31.4755 9.20916 31.4685C9.46667 31.4685 9.73133 31.4615 9.98884 31.4615C10.139 31.6364 10.3036 31.7973 10.4752 31.9093C10.7471 32.0912 11.0046 32.2801 11.2764 32.448C11.8987 32.8537 12.1848 32.8397 12.7928 32.427C13.0289 32.2661 13.2721 32.1052 13.5224 31.9373C13.6941 31.8113 13.8658 31.6504 14.016 31.4615C16.3979 31.4825 18.7799 31.5385 21.1404 31.6434H21.2047C21.262 31.6434 21.3192 31.6434 21.3764 31.6225L21.4837 31.9443L22.7426 35.638C22.8714 35.9948 22.9644 36.6034 22.9644 36.9812L22.9858 36.9882Z" fill="white" stroke="#393938" stroke-width="0.7" stroke-miterlimit="10"/>
<path d="M10.0171 31.4546C9.75955 31.4546 9.49488 31.4616 9.23738 31.4616C8.78674 31.4686 8.3504 31.4686 7.89977 31.4895C7.04141 31.4965 6.17589 31.5245 5.31753 31.5525C4.79536 31.5735 4.27319 31.5875 3.75818 31.6085C3.48636 31.6155 3.2074 31.6295 2.94274 31.6435C2.87121 31.6435 2.79252 31.6435 2.72099 31.6225C2.24174 31.5665 1.86263 31.2727 1.83402 30.8739C1.79826 30.4332 2.2489 30.0484 2.82829 30.0344C3.67234 29.9994 4.52355 29.9645 5.37476 29.9435C5.43913 29.9365 5.50351 29.9365 5.57504 29.9365C6.77674 29.9015 7.99275 29.8665 9.19446 29.8595C9.25168 30.1254 9.35898 30.4122 9.50919 30.713C9.58072 30.8529 9.67371 30.9928 9.75955 31.1258C9.83823 31.2377 9.93122 31.3566 10.0314 31.4616L10.0171 31.4546Z" fill="white" stroke="#393938" stroke-width="0.7" stroke-miterlimit="10"/>
<path d="M22.2774 30.8809C22.2488 31.2657 21.8768 31.5735 21.3975 31.6295C21.3403 31.6504 21.2831 31.6504 21.2259 31.6504H21.1615C18.801 31.5455 16.4119 31.4825 14.0371 31.4686C14.1373 31.3636 14.2159 31.2517 14.2946 31.1328C14.3948 30.9998 14.4806 30.8599 14.5521 30.72C14.7023 30.4192 14.8239 30.1254 14.8597 29.8595C17.0056 29.8945 19.1444 29.9575 21.2759 30.0414C21.8625 30.0624 22.306 30.4472 22.2702 30.8809H22.2774Z" fill="white" stroke="#393938" stroke-width="0.7" stroke-miterlimit="10"/>
<path d="M13.422 20.8839C12.5136 20.786 11.6051 20.786 10.7038 20.8839C9.33763 21.0588 8.16453 22.507 8.17884 23.8082C8.35051 25.8509 8.66524 27.0822 9.05151 29.111C9.09442 29.3278 9.13019 29.5587 9.18026 29.8036C9.18026 29.8246 9.18741 29.8385 9.18741 29.8595C9.24464 30.1254 9.35193 30.4122 9.50215 30.713C9.57368 30.8529 9.66666 30.9928 9.7525 31.1258C9.83118 31.2377 9.92417 31.3566 10.0243 31.4616C10.1745 31.6365 10.339 31.7974 10.5107 31.9093C10.7825 32.0912 11.04 32.2801 11.3119 32.448C11.9342 32.8537 12.2203 32.8397 12.8283 32.427C13.0643 32.2661 13.3075 32.1052 13.5579 31.9373C13.7296 31.8114 13.9012 31.6504 14.0515 31.4616C14.1516 31.3566 14.2303 31.2447 14.309 31.1258C14.4091 30.9928 14.4949 30.8529 14.5665 30.713C14.7167 30.4122 14.8383 30.1184 14.874 29.8525C14.8812 29.8455 14.8812 29.8246 14.8812 29.8176C14.9241 29.5657 14.9813 29.3348 15.0243 29.104C15.4177 27.0752 15.7539 25.844 15.9327 23.8082C15.9685 22.507 14.8025 21.0658 13.4291 20.8839H13.422ZM14.9599 24.4238C14.9599 25.5991 13.9656 26.5505 12.7138 26.5505H11.3977C10.1602 26.5505 9.15165 25.5991 9.15165 24.4238V23.8851C9.15165 22.7168 10.1602 21.7724 11.3977 21.7724H12.7138C13.9585 21.7724 14.9599 22.7238 14.9599 23.8851V24.4238Z" fill="white" stroke="#393938" stroke-width="0.7" stroke-miterlimit="10"/>
</g>
<g clip-path="url(#clip1_402_8390)">
<path d="M59.0914 35.6548V74.6148C59.0914 76.0867 58.93 77.9032 56.5599 78.5713C56.3985 78.6131 56.2248 78.6548 56.0263 78.6861C53.1597 79.2185 46.8186 79.135 46.8186 79.135C46.8186 79.135 40.4775 79.2081 37.611 78.6861C37.4372 78.6548 37.2759 78.6131 37.1146 78.5713C34.7072 77.9241 34.5459 76.0867 34.5459 74.6043V35.6548C34.5459 31.1241 35.8861 27.3555 38.1322 25.1632C39.795 23.5346 42.0783 21.6869 42.4382 18.2941C42.5747 16.9682 43.3316 4.56621 43.3316 1.45526C43.3316 1.20472 43.5674 0.975048 43.8652 0.954169C44.0762 0.94373 44.312 0.922851 44.5601 0.912411C44.5974 0.912411 44.6222 0.912411 44.647 0.912411C45.2178 0.881093 45.8631 0.870654 46.3967 0.860214C46.5332 0.860214 46.6697 0.860214 46.7814 0.860214C47.3522 0.860214 48.196 0.881093 48.9158 0.912411C49.2012 0.922851 49.4866 0.94373 49.71 0.954169C50.0078 0.975048 50.2312 1.20472 50.2312 1.45526C50.2312 4.56621 51.0005 16.9682 51.137 18.2941C51.4969 21.6869 53.7802 23.5346 55.443 25.1632C57.6891 27.3555 59.0293 31.1241 59.0293 35.6548H59.0914Z" fill="#ABF15C" stroke="#ABF15C" stroke-width="0.7" stroke-miterlimit="10"/>
<path d="M55.5099 35.548V74.3883C55.5099 75.8558 55.3482 77.6667 52.9727 78.3327C52.811 78.3744 52.6369 78.416 52.4379 78.4472C49.5649 78.978 43.2095 78.8947 43.2095 78.8947C43.2095 78.8947 36.8541 78.9676 33.9812 78.4472C33.807 78.416 33.6454 78.3744 33.4837 78.3327C31.0709 77.6875 30.9092 75.8558 30.9092 74.3779V35.548C30.9092 31.0312 32.2524 27.2741 34.5035 25.0886C36.1701 23.465 38.4585 21.6229 38.8192 18.2405C38.956 16.9188 39.7147 4.55483 39.7147 1.45343C39.7147 1.20366 39.951 0.974695 40.2495 0.953881C40.4609 0.943473 40.6972 0.922658 40.946 0.912251C40.9833 0.912251 41.0082 0.912251 41.033 0.912251C41.6051 0.881029 42.2519 0.870622 42.7867 0.860214C42.9235 0.860214 43.0603 0.860214 43.1722 0.860214C43.7443 0.860214 44.5901 0.881029 45.3114 0.912251C45.5975 0.922658 45.8835 0.943473 46.1074 0.953881C46.4059 0.974695 46.6298 1.20366 46.6298 1.45343C46.6298 4.55483 47.4009 16.9188 47.5377 18.2405C47.8984 21.6229 50.1868 23.465 51.8534 25.0886C54.1045 27.2741 55.4477 31.0312 55.4477 35.548H55.5099Z" fill="white" stroke="#393938" stroke-width="0.7" stroke-miterlimit="10"/>
<path d="M53.2219 73.2228C53.2219 73.8992 53.1846 74.4404 53.0353 74.8671C52.7368 75.7413 51.1324 75.4603 50.1126 75.1065C48.4709 74.5341 45.9959 74.1698 43.2348 74.1698C40.4738 74.1698 37.9988 74.5341 36.3571 75.1065C35.3372 75.4603 33.7204 75.7517 33.4219 74.8775C33.2727 74.4508 33.2354 73.8992 33.2354 73.2228V35.3711C33.2354 31.3227 34.3298 27.8674 36.2203 25.9004C36.3695 25.7547 36.5188 25.5986 36.668 25.4425C38.2102 23.8814 40.1255 21.9456 40.4613 18.6048C40.5733 17.46 41.1454 6.00151 41.2698 1.62C41.9289 1.58878 42.7125 1.56796 43.2224 1.56796C43.7323 1.56796 44.5159 1.58878 45.175 1.62C45.2994 6.01191 45.8715 17.46 45.9835 18.6048C46.3193 21.9352 48.2346 23.8814 49.7768 25.4425C49.9385 25.5986 50.0753 25.7547 50.2245 25.9004C52.1274 27.8674 53.2094 31.3227 53.2094 35.3711V73.2123L53.2219 73.2228Z" fill="white" stroke="#393938" stroke-width="0.7" stroke-miterlimit="10"/>
</g>
<defs>
<clipPath id="clip0_402_8390">
<rect width="25" height="60" fill="white" transform="translate(0 19)"/>
</clipPath>
<clipPath id="clip1_402_8390">
<rect width="30" height="80" fill="white" transform="translate(30)"/>
</clipPath>
</defs>
</svg>
