<svg width="60" height="80" viewBox="0 0 60 80" fill="none" xmlns="http://www.w3.org/2000/svg">
<g clip-path="url(#clip0_402_8210)">
<path d="M14.6144 3.28013C12.2875 10.7167 10.5186 19.8185 9.3789 30.4726C9.3789 20.0188 7.56252 11.1174 3.03937 6.94836C2.06588 6.04695 1.4248 4.80752 1.4248 3.44288V3.28013H14.6144Z" fill="#ABF15C" stroke="#ABF15C" stroke-width="0.7" stroke-miterlimit="10"/>
<path d="M52.2831 2.9421C51.7845 2.91706 51.2859 2.9421 50.7872 3.0047C49.6119 3.15493 48.4722 3.518 47.3682 3.94366C45.6824 4.59468 46.2522 4.56964 46.6915 6.07199C47.2613 8.01252 47.8074 9.97809 48.2229 11.9687C48.0686 11.23 51.4046 9.7903 51.8794 9.74022C55.7971 9.33959 55.0967 16.2003 54.883 18.6291C54.3132 24.8513 53.5534 31.0485 52.8411 37.2582C52.1288 43.4679 52.9598 49.8529 53.0666 56.1252L53.957 53.3208C56.0346 46.7981 57.4473 40.0376 58.1715 33.1894C58.7651 27.543 59.5367 21.5086 59.5724 15.8372C59.5961 11.7183 59.5961 6.62285 55.714 4.01878C54.6931 3.3302 53.494 3.0047 52.2831 2.95462V2.9421Z" fill="#ABF15C" stroke="#ABF15C" stroke-width="0.7" stroke-miterlimit="10"/>
<path d="M53.0433 63.011H7.78809C7.78809 50.9797 8.33419 40.1002 9.37891 30.4726C10.5186 19.831 12.2875 10.7167 14.6025 3.28013H43.9733C44.7212 3.518 45.3742 3.98122 45.849 4.59468C46.2052 5.02035 46.4664 5.52113 46.6207 6.07199C47.1787 8.03756 47.701 10.0157 48.1759 12.0438C50.1822 20.3693 51.5594 29.421 52.331 40.4382C52.6634 45.2582 52.889 50.4538 52.9721 56.1252C53.0196 58.3662 53.0196 60.6448 53.0433 63.011Z" fill="#ABF15C" stroke="#ABF15C" stroke-width="0.7" stroke-miterlimit="10"/>
<path d="M53.0433 63.011V71.9374C53.0433 72.964 52.2123 73.7903 51.1913 73.7903H9.64008C8.61911 73.7903 7.78809 72.964 7.78809 71.9374V63.011H53.0433Z" fill="#ABF15C" stroke="#ABF15C" stroke-width="0.7" stroke-miterlimit="10"/>
<path d="M53.0433 74.892V77.3834C53.0433 77.9969 52.5566 78.4977 51.9511 78.4977H8.89216C8.27483 78.4977 7.78809 77.9969 7.78809 77.3834V74.892C7.78809 74.2911 8.27483 73.7903 8.89216 73.7903H51.9511C52.5566 73.7903 53.0433 74.2911 53.0433 74.892Z" fill="#ABF15C" stroke="#ABF15C" stroke-width="0.7" stroke-miterlimit="10"/>
<path d="M44.0207 3.28013H14.6143L15.0891 1.7903C15.3503 0.989047 16.0745 0.438187 16.8936 0.438187H41.765C42.5842 0.438187 43.3084 0.989047 43.5695 1.7903L44.0325 3.28013H44.0207Z" fill="#ABF15C" stroke="#ABF15C" stroke-width="0.7" stroke-miterlimit="10"/>
<path d="M59.4062 66.0782V67.7058L53.043 68.9202V66.0782H59.4062Z" fill="#ABF15C" stroke="#ABF15C" stroke-width="0.7" stroke-miterlimit="10"/>
<path d="M13.6046 4.34429C11.2777 11.7809 9.50883 20.8826 8.36913 31.5368C8.36913 21.0829 6.55275 12.1815 2.0296 8.01252C1.05612 7.11111 0.415039 5.87168 0.415039 4.50705V4.34429H13.6046Z" fill="white" stroke="#393938" stroke-width="0.7" stroke-miterlimit="10"/>
<path d="M51.286 4.00626C50.7874 3.98122 50.2888 4.00626 49.7902 4.06886C48.6149 4.21909 47.4752 4.58216 46.3711 5.00783C44.6853 5.65884 45.2552 5.6338 45.6944 7.13615C46.2643 9.07668 46.8104 11.0423 47.2259 13.0329C47.0715 12.2942 50.4075 10.8545 50.8824 10.8044C54.8001 10.4038 54.0996 17.2645 53.8859 19.6933C53.3161 25.9155 52.5563 32.1127 51.844 38.3224C51.1317 44.5321 51.9627 50.9171 52.0696 57.1894L52.9599 54.385C55.0375 47.8623 56.4502 41.1017 57.1744 34.2535C57.768 28.6072 58.5397 22.5728 58.5753 16.9014C58.599 12.7825 58.599 7.68701 54.717 5.08294C53.696 4.39437 52.4969 4.06886 51.286 4.01878V4.00626Z" fill="white" stroke="#393938" stroke-width="0.7" stroke-miterlimit="10"/>
<path d="M52.0336 64.0751H6.77832C6.77832 52.0438 7.32442 41.1643 8.36914 31.5368C9.50883 20.8952 11.2777 11.7809 13.5927 4.34429H42.9635C43.7114 4.58216 44.3644 5.04539 44.8393 5.65885C45.1954 6.08451 45.4566 6.58529 45.6109 7.13615C46.1689 9.10172 46.6913 11.0798 47.1661 13.108C49.1725 21.4335 50.5496 30.4851 51.3213 41.5023C51.6537 46.3224 51.8792 51.518 51.9623 57.1894C52.0098 59.4304 52.0098 61.7089 52.0336 64.0751Z" fill="white" stroke="#393938" stroke-width="0.7" stroke-miterlimit="10"/>
<path d="M52.0336 64.0751V73.0016C52.0336 74.0282 51.2025 74.8545 50.1816 74.8545H8.63032C7.60935 74.8545 6.77832 74.0282 6.77832 73.0016V64.0751H52.0336Z" fill="white" stroke="#393938" stroke-width="0.7" stroke-miterlimit="10"/>
<path d="M52.0336 75.9562V78.4476C52.0336 79.061 51.5468 79.5618 50.9414 79.5618H7.8824C7.26506 79.5618 6.77832 79.061 6.77832 78.4476V75.9562C6.77832 75.3552 7.26506 74.8545 7.8824 74.8545H50.9414C51.5468 74.8545 52.0336 75.3552 52.0336 75.9562Z" fill="white" stroke="#393938" stroke-width="0.7" stroke-miterlimit="10"/>
<path d="M43.0228 4.34429H13.6045L14.0794 2.85446C14.3405 2.05321 15.0647 1.50235 15.8839 1.50235H40.7553C41.5744 1.50235 42.2986 2.05321 42.5598 2.85446L43.0228 4.34429Z" fill="white" stroke="#393938" stroke-width="0.7" stroke-miterlimit="10"/>
<path d="M58.3965 67.1299V68.7699L52.0332 69.9843V67.1299H58.3965Z" fill="white" stroke="#393938" stroke-width="0.7" stroke-miterlimit="10"/>
</g>
<defs>
<clipPath id="clip0_402_8210">
<rect width="60" height="80" fill="white"/>
</clipPath>
</defs>
</svg>
