<svg width="30" height="80" viewBox="0 0 30 80" fill="none" xmlns="http://www.w3.org/2000/svg">
<g clip-path="url(#clip0_402_8251)">
<path d="M29.0914 35.6548V74.6148C29.0914 76.0867 28.93 77.9032 26.5599 78.5713C26.3985 78.6131 26.2248 78.6548 26.0263 78.6861C23.1597 79.2185 16.8186 79.135 16.8186 79.135C16.8186 79.135 10.4775 79.2081 7.61098 78.6861C7.43725 78.6548 7.27593 78.6131 7.11461 78.5713C4.70722 77.9241 4.5459 76.0867 4.5459 74.6043V35.6548C4.5459 31.1241 5.88609 27.3555 8.13217 25.1632C9.795 23.5346 12.0783 21.6869 12.4382 18.2941C12.5747 16.9682 13.3316 4.56621 13.3316 1.45526C13.3316 1.20472 13.5674 0.975048 13.8652 0.954169C14.0762 0.94373 14.312 0.922851 14.5601 0.912411C14.5974 0.912411 14.6222 0.912411 14.647 0.912411C15.2178 0.881093 15.8631 0.870654 16.3967 0.860214C16.5332 0.860214 16.6697 0.860214 16.7814 0.860214C17.3522 0.860214 18.196 0.881093 18.9158 0.912411C19.2012 0.922851 19.4866 0.94373 19.71 0.954169C20.0078 0.975048 20.2312 1.20472 20.2312 1.45526C20.2312 4.56621 21.0005 16.9682 21.137 18.2941C21.4969 21.6869 23.7802 23.5346 25.443 25.1632C27.6891 27.3555 29.0293 31.1241 29.0293 35.6548H29.0914Z" fill="#ABF15C" stroke="#ABF15C" stroke-width="0.7" stroke-miterlimit="10"/>
<path d="M25.5099 35.548V74.3883C25.5099 75.8558 25.3482 77.6667 22.9727 78.3327C22.811 78.3744 22.6369 78.416 22.4379 78.4472C19.5649 78.978 13.2095 78.8947 13.2095 78.8947C13.2095 78.8947 6.85415 78.9676 3.98116 78.4472C3.80704 78.416 3.64536 78.3744 3.48367 78.3327C1.07086 77.6875 0.90918 75.8558 0.90918 74.3779V35.548C0.90918 31.0312 2.25239 27.2741 4.50352 25.0886C6.1701 23.465 8.45854 21.6229 8.81922 18.2405C8.95603 16.9188 9.7147 4.55483 9.7147 1.45343C9.7147 1.20366 9.951 0.974695 10.2495 0.953881C10.4609 0.943473 10.6972 0.922658 10.946 0.912251C10.9833 0.912251 11.0082 0.912251 11.033 0.912251C11.6051 0.881029 12.2519 0.870622 12.7867 0.860214C12.9235 0.860214 13.0603 0.860214 13.1722 0.860214C13.7443 0.860214 14.5901 0.881029 15.3114 0.912251C15.5975 0.922658 15.8835 0.943473 16.1074 0.953881C16.4059 0.974695 16.6298 1.20366 16.6298 1.45343C16.6298 4.55483 17.4009 16.9188 17.5377 18.2405C17.8984 21.6229 20.1868 23.465 21.8534 25.0886C24.1045 27.2741 25.4477 31.0312 25.4477 35.548H25.5099Z" fill="white" stroke="#393938" stroke-width="0.7" stroke-miterlimit="10"/>
<path d="M23.2219 73.2228C23.2219 73.8992 23.1846 74.4404 23.0353 74.8671C22.7368 75.7413 21.1324 75.4603 20.1126 75.1065C18.4709 74.5341 15.9959 74.1698 13.2348 74.1698C10.4738 74.1698 7.99879 74.5341 6.35708 75.1065C5.33723 75.4603 3.7204 75.7517 3.42191 74.8775C3.27266 74.4508 3.23535 73.8992 3.23535 73.2228V35.3711C3.23535 31.3227 4.32982 27.8674 6.22027 25.9004C6.36952 25.7547 6.51876 25.5986 6.66801 25.4425C8.21022 23.8814 10.1255 21.9456 10.4613 18.6048C10.5733 17.46 11.1454 6.00151 11.2698 1.62C11.9289 1.58878 12.7125 1.56796 13.2224 1.56796C13.7323 1.56796 14.5159 1.58878 15.175 1.62C15.2994 6.01191 15.8715 17.46 15.9835 18.6048C16.3193 21.9352 18.2346 23.8814 19.7768 25.4425C19.9385 25.5986 20.0753 25.7547 20.2245 25.9004C22.1274 27.8674 23.2094 31.3227 23.2094 35.3711V73.2123L23.2219 73.2228Z" fill="white" stroke="#393938" stroke-width="0.7" stroke-miterlimit="10"/>
</g>
<defs>
<clipPath id="clip0_402_8251">
<rect width="30" height="80" fill="white"/>
</clipPath>
</defs>
</svg>
