<svg width="90" height="79" viewBox="0 0 90 79" fill="none" xmlns="http://www.w3.org/2000/svg">
<g clip-path="url(#clip0_804_12332)">
<path d="M89.2512 27.5673C88.2725 33.1067 85.5697 38.3828 81.2258 43.2298C65.9579 60.2921 48.4691 76.4663 48.2959 76.6244L47.3323 77.5125L46.3686 76.6244C46.188 76.4663 28.6991 60.2921 13.4388 43.2298C9.0873 38.3752 6.39208 33.1068 5.40584 27.5598C4.525 22.6149 5.09717 17.6776 7.06212 13.2897C8.6657 9.69964 11.1351 6.65898 14.1841 4.50643C17.331 2.27861 20.9598 1.10449 24.6789 1.10449C28.9928 1.10449 33.3443 2.70762 37.2666 5.74076C41.0384 8.66852 44.4187 12.8683 47.3323 18.2496C50.2383 12.8683 53.6186 8.661 57.3979 5.74076C61.3128 2.70762 65.6643 1.10449 69.9781 1.10449C73.6972 1.10449 77.326 2.27861 80.4729 4.50643C83.5295 6.65898 85.9913 9.69964 87.5949 13.2897C89.5599 17.6776 90.132 22.6149 89.2512 27.5673Z" fill="#ABF15C" stroke="#ABF15C" stroke-miterlimit="10"/>
<path d="M85.7405 27.8144C84.7618 33.3538 82.059 38.6298 77.715 43.4768C62.4472 60.5392 44.9584 76.7134 44.7852 76.8715L43.8215 77.7596L42.8579 76.8715C42.6772 76.7134 25.1884 60.5392 9.92805 43.4768C5.57655 38.6223 2.88134 33.3538 1.8951 27.8069C1.01426 22.862 1.58643 17.9247 3.55138 13.5368C5.15496 9.94671 7.62432 6.90605 10.6734 4.7535C13.8203 2.52568 17.4491 1.35156 21.1682 1.35156C25.482 1.35156 29.8335 2.95469 33.7559 5.98783C37.5277 8.9156 40.908 13.1153 43.8215 18.4967C46.7276 13.1153 50.1079 8.90807 53.8872 5.98783C57.802 2.95469 62.1535 1.35156 66.4674 1.35156C70.1865 1.35156 73.8153 2.52568 76.9622 4.7535C80.0188 6.90605 82.4806 9.94671 84.0842 13.5368C86.0491 17.9247 86.6213 22.862 85.7405 27.8144Z" fill="white" stroke="#393938" stroke-miterlimit="10"/>
</g>
<defs>
<clipPath id="clip0_804_12332">
<rect width="90" height="79" fill="white"/>
</clipPath>
</defs>
</svg>
