<svg width="50" height="80" viewBox="0 0 50 80" fill="none" xmlns="http://www.w3.org/2000/svg">
<path d="M1.724 39.8424C0.356236 37.1509 0.33651 30.6511 7.01751 23.8156C11.2063 19.5313 17.3678 17.7919 17.3678 17.7919L17.4664 16.0586V16.0464L15.8685 16.022L16.0724 10.5597C16.0724 10.401 16.1052 10.2484 16.1644 10.1081C16.2236 9.94937 16.3091 9.79679 16.4077 9.66863C16.4472 9.6198 16.4866 9.57098 16.5327 9.52826C16.8615 9.21089 17.3349 9.00949 17.8412 9.0278L18.6698 9.05832V9.04611L18.821 3.49228C18.821 3.3336 18.8539 3.17492 18.9131 3.02844C18.9525 2.91859 19.0052 2.80873 19.0709 2.70498C19.1695 2.5524 19.2945 2.41813 19.4392 2.30828C19.5838 2.19842 19.7548 2.10077 19.9389 2.03974C19.9389 2.03974 22.8586 0.867943 25.3245 0.983902C25.7388 1.00221 26.1465 1.04493 26.541 1.09986C28.7965 1.41112 30.5851 2.18011 30.5851 2.18011C31.2361 2.42424 31.6635 3.02234 31.657 3.68148L31.5978 9.2231H32.4263C33.3732 9.2231 34.136 9.94327 34.136 10.8282V16.2356L32.3014 16.2112C32.3014 16.2112 32.3014 16.2417 32.3014 16.2539V16.2661C32.3014 16.5346 32.3014 16.7788 32.3145 16.9924C32.3211 17.4684 32.3277 17.7919 32.3277 17.7919C32.3277 17.7919 42.1059 23.6692 43.9142 28.6981C45.716 33.7271 40.4619 38.0359 40.2975 41.5818C40.1331 45.1216 43.4145 45.8845 44.7362 50.8219C46.104 55.979 49.8456 70.7058 48.8263 75.2343C48.8066 75.3198 48.7869 75.4052 48.7606 75.4846C48.7408 75.5639 48.7145 75.6371 48.6882 75.7043C48.6685 75.7592 48.6488 75.8141 48.6291 75.863C48.5896 75.9423 48.5501 76.0155 48.5107 76.0827C48.0044 76.8944 46.3736 79.0122 46.3736 79.0122H5.53795C5.53795 79.0122 5.47219 78.9328 5.35383 78.7986C5.3341 78.7741 5.3078 78.7497 5.28807 78.7253C5.28149 78.7192 5.27492 78.7131 5.27492 78.707C5.23547 78.6643 5.18944 78.6094 5.13683 78.5544C5.13683 78.5483 5.13025 78.5422 5.12368 78.5361C5.0908 78.4934 5.05135 78.4507 5.01189 78.4019C4.45295 77.7488 3.55207 76.6747 2.83531 75.7104C2.73009 75.57 2.63145 75.4357 2.53939 75.3015C2.51966 75.2832 2.50652 75.2588 2.49336 75.2343H2.48679C2.13827 74.7339 1.86209 74.2945 1.75688 74.0015C1.3163 72.7687 4.14389 57.8283 6.52432 49.821C7.87236 45.2864 3.32191 42.9672 1.724 39.8424ZM9.16121 37.8589C9.47684 37.7735 9.79248 37.6331 10.1147 37.4561C10.2133 37.4073 10.3054 37.3584 10.3975 37.2974C10.5224 37.2242 10.6408 37.1448 10.7657 37.0594C10.7789 37.0533 10.7986 37.0411 10.8117 37.0289C10.8972 36.9678 10.9827 36.9068 11.0748 36.8397C11.1537 36.7786 11.226 36.7237 11.3049 36.6566C11.4167 36.5711 11.5285 36.4735 11.6403 36.3758C12.0874 35.9852 12.5412 35.5275 12.9883 35.0087C13.1001 34.8806 13.2185 34.7463 13.3237 34.612C13.6656 34.2031 14.001 33.7576 14.3298 33.2877C17.1113 29.3145 16.8943 24.0415 15.8291 23.2847C15.7436 23.2297 15.6647 23.1748 15.5792 23.1321C15.4937 23.0833 15.4016 23.0466 15.3096 23.0161C13.3434 22.3326 10.2528 24.5663 7.68823 27.5935C5.24204 30.4924 4.0584 35.5519 6.28102 37.3401C7.14244 38.0298 8.12223 38.1763 9.16121 37.8589Z" fill="white" stroke="#393938" stroke-width="0.7" stroke-miterlimit="10"/>
</svg>
