<svg width="93" height="82" viewBox="0 0 93 82" fill="none" xmlns="http://www.w3.org/2000/svg">
<path d="M34.5676 0.641113L1.95703 22.5357L32.5537 66.1308L65.1642 44.2362L34.5676 0.641113Z" fill="#ABF15C" stroke="#ABF15C" stroke-width="0.7" stroke-miterlimit="10"/>
<path d="M34.7259 3.20758L2.08203 25.1245L31.6484 67.2516L64.2922 45.3346L34.7259 3.20758Z" fill="white" stroke="#393938" stroke-width="0.7" stroke-miterlimit="10"/>
<path d="M33.9438 6.81664L5.37598 25.9969L9.93886 32.4983L38.5067 13.318L33.9438 6.81664Z" fill="white" stroke="#393938" stroke-width="0.5" stroke-miterlimit="10"/>
<path d="M39.6498 14.9471L11.082 34.1274L11.5782 34.8344L40.146 15.6541L39.6498 14.9471Z" fill="white" stroke="#393938" stroke-width="0.5" stroke-miterlimit="10"/>
<path d="M51.6899 32.1016L23.1221 51.2819L23.6182 51.9888L52.186 32.8085L51.6899 32.1016Z" fill="white" stroke="#393938" stroke-width="0.5" stroke-miterlimit="10"/>
<path d="M42.7149 19.3136L25.9727 30.5543L26.4688 31.2613L43.2111 20.0206L42.7149 19.3136Z" fill="white" stroke="#393938" stroke-width="0.5" stroke-miterlimit="10"/>
<path d="M45.5606 23.3683L28.8184 34.609L29.3145 35.3159L46.0568 24.0753L45.5606 23.3683Z" fill="white" stroke="#393938" stroke-width="0.5" stroke-miterlimit="10"/>
<path d="M48.4102 27.4297L31.668 38.6703L32.1641 39.3773L48.9064 28.1366L48.4102 27.4297Z" fill="white" stroke="#393938" stroke-width="0.5" stroke-miterlimit="10"/>
<path d="M23.7865 29.0239L12.7168 36.456L20.3394 47.317L31.4091 39.8849L23.7865 29.0239Z" fill="white" stroke="#393938" stroke-width="0.5" stroke-miterlimit="10"/>
<path d="M42.9288 44.4074L26.1865 55.6481L26.6827 56.3551L43.425 45.1144L42.9288 44.4074Z" fill="white" stroke="#393938" stroke-width="0.5" stroke-miterlimit="10"/>
<path d="M45.7794 48.4688L29.0371 59.7095L29.5333 60.4165L46.2755 49.1758L45.7794 48.4688Z" fill="white" stroke="#393938" stroke-width="0.5" stroke-miterlimit="10"/>
<path d="M48.63 52.5307L31.8877 63.7714L32.3839 64.4784L49.1261 53.2377L48.63 52.5307Z" fill="white" stroke="#393938" stroke-width="0.5" stroke-miterlimit="10"/>
<path d="M53.3294 34.4373L42.2598 41.8694L49.8824 52.7304L60.9521 45.2983L53.3294 34.4373Z" fill="white" stroke="#393938" stroke-width="0.5" stroke-miterlimit="10"/>
<g clip-path="url(#clip0_404_9412)">
<path d="M90.5284 25.893C76.4864 24.6067 62.3877 24.6172 48.3457 25.9558C48.9246 25.2133 49.7306 24.3766 50.7409 23.7282C52.2507 22.7661 55.9967 20.8523 59.9698 19.0222C63.7499 17.2652 65.3845 14.588 65.271 12.4441C65.2596 12.35 65.2483 12.2454 65.2369 12.1199C65.2369 11.9735 65.2029 11.7957 65.1688 11.6075C65.1688 11.4924 65.1348 11.367 65.1121 11.2415H73.8188C73.7961 11.367 73.7733 11.4924 73.762 11.6075C73.7279 11.7957 73.7052 11.9735 73.6939 12.1199C73.6825 12.2454 73.6712 12.35 73.6598 12.4441C73.5463 14.588 75.181 17.2652 78.961 19.0222C82.9228 20.8523 86.6802 22.7661 88.1899 23.7282C89.1775 24.3557 89.9608 25.1714 90.5284 25.893Z" fill="#ABF15C" stroke="#ABF15C" stroke-width="0.7" stroke-miterlimit="10"/>
<path d="M90.4141 31.9063V35.8907C76.4516 35.326 62.4891 35.326 48.5266 35.8907V33.4017L48.5039 31.8958C62.5913 30.965 76.3154 30.965 90.4141 31.9063Z" fill="#ABF15C" stroke="#ABF15C" stroke-width="0.7" stroke-miterlimit="10"/>
<path d="M48.5156 61.1361V41.653C62.4895 41.0987 76.452 41.0987 90.4145 41.653V61.1361C76.4633 62.0669 62.4668 62.0669 48.5156 61.1361Z" fill="#ABF15C" stroke="#ABF15C" stroke-width="0.7" stroke-miterlimit="10"/>
<path d="M91.6744 76.3212C91.2658 77.7957 88.5754 79.9292 86.5548 80.5357C83.5126 81.4456 69.4593 81.2469 69.4593 81.2469C69.4593 81.2469 55.4173 81.4456 52.3751 80.5357C50.3545 79.9292 47.6755 77.7957 47.2555 76.3212C47.0171 75.4845 46.8468 71.8556 47.2555 71.134C47.4371 70.8098 47.6982 70.5379 47.9479 70.3497C48.3225 70.0464 48.5155 69.5967 48.5155 69.1261V66.8986C62.4667 67.8398 76.4632 67.8398 90.4144 66.8986V69.2934C90.4144 69.6908 90.6074 70.0569 90.9366 70.3079C91.1977 70.5066 91.4928 70.7889 91.6744 71.134C92.0831 71.8556 91.9128 75.4845 91.6744 76.3212Z" fill="#ABF15C" stroke="#ABF15C" stroke-width="0.7" stroke-miterlimit="10"/>
<path d="M91.6748 27.5976V30.1598L90.4147 31.9063C76.316 30.9651 62.5919 30.9651 48.5045 31.8958L47.2559 30.1598V27.5976C47.2559 27.5976 47.2559 27.5871 47.2672 27.5662C47.3467 27.4094 47.7213 26.7505 48.3456 25.9557C62.3876 24.6171 76.4863 24.6066 90.5283 25.893C91.198 26.7087 91.5726 27.4094 91.6634 27.5662C91.6748 27.5871 91.6748 27.5976 91.6748 27.5976Z" fill="#ABF15C" stroke="#ABF15C" stroke-width="0.7" stroke-linecap="round" stroke-linejoin="round"/>
<path d="M91.6748 37.5431V40.1053C91.2548 40.6177 90.8348 41.1406 90.4147 41.6531C76.4522 41.0988 62.4897 41.0988 48.5272 41.6531H48.5159C48.0959 41.1406 47.6759 40.6177 47.2559 40.1053V37.5431C47.6759 36.9888 48.0959 36.445 48.5159 35.8907H48.5272C62.4897 35.326 76.4522 35.326 90.4147 35.8907C90.8348 36.445 91.2548 36.9888 91.6748 37.5431Z" fill="#ABF15C" stroke="#ABF15C" stroke-width="0.7" stroke-linecap="round" stroke-linejoin="round"/>
<path d="M91.6748 62.6526V65.2148C91.2548 65.7796 90.8348 66.3443 90.4147 66.8986C76.4636 67.8398 62.467 67.8398 48.5159 66.8986C48.0959 66.3443 47.6759 65.7796 47.2559 65.2148V62.6526C47.6759 62.1507 48.0959 61.6382 48.5159 61.1362C62.467 62.067 76.4636 62.067 90.4147 61.1362C90.8348 61.6382 91.2548 62.1507 91.6748 62.6526Z" fill="#ABF15C" stroke="#ABF15C" stroke-width="0.7" stroke-linecap="round" stroke-linejoin="round"/>
<path d="M74.8063 11.2414H64.1244C63.6703 8.53276 62.8871 3.9208 63.2163 3.61752C63.3525 3.49203 63.8293 3.37699 64.499 3.27241C65.3617 3.11554 66.5309 3.0005 67.5866 2.91684C68.3131 2.86455 68.9942 2.83318 69.4597 2.83318C71.1511 2.83318 75.2944 3.23058 75.7144 3.61752C76.0436 3.9208 75.2603 8.53276 74.8063 11.2414Z" fill="#ABF15C" stroke="#ABF15C" stroke-width="0.7" stroke-miterlimit="10"/>
<path d="M86.92 26.2591C72.878 24.9727 58.7793 24.9832 44.7373 26.3218C45.3162 25.5793 46.1222 24.7427 47.1325 24.0943C48.6423 23.1321 52.3883 21.2183 56.3614 19.3882C60.1415 17.6313 61.7761 14.954 61.6626 12.8101C61.6512 12.716 61.6399 12.6114 61.6285 12.4859C61.6285 12.3395 61.5945 12.1618 61.5604 11.9735C61.5604 11.8585 61.5264 11.733 61.5037 11.6075H70.2104C70.1877 11.733 70.165 11.8585 70.1536 11.9735C70.1195 12.1618 70.0968 12.3395 70.0855 12.4859C70.0741 12.6114 70.0628 12.716 70.0514 12.8101C69.9379 14.954 71.5726 17.6313 75.3526 19.3882C79.3144 21.2183 83.0718 23.1321 84.5815 24.0943C85.5691 24.7218 86.3524 25.5375 86.92 26.2591Z" fill="white" stroke="#393938" stroke-width="0.7" stroke-miterlimit="10"/>
<path d="M86.8057 32.2723V36.2568C72.8432 35.692 58.8807 35.692 44.9182 36.2568V33.7678L44.8955 32.2618C58.9829 31.3311 72.707 31.3311 86.8057 32.2723Z" fill="white" stroke="#393938" stroke-width="0.7" stroke-miterlimit="10"/>
<path d="M44.9072 61.5022V42.019C58.8811 41.4647 72.8436 41.4647 86.8061 42.019V61.5022C72.8549 62.4329 58.8584 62.4329 44.9072 61.5022Z" fill="white" stroke="#393938" stroke-width="0.7" stroke-miterlimit="10"/>
<path d="M88.066 76.6872C87.6574 78.1618 84.967 80.2952 82.9464 80.9018C79.9042 81.8116 65.8509 81.6129 65.8509 81.6129C65.8509 81.6129 51.8089 81.8116 48.7667 80.9018C46.7461 80.2952 44.0671 78.1618 43.6471 76.6872C43.4087 75.8506 43.2384 72.2217 43.6471 71.5001C43.8287 71.1759 44.0898 70.904 44.3395 70.7157C44.7142 70.4124 44.9071 69.9627 44.9071 69.4921V67.2646C58.8583 68.2058 72.8548 68.2058 86.806 67.2646V69.6595C86.806 70.0569 86.999 70.4229 87.3282 70.6739C87.5893 70.8726 87.8844 71.1549 88.066 71.5001C88.4747 72.2217 88.3044 75.8506 88.066 76.6872Z" fill="white" stroke="#393938" stroke-width="0.7" stroke-miterlimit="10"/>
<path d="M88.0664 27.9636V30.5258L86.8064 32.2723C72.7076 31.3311 58.9835 31.3311 44.8961 32.2619L43.6475 30.5258V27.9636C43.6475 27.9636 43.6475 27.9532 43.6588 27.9323C43.7383 27.7754 44.1129 27.1165 44.7372 26.3217C58.7792 24.9831 72.8779 24.9727 86.9199 26.259C87.5896 27.0747 87.9642 27.7754 88.055 27.9323C88.0664 27.9532 88.0664 27.9636 88.0664 27.9636Z" fill="white" stroke="#393938" stroke-width="0.7" stroke-linecap="round" stroke-linejoin="round"/>
<path d="M88.0664 37.9091V40.4713C87.6464 40.9838 87.2264 41.5067 86.8064 42.0191C72.8438 41.4648 58.8813 41.4648 44.9188 42.0191H44.9075C44.4875 41.5067 44.0675 40.9838 43.6475 40.4713V37.9091C44.0675 37.3549 44.4875 36.811 44.9075 36.2568H44.9188C58.8813 35.692 72.8438 35.692 86.8064 36.2568C87.2264 36.811 87.6464 37.3549 88.0664 37.9091Z" fill="white" stroke="#393938" stroke-width="0.7" stroke-linecap="round" stroke-linejoin="round"/>
<path d="M88.0664 63.0187V65.5809C87.6464 66.1456 87.2264 66.7103 86.8064 67.2646C72.8552 68.2058 58.8586 68.2058 44.9075 67.2646C44.4875 66.7103 44.0675 66.1456 43.6475 65.5809V63.0187C44.0675 62.5167 44.4875 62.0042 44.9075 61.5023C58.8586 62.433 72.8552 62.433 86.8064 61.5023C87.2264 62.0042 87.6464 62.5167 88.0664 63.0187Z" fill="white" stroke="#393938" stroke-width="0.7" stroke-linecap="round" stroke-linejoin="round"/>
<path d="M71.1979 11.6074H60.516C60.0619 8.89879 59.2787 4.28683 59.6079 3.98355C59.7441 3.85805 60.2209 3.74302 60.8906 3.63844C61.7533 3.48157 62.9225 3.36653 63.9782 3.28287C64.7047 3.23058 65.3858 3.1992 65.8513 3.1992C67.5427 3.1992 71.686 3.59661 72.106 3.98355C72.4352 4.28683 71.6519 8.89879 71.1979 11.6074Z" fill="white" stroke="#393938" stroke-width="0.7" stroke-miterlimit="10"/>
</g>
<defs>
<clipPath id="clip0_404_9412">
<rect width="50" height="80" fill="white" transform="translate(43 1.99985)"/>
</clipPath>
</defs>
</svg>
