<svg width="189" height="62" viewBox="0 0 189 62" fill="none" xmlns="http://www.w3.org/2000/svg">
<path d="M23.814 22.3977C23.814 23.4052 21.924 25.4202 18.0495 28.3652C17.8605 29.1402 17.766 29.8377 17.766 30.3802C17.766 31.8527 18.6165 34.1002 20.223 37.2777C21.0735 38.8277 21.4515 40.2227 21.4515 41.2302C21.4515 43.4777 20.1285 45.4152 17.4825 47.1202C14.8365 48.8252 11.6235 49.6002 8.03253 49.6002C5.95353 49.6002 4.25253 49.1352 3.02403 48.1277C1.79553 47.1977 1.13403 45.8802 1.13403 44.2527C1.13403 42.3927 1.98453 40.5327 3.59103 38.7502C5.19753 36.9677 6.89853 36.1152 8.69403 36.1152C8.97753 36.1152 9.26103 36.1927 9.54453 36.2702L13.23 32.5502C14.364 31.4652 15.7815 29.9927 17.6715 28.0552C18.144 26.2727 18.9945 24.8002 20.034 23.5602C21.0735 22.3202 22.113 21.7002 23.1525 21.7002C23.625 21.7777 23.814 21.9327 23.814 22.3977ZM17.4825 37.2002C17.4825 36.4252 17.4825 35.7277 17.388 34.9527C17.2935 34.1777 17.2935 33.1702 17.2935 31.7752C17.2935 30.6127 17.388 29.6827 17.4825 28.9852C15.7815 30.7677 13.3245 33.2477 10.017 36.5027C10.584 36.8902 10.8675 37.3552 10.8675 37.9752C10.8675 39.4477 9.35553 40.4552 6.42603 40.9977C5.19753 41.2302 4.15803 41.7727 3.30753 42.6252C2.45703 43.4777 1.98453 44.3302 1.98453 45.2602C1.98453 46.2677 2.45703 47.1202 3.30753 47.7402C4.15803 48.4377 5.29203 48.7477 6.61503 48.7477C9.16653 48.7477 11.6235 47.5077 13.8915 45.1052C16.3485 42.6252 17.4825 40.0677 17.4825 37.2002Z" fill="#009900"/>
<path d="M49.7071 37.0452C49.7071 37.1227 49.4236 37.4327 48.8566 38.0527L46.8721 40.0677C40.6351 46.4227 35.1541 49.6002 30.7126 49.6002C28.5391 49.6002 26.7436 48.9802 25.3261 47.7402C23.9086 46.5002 23.1526 44.8727 23.1526 43.0127C23.1526 38.5177 27.0271 34.5652 34.6816 31.0777C38.7451 29.2952 41.9581 28.3652 44.5096 28.3652C45.6436 28.3652 46.5886 28.5977 47.3446 29.1402C48.1006 29.6827 48.4786 30.3027 48.4786 31.0777C48.4786 32.8602 47.0611 34.4102 44.1316 35.6502C41.2966 36.8902 36.4771 38.1302 29.7676 39.2152C27.6886 41.7727 26.6491 43.9427 26.6491 45.6477C26.6491 47.8177 28.0666 48.9027 30.9016 48.9027C35.7211 48.9027 41.6746 45.0277 48.6676 37.2777C49.0456 36.8902 49.3291 36.6577 49.6126 36.6577C49.7071 36.8127 49.7071 36.8902 49.7071 37.0452ZM45.9271 30.0702C45.9271 29.2952 45.3601 28.8302 44.3206 28.8302C42.7141 28.8302 40.5406 29.7602 37.8946 31.6202C35.2486 33.4802 32.6971 35.8827 30.1456 38.7502C34.5871 37.8202 38.2726 36.5027 41.2966 34.7977C44.3206 33.1702 45.9271 31.5427 45.9271 30.0702Z" fill="#009900"/>
<path d="M74.0881 10.3848C73.8046 10.7723 73.4266 11.2373 72.9541 11.9348C72.1981 13.0198 70.9696 14.5698 69.3631 16.6623C68.6071 17.7473 67.3786 19.3748 65.8666 21.5448L58.0231 32.0073C55.3771 35.4948 53.2036 38.6723 51.3136 41.4623C49.2346 44.6398 47.6281 47.0423 46.3996 48.8248L45.8326 49.5998C44.9821 49.4448 44.2261 49.3673 43.3756 49.3673C42.7141 49.3673 41.6746 49.4448 40.3516 49.5998C41.0131 48.5923 41.8636 47.5073 42.7141 46.2673L48.0061 38.6723C48.7621 37.5098 49.9906 35.8048 51.5971 33.5573L68.4181 10.4623C69.6466 10.6948 70.5916 10.7723 71.2531 10.7723C71.7256 10.6948 72.6706 10.5398 74.0881 10.3848ZM78.0571 36.9673C78.0571 37.0448 77.8681 37.2773 77.5846 37.5873L75.6001 39.8348C69.8356 46.3448 65.4886 49.5998 62.5591 49.5998C61.2361 49.5998 60.1021 49.2123 59.0626 48.5148C58.0231 47.8173 57.5506 46.9648 57.5506 46.0348C57.5506 45.2598 58.4011 43.4773 60.1021 40.6873V40.5323C60.6691 39.6023 60.9526 38.9048 60.9526 38.4398C60.9526 37.8973 60.4801 37.3548 59.4406 36.8898C58.3066 37.2773 57.3616 37.5098 56.5111 37.5098C55.4716 37.5098 54.9046 37.2773 54.9046 36.7348C54.9046 36.3473 55.3771 36.1148 56.4166 36.1148C57.3616 36.1148 58.3066 36.2698 59.1571 36.5023C60.6691 35.9598 63.1261 34.0998 66.5281 30.9223C68.3236 29.2173 70.2136 28.3648 72.1036 28.3648C74.4661 28.3648 75.6001 29.2948 75.6001 31.0773C75.6001 32.3173 75.0331 33.4798 73.8046 34.6423C72.6706 35.8048 71.4421 36.4248 70.3081 36.4248C68.9851 36.4248 68.3236 35.9598 68.3236 34.9523C68.3236 34.0223 69.2686 33.0923 71.3476 32.0848C72.1981 31.6973 72.5761 31.0773 72.5761 30.3023C72.5761 29.6823 72.1036 29.3723 71.1586 29.3723C69.8356 29.3723 68.2291 30.3023 66.2446 32.2398C63.6931 34.6423 61.6141 36.1148 60.1021 36.6573C63.3151 37.8973 64.8271 39.2923 64.8271 40.8423C64.8271 41.6948 64.0711 43.3998 62.5591 45.9573C61.8976 47.0423 61.6141 47.7398 61.6141 48.1273C61.6141 48.7473 62.0866 49.1348 63.1261 49.1348C65.9611 49.1348 70.6861 45.1823 77.2066 37.1998C77.3956 36.9673 77.5846 36.8123 77.7736 36.8123C77.9626 36.7348 78.0571 36.8123 78.0571 36.9673Z" fill="#009900"/>
<path d="M105.084 36.9674C105.084 37.3549 104.139 38.2849 102.344 39.7574C99.6976 41.9274 97.1461 43.0899 94.8781 43.0899C93.9331 43.0899 93.0826 42.9349 92.3266 42.6249C88.2631 47.2749 84.4831 49.6774 80.9866 49.6774C79.1911 49.6774 77.5846 49.0574 76.2616 47.8174C74.9386 46.5774 74.2771 45.1049 74.2771 43.3999C74.2771 39.5249 77.3956 35.8049 83.5381 32.2399C87.8851 29.6824 91.4761 28.4424 94.2166 28.4424C96.8626 28.4424 98.1856 29.6049 98.1856 31.9299C98.1856 34.7974 96.2956 38.2849 92.6101 42.3149C93.1771 42.6249 93.9331 42.7799 94.6891 42.7799C96.1066 42.7799 97.7131 42.2374 99.5086 41.2299C101.304 40.1449 102.816 38.9049 104.045 37.4324C104.423 37.0449 104.612 36.8899 104.801 36.8899C105.084 36.8124 105.084 36.8899 105.084 36.9674ZM97.6186 31.9299C97.6186 29.9149 96.4846 28.9074 94.3111 28.9074C91.5706 28.9074 88.1686 31.0774 84.1051 35.4174C80.1361 39.7574 78.0571 43.4774 78.0571 46.4224C78.0571 48.1274 79.0966 48.9799 81.0811 48.9799C84.3886 48.9799 87.9796 46.7324 91.8541 42.3149C91.0036 41.5399 90.5311 40.6874 90.5311 39.8349C90.5311 38.5949 91.0981 37.3549 92.3266 36.0374C93.5551 34.7199 94.6891 34.0999 95.8231 34.0999C96.2956 34.0999 96.6736 34.3324 96.8626 34.8749C97.4296 33.9449 97.6186 32.9374 97.6186 31.9299Z" fill="#009900"/>
<path d="M128.331 37.0449C128.331 37.1224 128.048 37.4324 127.481 38.0524L125.496 40.0674C119.165 46.4999 113.778 49.6774 109.242 49.6774C107.069 49.6774 105.273 49.0574 103.856 47.8174C102.438 46.5774 101.682 44.9499 101.682 43.0899C101.682 38.5949 105.557 34.6424 113.211 31.1549C117.275 29.3724 120.488 28.4424 123.039 28.4424C124.173 28.4424 125.118 28.6749 125.874 29.2174C126.63 29.7599 127.008 30.3799 127.008 31.1549C127.008 32.9374 125.591 34.4874 122.661 35.7274C119.826 36.9674 115.007 38.2074 108.297 39.2924C106.218 41.8499 105.179 44.0199 105.179 45.7249C105.179 47.8949 106.596 48.9799 109.431 48.9799C114.251 48.9799 120.204 45.1049 127.197 37.3549C127.575 36.9674 127.859 36.7349 128.142 36.7349C128.237 36.8124 128.331 36.8899 128.331 37.0449ZM124.457 30.0699C124.457 29.2949 123.89 28.8299 122.85 28.8299C121.244 28.8299 119.07 29.7599 116.424 31.6199C113.778 33.4799 111.227 35.8824 108.675 38.7499C113.117 37.8199 116.802 36.5024 119.826 34.7974C122.85 33.1699 124.457 31.5424 124.457 30.0699Z" fill="#66CC00"/>
<path d="M152.618 10.3848C152.334 10.7723 151.956 11.2373 151.484 11.9348C150.728 13.0198 149.499 14.5698 147.893 16.6623C147.137 17.7473 145.908 19.3748 144.396 21.5448L136.553 32.0073C133.907 35.4948 131.733 38.6723 129.843 41.4623C127.764 44.6398 126.158 47.0423 124.929 48.8248L124.362 49.5998C123.512 49.4448 122.756 49.3673 121.905 49.3673C121.244 49.3673 120.204 49.4448 118.881 49.5998C119.543 48.5923 120.393 47.5073 121.244 46.2673L126.536 38.6723C127.292 37.5098 128.52 35.8048 130.127 33.5573L146.948 10.4623C148.176 10.6948 149.121 10.7723 149.783 10.7723C150.444 10.7723 151.295 10.5398 152.618 10.3848ZM156.587 36.9673C156.587 37.0448 156.398 37.2773 156.114 37.5873L154.13 39.8348C148.365 46.3448 144.018 49.5998 141.089 49.5998C139.766 49.5998 138.632 49.2123 137.592 48.5148C136.553 47.8173 136.08 46.9648 136.08 46.0348C136.08 45.2598 136.931 43.4773 138.632 40.6873V40.5323C139.199 39.6023 139.482 38.9048 139.482 38.4398C139.482 37.8973 139.01 37.3548 137.97 36.8898C136.836 37.2773 135.891 37.5098 135.041 37.5098C134.001 37.5098 133.434 37.2773 133.434 36.7348C133.434 36.3473 133.907 36.1148 134.946 36.1148C135.891 36.1148 136.836 36.2698 137.687 36.5023C139.199 35.9598 141.656 34.0998 145.058 30.9223C146.853 29.2173 148.743 28.3648 150.633 28.3648C152.996 28.3648 154.13 29.2948 154.13 31.0773C154.13 32.3173 153.563 33.4798 152.334 34.6423C151.2 35.8048 149.972 36.4248 148.838 36.4248C147.515 36.4248 146.853 35.9598 146.853 34.9523C146.853 34.0223 147.893 33.0923 149.877 32.0848C150.728 31.6973 151.106 31.0773 151.106 30.3023C151.106 29.6823 150.633 29.3723 149.688 29.3723C148.365 29.3723 146.759 30.3023 144.774 32.2398C142.223 34.6423 140.144 36.1148 138.632 36.6573C141.845 37.8973 143.357 39.2923 143.357 40.8423C143.357 41.6948 142.601 43.3998 141.089 45.9573C140.427 47.0423 140.144 47.7398 140.144 48.1273C140.144 48.7473 140.616 49.1348 141.656 49.1348C144.491 49.1348 149.216 45.1823 155.736 37.1998C155.925 36.9673 156.114 36.8123 156.303 36.8123C156.492 36.7348 156.587 36.8123 156.587 36.9673Z" fill="#66CC00"/>
<path d="M183.614 36.9674C183.614 37.3549 182.669 38.2849 180.873 39.7574C178.227 41.9274 175.676 43.0899 173.408 43.0899C172.463 43.0899 171.612 42.9349 170.856 42.6249C166.793 47.2749 163.013 49.6774 159.516 49.6774C157.721 49.6774 156.114 49.0574 154.791 47.8174C153.468 46.5774 152.807 45.1049 152.807 43.3999C152.807 39.5249 155.925 35.8049 162.068 32.2399C166.415 29.6824 170.006 28.4424 172.746 28.4424C175.392 28.4424 176.715 29.6049 176.715 31.9299C176.715 34.7974 174.825 38.2849 171.14 42.3149C171.707 42.6249 172.463 42.7799 173.219 42.7799C174.636 42.7799 176.243 42.2374 178.038 41.2299C179.834 40.1449 181.346 38.9049 182.574 37.4324C182.952 37.0449 183.141 36.8899 183.33 36.8899C183.614 36.8124 183.614 36.8899 183.614 36.9674ZM176.148 31.9299C176.148 29.9149 175.014 28.9074 172.841 28.9074C170.1 28.9074 166.698 31.0774 162.635 35.4174C158.666 39.7574 156.587 43.4774 156.587 46.4224C156.587 48.1274 157.626 48.9799 159.611 48.9799C162.918 48.9799 166.509 46.7324 170.384 42.3149C169.533 41.5399 169.061 40.6874 169.061 39.8349C169.061 38.5949 169.628 37.3549 170.856 36.0374C172.085 34.7199 173.219 34.0999 174.353 34.0999C174.825 34.0999 175.203 34.3324 175.392 34.8749C175.959 33.9449 176.148 32.9374 176.148 31.9299Z" fill="#66CC00"/>
<path d="M187.677 0.620117C181.44 8.68012 174.92 8.99012 167.549 11.0826C154.508 14.8026 151.106 23.8701 151.106 23.8701C151.106 23.8701 151.106 23.9476 151.011 23.9476C151.011 24.1026 150.917 24.1801 150.917 24.3351C151.295 24.2576 151.673 24.1801 152.145 24.1026C152.807 23.5601 153.185 23.1726 153.279 23.0176C159.516 21.6226 168.683 21.7776 173.408 21.2351C185.976 19.7626 188.622 4.72762 187.677 0.620117Z" fill="#009900"/>
<path fill-rule="evenodd" clip-rule="evenodd" d="M187.677 0.620117C184.748 12.7101 175.203 11.9351 167.832 14.0276C156.209 17.2826 152.334 22.9401 151.673 24.1801C151.862 24.1801 152.051 24.1026 152.24 24.1026C152.334 24.1026 152.429 24.1026 152.523 24.1026C159.233 21.6226 167.927 21.9326 173.408 21.3126C185.976 19.7626 188.622 4.72762 187.677 0.620117Z" fill="#66CC00"/>
<path fill-rule="evenodd" clip-rule="evenodd" d="M187.677 0.620117C184.748 12.7101 175.203 11.9351 167.832 14.0276C156.587 17.1276 152.901 22.5526 152.051 24.1026H152.145H152.24C157.059 19.2201 161.501 16.3526 165.753 15.1126C169.817 13.8726 187.016 13.3301 187.677 0.620117Z" fill="#66CC00"/>
<path fill-rule="evenodd" clip-rule="evenodd" d="M153.846 21.0027L154.791 20.0727C154.791 20.0727 156.775 19.6077 159.421 20.3052C156.303 20.0727 153.846 21.0027 153.846 21.0027Z" fill="#009900"/>
<path fill-rule="evenodd" clip-rule="evenodd" d="M156.397 18.9103L157.815 17.9803C157.815 17.9803 160.65 17.9028 163.957 19.2978C159.799 18.2128 156.397 18.9103 156.397 18.9103Z" fill="#009900"/>
<path fill-rule="evenodd" clip-rule="evenodd" d="M159.989 16.3521L161.973 15.5771C161.973 15.5771 165.375 15.9646 169.439 18.2121C164.336 16.1196 159.989 16.3521 159.989 16.3521Z" fill="#009900"/>
<path fill-rule="evenodd" clip-rule="evenodd" d="M164.997 14.4146L167.643 13.6396C167.643 13.6396 172.085 14.4921 177.188 17.8246C170.667 14.5696 164.997 14.4146 164.997 14.4146Z" fill="#009900"/>
<path d="M93.7441 57.2726C93.7441 56.9626 93.7441 56.6526 93.7441 56.4976C93.7441 56.2651 93.7441 56.1101 93.7441 56.0326C93.7441 55.8776 93.7441 55.8001 93.7441 55.7226C93.7441 55.6451 93.7441 55.5676 93.7441 55.4901C93.7441 55.3351 93.6496 55.2576 93.6496 55.1801C93.5551 55.1026 93.4606 55.0251 93.2716 55.0251C93.2716 55.0251 93.1771 55.0251 93.0826 55.0251C92.9881 55.0251 92.9881 55.0251 92.8936 55.0251C92.7991 55.0251 92.7991 55.0251 92.7991 54.9476C92.7991 54.8701 92.8936 54.8701 92.9881 54.8701C93.0826 54.8701 93.2716 54.8701 93.3661 54.8701C93.4606 54.8701 93.6496 54.8701 93.7441 54.8701C93.8386 54.8701 93.9331 54.8701 94.0276 54.8701C94.1221 54.8701 94.1221 54.8701 94.2166 54.8701C94.2166 54.8701 94.3111 54.8701 94.4056 54.8701C94.5001 54.8701 94.5946 54.8701 94.7836 54.8701C94.8781 54.8701 95.0671 54.8701 95.2561 54.8701C95.4451 54.8701 95.5396 54.8701 95.7286 54.8701C96.0121 54.8701 96.2956 54.8701 96.6736 54.8701C97.0516 54.8701 97.4296 54.8701 97.8076 54.9476C98.1856 55.0251 98.5636 55.1026 98.9416 55.2576C99.3196 55.4126 99.6976 55.5676 99.9811 55.8776C100.265 56.1101 100.454 56.4201 100.737 56.7301C100.926 57.1176 101.021 57.5051 101.021 58.0476C101.021 58.2801 101.021 58.5901 100.926 58.8226C100.832 59.0551 100.737 59.2876 100.643 59.4426C100.548 59.6751 100.454 59.8301 100.265 59.9851C100.076 60.1401 99.9811 60.2951 99.7921 60.4501C99.6976 60.5276 99.5086 60.6826 99.3196 60.7601C99.1306 60.8376 98.9416 60.9926 98.6581 61.0701C98.3746 61.1476 98.0911 61.2251 97.7131 61.3026C97.3351 61.3801 96.9571 61.3801 96.4846 61.3801C96.2956 61.3801 96.0121 61.3801 95.7286 61.3801C95.4451 61.3801 95.2561 61.3801 94.9726 61.3801C94.7836 61.3801 94.5001 61.3801 94.4056 61.3801C94.2166 61.3801 94.1221 61.3801 94.1221 61.3801C94.1221 61.3801 94.0276 61.3801 93.9331 61.3801C93.8386 61.3801 93.7441 61.3801 93.6496 61.3801C93.5551 61.3801 93.4606 61.3801 93.2716 61.3801C93.1771 61.3801 93.0826 61.3801 92.9881 61.3801C92.8936 61.3801 92.7991 61.3801 92.7991 61.3026C92.7991 61.2251 92.7991 61.2251 92.8936 61.2251C92.9881 61.2251 92.9881 61.2251 93.0826 61.2251C93.1771 61.2251 93.1771 61.2251 93.2716 61.2251C93.3661 61.2251 93.4606 61.1476 93.4606 61.0701C93.4606 60.9926 93.5551 60.9151 93.5551 60.7601C93.5551 60.6051 93.6496 60.3726 93.6496 60.0626C93.6496 59.7526 93.6496 59.3651 93.6496 58.9776V57.2726H93.7441ZM94.6891 58.2026C94.6891 58.4351 94.6891 58.6676 94.6891 58.8226C94.6891 58.9776 94.6891 59.2101 94.6891 59.3651C94.6891 59.5201 94.6891 59.6751 94.6891 59.7526C94.6891 59.8301 94.6891 59.9076 94.6891 59.9851C94.6891 60.0626 94.6891 60.2176 94.6891 60.2951C94.6891 60.3726 94.6891 60.5276 94.7836 60.5276C94.7836 60.6051 94.8781 60.6051 94.9726 60.6826C95.0671 60.7601 95.1616 60.7601 95.2561 60.7601C95.3506 60.7601 95.5396 60.8376 95.7286 60.8376C95.9176 60.8376 96.2011 60.8376 96.4846 60.8376C96.9571 60.8376 97.4296 60.7601 97.9021 60.6826C98.2801 60.5276 98.6581 60.3726 99.0361 60.1401C99.1306 60.0626 99.3196 59.9076 99.4141 59.7526C99.5086 59.5976 99.6031 59.4426 99.6976 59.2876C99.7921 59.1326 99.7921 58.9001 99.8866 58.7451C99.9811 58.5901 99.9811 58.3576 99.9811 58.2026C99.9811 57.9701 99.9811 57.6601 99.8866 57.5051C99.7921 57.3501 99.6976 57.1176 99.6031 56.8851C99.5086 56.7301 99.4141 56.5751 99.3196 56.4201C99.2251 56.2651 99.1306 56.1876 98.9416 56.1101C98.6581 55.8776 98.4691 55.7226 98.1856 55.6451C97.9021 55.4901 97.6186 55.4126 97.3351 55.3351C97.0516 55.2576 96.7681 55.2576 96.4846 55.1801C96.2011 55.1801 95.8231 55.1801 95.5396 55.1801C95.4451 55.1801 95.3506 55.1801 95.1616 55.1801C95.0671 55.1801 94.9726 55.1801 94.8781 55.2576C94.7836 55.2576 94.7836 55.3351 94.7836 55.4126V58.2026H94.6891Z" fill="#009900"/>
<path d="M106.596 60.8376C106.879 60.8376 107.068 60.8376 107.257 60.8376C107.446 60.8376 107.635 60.7601 107.73 60.7601C107.824 60.7601 107.919 60.6826 108.013 60.6051C108.108 60.5276 108.108 60.5276 108.202 60.4501C108.297 60.3726 108.297 60.2951 108.297 60.2176C108.297 60.1401 108.391 60.0626 108.391 59.9851C108.391 59.9076 108.486 59.8301 108.486 59.8301H108.58C108.58 59.8301 108.58 59.9076 108.58 59.9851C108.58 60.0626 108.58 60.1401 108.58 60.2176C108.58 60.2951 108.58 60.3726 108.486 60.5276C108.486 60.6051 108.391 60.6826 108.391 60.7601C108.391 60.8376 108.391 60.9151 108.297 60.9926C108.297 61.0701 108.202 61.1476 108.202 61.1476C108.202 61.1476 108.108 61.1476 108.013 61.1476C107.163 61.1476 106.218 61.1476 105.367 61.1476C104.422 61.1476 103.572 61.1476 102.627 61.1476C102.532 61.1476 102.438 61.1476 102.438 61.0701V60.9926C102.438 60.9926 102.532 60.9151 102.532 60.8376C103.383 59.9076 104.139 58.9776 104.895 58.0476C105.651 57.1176 106.407 56.1876 107.163 55.2576H104.895C104.611 55.2576 104.328 55.2576 104.044 55.2576C103.761 55.2576 103.572 55.3351 103.383 55.4126C103.194 55.4901 103.099 55.5676 102.91 55.7226C102.816 55.8776 102.721 55.9551 102.721 56.0326C102.721 56.1101 102.721 56.1101 102.627 56.1876C102.532 56.2651 102.532 56.1876 102.532 56.1876C102.532 56.1876 102.438 56.1876 102.438 56.1101C102.438 56.1101 102.438 56.0326 102.438 55.9551C102.438 55.8776 102.438 55.7226 102.532 55.6451C102.627 55.5676 102.627 55.4126 102.627 55.3351C102.627 55.2576 102.627 55.1026 102.721 55.0251C102.721 54.9476 102.721 54.8701 102.816 54.8701C102.91 54.8701 102.91 54.8701 103.005 54.8701C103.099 54.8701 103.194 54.8701 103.288 54.8701C103.761 54.8701 104.233 54.8701 104.517 54.8701C104.8 54.8701 104.989 54.8701 105.178 54.8701H108.202C108.391 54.8701 108.391 54.8701 108.391 54.9476V55.0251C108.391 55.0251 108.391 55.1026 108.297 55.1026C107.541 56.1101 106.69 57.0401 105.934 57.9701C105.178 58.9001 104.328 59.8301 103.572 60.8376H106.596Z" fill="#009900"/>
<path d="M112.833 53.3975C112.928 53.3975 112.928 53.3975 112.928 53.475L112.833 53.7075C112.833 53.785 112.739 53.785 112.739 53.785H109.904C109.809 53.785 109.809 53.785 109.809 53.7075L109.904 53.475C109.904 53.3975 109.998 53.3975 109.998 53.3975H112.833ZM111.888 58.8225C111.888 59.21 111.888 59.5975 111.888 59.9075C111.888 60.2175 111.888 60.45 111.888 60.605C111.888 60.76 111.888 60.8375 111.983 60.915C111.983 60.9925 112.077 61.07 112.266 61.07C112.361 61.07 112.455 61.07 112.55 61.07C112.644 61.07 112.739 61.07 112.739 61.07C112.833 61.07 112.833 61.07 112.833 61.1475C112.833 61.225 112.739 61.225 112.644 61.225C112.455 61.225 112.361 61.225 112.172 61.225C111.983 61.225 111.888 61.225 111.794 61.225C111.699 61.225 111.605 61.225 111.51 61.225C111.416 61.225 111.416 61.225 111.416 61.225C111.416 61.225 111.321 61.225 111.227 61.225C111.132 61.225 111.038 61.225 110.943 61.225C110.849 61.225 110.754 61.225 110.565 61.225C110.471 61.225 110.376 61.225 110.282 61.225C110.187 61.225 110.093 61.225 110.093 61.1475C110.093 61.07 110.093 61.07 110.187 61.07C110.282 61.07 110.282 61.07 110.376 61.07C110.471 61.07 110.471 61.07 110.565 61.07C110.66 61.07 110.754 60.9925 110.754 60.915C110.754 60.8375 110.849 60.76 110.849 60.605C110.849 60.45 110.849 60.2175 110.943 59.9075C110.943 59.5975 110.943 59.21 110.943 58.8225V57.35C110.943 57.04 110.943 56.73 110.943 56.575C110.943 56.3425 110.943 56.1875 110.943 56.11C110.943 55.955 110.943 55.8775 110.943 55.8C110.943 55.7225 110.943 55.645 110.943 55.5675C110.943 55.4125 110.849 55.335 110.849 55.2575C110.754 55.18 110.754 55.18 110.565 55.1025C110.471 55.1025 110.471 55.1025 110.376 55.1025C110.282 55.1025 110.282 55.1025 110.187 55.1025C110.093 55.1025 110.093 55.1025 110.093 55.025C110.093 54.9475 110.187 54.9475 110.282 54.9475C110.376 54.9475 110.471 54.9475 110.565 54.9475C110.66 54.9475 110.754 54.9475 110.943 54.9475C111.038 54.9475 111.132 54.9475 111.227 54.9475C111.321 54.9475 111.321 54.9475 111.416 54.9475H111.51C111.605 54.9475 111.699 54.9475 111.794 54.9475C111.888 54.9475 111.983 54.9475 112.172 54.9475C112.266 54.9475 112.361 54.9475 112.455 54.9475C112.55 54.9475 112.644 54.9475 112.644 55.025C112.644 55.1025 112.644 55.1025 112.55 55.1025H112.455C112.455 55.1025 112.361 55.1025 112.266 55.1025C112.077 55.1025 111.983 55.18 111.983 55.2575C111.983 55.335 111.888 55.4125 111.888 55.5675C111.888 55.645 111.888 55.7225 111.888 55.8C111.888 55.8775 111.888 55.955 111.888 56.11C111.888 56.265 111.888 56.42 111.888 56.575C111.888 56.8075 111.888 57.04 111.888 57.35V58.8225Z" fill="#009900"/>
<path d="M117.936 60.1401C118.031 59.9851 118.125 59.7526 118.314 59.4426C118.409 59.1326 118.598 58.9001 118.787 58.5901C118.976 58.2801 119.07 57.9701 119.259 57.6601C119.448 57.3501 119.543 57.0401 119.732 56.7301C119.826 56.4201 120.015 56.1876 120.11 55.9551C120.204 55.7226 120.299 55.5676 120.299 55.4901C120.299 55.4126 120.299 55.3351 120.393 55.3351C120.488 55.3351 120.393 55.2576 120.393 55.1801C120.393 55.1026 120.393 55.1026 120.393 55.1026L120.299 55.0251C120.204 55.0251 120.204 55.0251 120.11 55.0251C120.015 55.0251 120.015 55.0251 119.921 55.0251C119.826 55.0251 119.826 55.0251 119.826 54.9476C119.826 54.8701 119.921 54.8701 120.11 54.8701C120.299 54.8701 120.488 54.8701 120.771 54.8701C120.96 54.8701 121.149 54.8701 121.149 54.8701C121.149 54.8701 121.244 54.8701 121.433 54.8701C121.622 54.8701 121.811 54.8701 121.905 54.8701C122 54.8701 122.094 54.8701 122.094 54.9476C122.094 55.0251 122.094 55.0251 122 55.0251C122 55.0251 121.905 55.0251 121.811 55.0251C121.716 55.0251 121.622 55.0251 121.527 55.1026L121.433 55.1801C121.433 55.1801 121.338 55.2576 121.338 55.3351C121.244 55.4126 121.244 55.4901 121.149 55.5676C121.055 55.6451 121.055 55.8001 120.96 55.9551C120.96 56.0326 120.866 56.1101 120.771 56.2651C120.677 56.4201 120.582 56.5751 120.488 56.8076C120.393 57.0401 120.299 57.2726 120.11 57.5051C120.015 57.7376 119.826 57.9701 119.732 58.2801C119.448 58.9001 119.165 59.4426 118.881 59.8301C118.692 60.2951 118.503 60.6051 118.314 60.8376C118.125 61.0701 118.031 61.2251 118.031 61.3801C117.936 61.4576 117.936 61.5351 117.842 61.5351C117.747 61.5351 117.747 61.5351 117.653 61.4576C117.558 61.3801 117.558 61.2251 117.464 61.0701L114.818 55.8776C114.723 55.7226 114.723 55.6451 114.629 55.5676C114.534 55.4901 114.534 55.4126 114.44 55.4126C114.345 55.3351 114.345 55.3351 114.251 55.3351C114.156 55.3351 114.156 55.2576 114.062 55.2576C113.967 55.2576 113.873 55.2576 113.778 55.2576C113.684 55.2576 113.684 55.2576 113.589 55.2576C113.495 55.2576 113.495 55.2576 113.495 55.2576C113.495 55.2576 113.495 55.2576 113.495 55.1801C113.495 55.1026 113.589 55.1026 113.778 55.1026C113.873 55.1026 114.062 55.1026 114.156 55.1026C114.251 55.1026 114.44 55.1026 114.534 55.1026C114.629 55.1026 114.723 55.1026 114.818 55.1026C114.912 55.1026 115.007 55.1026 115.007 55.1026C115.101 55.1026 115.196 55.1026 115.385 55.1026C115.574 55.1026 115.763 55.1026 115.952 55.1026C116.141 55.1026 116.235 55.1026 116.235 55.1801C116.235 55.2576 116.235 55.2576 116.141 55.2576C116.046 55.2576 116.046 55.2576 115.952 55.2576C115.857 55.2576 115.857 55.2576 115.763 55.2576C115.668 55.2576 115.668 55.3351 115.668 55.3351V55.4126C115.668 55.4901 115.668 55.5676 115.763 55.6451C115.857 55.7226 115.857 55.8776 115.952 56.1101L117.936 60.1401Z" fill="#009900"/>
<path d="M123.512 57.2726C123.512 56.9626 123.512 56.6526 123.512 56.4976C123.512 56.2651 123.512 56.1101 123.512 56.0326C123.512 55.8776 123.512 55.8001 123.512 55.7226C123.512 55.6451 123.512 55.5676 123.512 55.4901C123.512 55.3351 123.417 55.2576 123.417 55.1801C123.323 55.1026 123.228 55.0251 123.039 55.0251C123.039 55.0251 122.945 55.0251 122.85 55.0251C122.756 55.0251 122.756 55.0251 122.661 55.0251C122.567 55.0251 122.567 55.0251 122.567 54.9476C122.567 54.8701 122.661 54.8701 122.756 54.8701C122.85 54.8701 123.039 54.8701 123.134 54.8701C123.228 54.8701 123.417 54.8701 123.512 54.8701C123.606 54.8701 123.701 54.8701 123.795 54.8701C123.89 54.8701 123.89 54.8701 123.984 54.8701C123.984 54.8701 124.079 54.8701 124.173 54.8701C124.268 54.8701 124.457 54.8701 124.646 54.8701C124.835 54.8701 125.024 54.8701 125.213 54.8701C125.402 54.8701 125.591 54.8701 125.78 54.8701C125.969 54.8701 126.158 54.8701 126.252 54.8701C126.347 54.8701 126.441 54.8701 126.536 54.8701C126.63 54.8701 126.725 54.8701 126.819 54.8701C126.914 54.8701 127.008 54.8701 127.008 54.8701H127.103H127.197C127.197 54.8701 127.292 54.8701 127.292 54.9476C127.292 54.9476 127.292 55.0251 127.292 55.1026C127.292 55.1801 127.292 55.2576 127.197 55.3351V55.4126C127.197 55.4901 127.197 55.4901 127.197 55.5676C127.197 55.6451 127.197 55.6451 127.197 55.7226C127.197 55.8001 127.197 55.8001 127.197 55.8776V55.9551C127.197 55.9551 127.197 55.9551 127.103 55.9551C127.008 55.9551 127.008 55.9551 127.008 55.8776C127.008 55.8776 127.008 55.8001 127.008 55.7226C127.008 55.6451 127.008 55.6451 126.914 55.5676C126.914 55.5676 126.914 55.4901 126.819 55.4901L126.725 55.4126C126.63 55.4126 126.63 55.4126 126.536 55.3351C126.441 55.3351 126.347 55.3351 126.158 55.2576C126.063 55.2576 125.969 55.2576 125.874 55.2576C125.685 55.2576 125.591 55.2576 125.402 55.2576C125.213 55.2576 125.024 55.2576 124.929 55.2576C124.835 55.2576 124.74 55.2576 124.646 55.2576C124.646 55.2576 124.551 55.2576 124.551 55.3351V57.6601C124.551 57.7376 124.551 57.7376 124.646 57.7376C124.646 57.7376 124.74 57.7376 124.929 57.7376C125.118 57.7376 125.307 57.7376 125.496 57.7376C125.685 57.7376 125.874 57.7376 126.063 57.7376C126.252 57.7376 126.347 57.7376 126.441 57.7376C126.536 57.7376 126.63 57.7376 126.725 57.7376C126.819 57.7376 126.914 57.7376 126.914 57.6601C127.008 57.5826 127.008 57.5826 127.103 57.5826C127.103 57.5826 127.197 57.5826 127.197 57.6601C127.197 57.6601 127.197 57.7376 127.197 57.8151C127.197 57.8926 127.197 57.9701 127.103 58.1251C127.103 58.2026 127.103 58.2801 127.103 58.4351C127.103 58.5901 127.103 58.6676 127.103 58.6676V58.7451C127.103 58.7451 127.103 58.8226 127.008 58.8226C126.914 58.8226 126.914 58.8226 126.914 58.7451C126.914 58.6676 126.914 58.6676 126.914 58.5901C126.914 58.5126 126.914 58.5126 126.914 58.4351C126.914 58.3576 126.819 58.3576 126.819 58.2801C126.725 58.2026 126.63 58.2026 126.441 58.2026C126.347 58.2026 126.252 58.2026 126.063 58.2026C125.874 58.2026 125.78 58.2026 125.591 58.2026C125.402 58.2026 125.307 58.2026 125.118 58.2026C124.929 58.2026 124.835 58.2026 124.835 58.2026C124.74 58.2026 124.74 58.2026 124.74 58.2801V58.9776C124.74 59.0551 124.74 59.1326 124.74 59.2876C124.74 59.4426 124.74 59.5976 124.74 59.7526C124.74 59.9076 124.74 60.0626 124.74 60.2176C124.74 60.3726 124.74 60.4501 124.74 60.4501C124.74 60.6051 124.74 60.6826 124.835 60.7601C124.835 60.8376 124.929 60.9151 125.024 60.9926C125.118 61.0701 125.213 61.0701 125.402 61.0701C125.591 61.0701 125.78 61.0701 126.063 61.0701C126.158 61.0701 126.347 61.0701 126.63 61.0701C126.819 61.0701 127.008 61.0701 127.197 60.9926C127.292 60.9151 127.481 60.8376 127.481 60.7601C127.481 60.6826 127.575 60.5276 127.67 60.3726C127.67 60.2951 127.764 60.2176 127.764 60.2176C127.764 60.2176 127.859 60.2176 127.859 60.2951V60.3726C127.859 60.3726 127.859 60.4501 127.859 60.5276C127.859 60.6051 127.859 60.6826 127.859 60.7601C127.859 60.8376 127.859 60.9151 127.764 60.9926C127.764 61.0701 127.764 61.1476 127.67 61.1476C127.67 61.2251 127.67 61.2251 127.575 61.3026C127.481 61.3801 127.481 61.3801 127.481 61.3801C127.481 61.3801 127.386 61.3801 127.292 61.3801C127.197 61.3801 127.103 61.3801 127.008 61.3801C126.63 61.3801 126.252 61.3801 125.969 61.3801C125.685 61.3801 125.402 61.3801 125.213 61.3801C125.024 61.3801 124.835 61.3801 124.646 61.3801C124.551 61.3801 124.362 61.3801 124.362 61.3801C124.362 61.3801 124.268 61.3801 124.173 61.3801C124.079 61.3801 123.984 61.3801 123.89 61.3801C123.795 61.3801 123.701 61.3801 123.606 61.3801C123.512 61.3801 123.417 61.3801 123.323 61.3801C123.228 61.3801 123.134 61.3801 123.134 61.3026C123.134 61.2251 123.134 61.2251 123.228 61.2251C123.323 61.2251 123.323 61.2251 123.417 61.2251C123.512 61.2251 123.512 61.2251 123.606 61.2251C123.701 61.2251 123.795 61.1476 123.795 61.0701C123.795 60.9926 123.89 60.9151 123.89 60.7601C123.89 60.6051 123.984 60.3726 123.984 60.0626C123.984 59.7526 123.984 59.3651 123.984 58.9776V57.2726H123.512Z" fill="#009900"/>
<path d="M130.032 61.3023C129.749 61.3023 129.465 61.2248 129.276 61.1473C129.182 61.1473 129.182 61.0698 129.182 61.0698C129.182 61.0698 129.182 60.9923 129.182 60.8373C129.182 60.6048 129.182 60.4498 129.182 60.2948C129.182 60.1398 129.182 60.0623 129.182 59.9848C129.182 59.9073 129.182 59.8298 129.276 59.8298C129.371 59.8298 129.371 59.8298 129.371 59.9073C129.371 59.9073 129.371 59.9848 129.371 60.0623C129.371 60.1398 129.371 60.1398 129.371 60.2173C129.371 60.3723 129.465 60.5273 129.56 60.6048C129.654 60.6823 129.843 60.7598 129.938 60.8373C130.127 60.9148 130.221 60.9148 130.41 60.9923C130.599 60.9923 130.788 61.0698 130.977 61.0698C131.544 61.0698 131.922 60.9923 132.206 60.7598C132.489 60.5273 132.584 60.2948 132.584 59.9848C132.584 59.8298 132.584 59.6748 132.489 59.5973C132.395 59.4423 132.395 59.3648 132.206 59.2873C132.111 59.2098 131.922 59.0548 131.828 58.9773C131.639 58.8998 131.45 58.7448 131.261 58.5898L130.788 58.2798C130.221 57.8923 129.843 57.5823 129.56 57.3498C129.371 57.0398 129.182 56.8073 129.182 56.4973C129.182 56.2648 129.276 56.0323 129.371 55.7998C129.465 55.5673 129.654 55.4123 129.843 55.3348C130.032 55.1798 130.316 55.1023 130.599 55.0248C130.883 54.9473 131.166 54.9473 131.544 54.9473C131.733 54.9473 131.922 54.9473 132.111 54.9473C132.3 54.9473 132.489 55.0248 132.584 55.0248C132.678 55.0248 132.773 55.0248 132.773 55.0248C132.867 55.0248 132.867 55.0248 132.867 55.0248C132.962 55.0248 132.962 55.0248 132.962 55.1023C132.962 55.1023 132.962 55.1798 132.962 55.3348C132.962 55.4898 132.962 55.7223 132.962 55.9548C132.962 56.1098 132.962 56.1098 132.867 56.1098H132.773V56.0323C132.773 55.9548 132.773 55.8773 132.678 55.7998C132.584 55.7223 132.584 55.6448 132.584 55.5673L132.489 55.4898C132.489 55.4898 132.395 55.4123 132.206 55.3348C132.017 55.2573 131.922 55.2573 131.828 55.1798C131.733 55.1023 131.45 55.1023 131.261 55.1023C130.883 55.1023 130.505 55.1798 130.221 55.3348C129.938 55.4898 129.843 55.7223 129.843 56.0323C129.843 56.1873 129.843 56.2648 129.938 56.4198C129.938 56.4973 130.032 56.6523 130.127 56.7298C130.221 56.8073 130.41 56.9623 130.505 57.0398C130.599 57.1173 130.883 57.2723 131.166 57.4273L131.45 57.5823C131.733 57.7373 132.017 57.9698 132.3 58.1248C132.489 58.2798 132.678 58.4348 132.867 58.5898C132.962 58.7448 133.056 58.8998 133.151 59.0548C133.245 59.2098 133.245 59.3648 133.245 59.5973C133.245 59.8298 133.151 60.0623 133.056 60.3723C132.962 60.6823 132.678 60.8373 132.3 61.0698C132.111 61.2248 131.828 61.3023 131.544 61.3023C131.261 61.3798 130.977 61.3798 130.694 61.3798C130.599 61.3798 130.316 61.3023 130.032 61.3023Z" fill="#009900"/>
<path d="M138.821 60.1401C138.915 59.9851 139.01 59.7526 139.199 59.4426C139.293 59.1326 139.482 58.9001 139.671 58.5901C139.86 58.2801 139.955 57.9701 140.144 57.6601C140.333 57.3501 140.427 57.0401 140.616 56.7301C140.711 56.4201 140.9 56.1876 140.994 55.9551C141.089 55.7226 141.183 55.5676 141.183 55.4901C141.183 55.4126 141.183 55.3351 141.278 55.3351C141.372 55.3351 141.278 55.2576 141.278 55.1801C141.278 55.1026 141.278 55.1026 141.278 55.1026L141.183 55.0251C141.089 55.0251 141.089 55.0251 140.994 55.0251C140.9 55.0251 140.9 55.0251 140.805 55.0251C140.711 55.0251 140.711 55.0251 140.711 54.9476C140.711 54.8701 140.805 54.8701 140.994 54.8701C141.183 54.8701 141.372 54.8701 141.656 54.8701C141.845 54.8701 142.034 54.8701 142.034 54.8701C142.034 54.8701 142.128 54.8701 142.317 54.8701C142.506 54.8701 142.695 54.8701 142.79 54.8701C142.884 54.8701 142.979 54.8701 142.979 54.9476C142.979 55.0251 142.979 55.0251 142.884 55.0251C142.884 55.0251 142.79 55.0251 142.695 55.0251C142.601 55.0251 142.506 55.0251 142.412 55.1026L142.317 55.1801C142.317 55.1801 142.223 55.2576 142.223 55.3351C142.128 55.4126 142.128 55.4901 142.034 55.5676C141.939 55.6451 141.939 55.8001 141.845 55.9551C141.845 56.0326 141.75 56.1101 141.656 56.2651C141.561 56.4201 141.467 56.5751 141.372 56.8076C141.278 57.0401 141.183 57.2726 140.994 57.5051C140.9 57.7376 140.711 57.9701 140.616 58.2801C140.333 58.9001 140.049 59.4426 139.766 59.8301C139.577 60.2951 139.388 60.6051 139.199 60.8376C139.01 61.0701 138.915 61.2251 138.915 61.3801C138.821 61.4576 138.821 61.5351 138.726 61.5351C138.632 61.5351 138.632 61.5351 138.537 61.4576C138.443 61.3801 138.443 61.2251 138.348 61.0701L135.702 55.8776C135.608 55.7226 135.608 55.6451 135.513 55.5676C135.419 55.4901 135.419 55.4126 135.324 55.4126C135.23 55.3351 135.23 55.3351 135.135 55.3351C135.041 55.3351 135.041 55.2576 134.946 55.2576C134.852 55.2576 134.757 55.2576 134.663 55.2576C134.568 55.2576 134.568 55.2576 134.474 55.2576C134.379 55.2576 134.379 55.2576 134.379 55.2576C134.379 55.2576 134.379 55.2576 134.379 55.1801C134.379 55.1026 134.474 55.1026 134.663 55.1026C134.757 55.1026 134.946 55.1026 135.041 55.1026C135.135 55.1026 135.324 55.1026 135.419 55.1026C135.513 55.1026 135.608 55.1026 135.702 55.1026C135.797 55.1026 135.891 55.1026 135.891 55.1026C135.986 55.1026 136.08 55.1026 136.269 55.1026C136.458 55.1026 136.647 55.1026 136.836 55.1026C137.025 55.1026 137.12 55.1026 137.12 55.1801C137.12 55.2576 137.12 55.2576 137.025 55.2576C136.931 55.2576 136.931 55.2576 136.836 55.2576C136.742 55.2576 136.742 55.2576 136.647 55.2576C136.553 55.2576 136.553 55.3351 136.553 55.3351V55.4126C136.553 55.4901 136.553 55.5676 136.647 55.6451C136.742 55.7226 136.742 55.8776 136.836 56.1101L138.821 60.1401Z" fill="#009900"/>
<path d="M144.396 57.2726C144.396 56.9626 144.396 56.6526 144.396 56.4976C144.396 56.2651 144.396 56.1101 144.396 56.0326C144.396 55.8776 144.396 55.8001 144.396 55.7226C144.396 55.6451 144.396 55.5676 144.396 55.4901C144.396 55.3351 144.302 55.2576 144.302 55.1801C144.207 55.1026 144.113 55.0251 143.924 55.0251C143.924 55.0251 143.829 55.0251 143.735 55.0251C143.64 55.0251 143.64 55.0251 143.546 55.0251C143.451 55.0251 143.451 55.0251 143.451 54.9476C143.451 54.8701 143.546 54.8701 143.64 54.8701C143.735 54.8701 143.924 54.8701 144.018 54.8701C144.113 54.8701 144.302 54.8701 144.396 54.8701C144.491 54.8701 144.585 54.8701 144.68 54.8701C144.774 54.8701 144.774 54.8701 144.869 54.8701C144.869 54.8701 144.963 54.8701 145.058 54.8701C145.152 54.8701 145.341 54.8701 145.53 54.8701C145.719 54.8701 145.908 54.8701 146.097 54.8701C146.286 54.8701 146.475 54.8701 146.664 54.8701C146.853 54.8701 147.042 54.8701 147.137 54.8701C147.231 54.8701 147.326 54.8701 147.42 54.8701C147.515 54.8701 147.609 54.8701 147.704 54.8701C147.798 54.8701 147.893 54.8701 147.893 54.8701H147.987H148.082C148.082 54.8701 148.176 54.8701 148.176 54.9476C148.176 54.9476 148.176 55.0251 148.176 55.1026C148.176 55.1801 148.176 55.2576 148.082 55.3351V55.4126C148.082 55.4901 148.082 55.4901 148.082 55.5676C148.082 55.6451 148.082 55.6451 148.082 55.7226C148.082 55.8001 148.082 55.8001 148.082 55.8776V55.9551C148.082 55.9551 148.082 55.9551 147.987 55.9551C147.893 55.9551 147.893 55.9551 147.893 55.8776C147.893 55.8776 147.893 55.8001 147.893 55.7226C147.893 55.6451 147.893 55.6451 147.798 55.5676C147.798 55.5676 147.798 55.4901 147.704 55.4901L147.609 55.4126C147.515 55.4126 147.515 55.4126 147.42 55.3351C147.326 55.3351 147.231 55.3351 147.042 55.2576C146.948 55.2576 146.853 55.2576 146.759 55.2576C146.57 55.2576 146.475 55.2576 146.286 55.2576C146.097 55.2576 145.908 55.2576 145.814 55.2576C145.719 55.2576 145.625 55.2576 145.53 55.2576C145.53 55.2576 145.436 55.2576 145.436 55.3351V57.6601C145.436 57.7376 145.436 57.7376 145.53 57.7376C145.53 57.7376 145.625 57.7376 145.814 57.7376C146.003 57.7376 146.192 57.7376 146.381 57.7376C146.57 57.7376 146.759 57.7376 146.948 57.7376C147.137 57.7376 147.231 57.7376 147.326 57.7376C147.42 57.7376 147.515 57.7376 147.609 57.7376C147.704 57.7376 147.798 57.7376 147.798 57.6601C147.893 57.5826 147.893 57.5826 147.987 57.5826C147.987 57.5826 148.082 57.5826 148.082 57.6601C148.082 57.6601 148.082 57.7376 148.082 57.8151C148.082 57.8926 148.082 57.9701 147.987 58.1251C147.987 58.2026 147.987 58.2801 147.987 58.4351C147.987 58.5901 147.987 58.6676 147.987 58.6676V58.7451C147.987 58.7451 147.987 58.8226 147.893 58.8226C147.798 58.8226 147.798 58.8226 147.798 58.7451C147.798 58.6676 147.798 58.6676 147.798 58.5901C147.798 58.5126 147.798 58.5126 147.798 58.4351C147.798 58.3576 147.704 58.3576 147.704 58.2801C147.609 58.2026 147.515 58.2026 147.326 58.2026C147.231 58.2026 147.137 58.2026 146.948 58.2026C146.759 58.2026 146.664 58.2026 146.475 58.2026C146.286 58.2026 146.192 58.2026 146.003 58.2026C145.814 58.2026 145.719 58.2026 145.719 58.2026C145.625 58.2026 145.625 58.2026 145.625 58.2801V58.9776C145.625 59.0551 145.625 59.1326 145.625 59.2876C145.625 59.4426 145.625 59.5976 145.625 59.7526C145.625 59.9076 145.625 60.0626 145.625 60.2176C145.625 60.3726 145.625 60.4501 145.625 60.4501C145.625 60.6051 145.625 60.6826 145.719 60.7601C145.719 60.8376 145.814 60.9151 145.908 60.9926C146.003 61.0701 146.097 61.0701 146.286 61.0701C146.475 61.0701 146.664 61.0701 146.948 61.0701C147.042 61.0701 147.231 61.0701 147.515 61.0701C147.704 61.0701 147.893 61.0701 148.082 60.9926C148.176 60.9151 148.365 60.8376 148.365 60.7601C148.365 60.6826 148.46 60.5276 148.554 60.3726C148.554 60.2951 148.649 60.2176 148.649 60.2176C148.649 60.2176 148.743 60.2176 148.743 60.2951V60.3726C148.743 60.3726 148.743 60.4501 148.743 60.5276C148.743 60.6051 148.743 60.6826 148.743 60.7601C148.743 60.8376 148.743 60.9151 148.649 60.9926C148.649 61.0701 148.649 61.1476 148.554 61.1476C148.554 61.2251 148.554 61.2251 148.46 61.3026C148.365 61.3801 148.365 61.3801 148.365 61.3801C148.365 61.3801 148.271 61.3801 148.176 61.3801C148.082 61.3801 147.987 61.3801 147.893 61.3801C147.515 61.3801 147.137 61.3801 146.853 61.3801C146.57 61.3801 146.286 61.3801 146.097 61.3801C145.908 61.3801 145.719 61.3801 145.53 61.3801C145.436 61.3801 145.247 61.3801 145.247 61.3801C145.247 61.3801 145.152 61.3801 145.058 61.3801C144.963 61.3801 144.869 61.3801 144.774 61.3801C144.68 61.3801 144.585 61.3801 144.491 61.3801C144.396 61.3801 144.302 61.3801 144.207 61.3801C144.113 61.3801 144.018 61.3801 144.018 61.3026C144.018 61.2251 144.018 61.2251 144.113 61.2251C144.207 61.2251 144.207 61.2251 144.302 61.2251C144.396 61.2251 144.396 61.2251 144.491 61.2251C144.585 61.2251 144.68 61.1476 144.68 61.0701C144.68 60.9926 144.774 60.9151 144.774 60.7601C144.774 60.6051 144.869 60.3726 144.869 60.0626C144.869 59.7526 144.869 59.3651 144.869 58.9776V57.2726H144.396Z" fill="#009900"/>
<path d="M152.051 58.8223C152.051 59.2098 152.051 59.5973 152.051 59.9073C152.051 60.2173 152.051 60.4498 152.051 60.6048C152.051 60.7598 152.051 60.8373 152.145 60.9148C152.145 60.9923 152.24 61.0698 152.429 61.0698C152.523 61.0698 152.618 61.0698 152.712 61.0698C152.807 61.0698 152.901 61.0698 152.901 61.0698C152.996 61.0698 152.996 61.0698 152.996 61.1473C152.996 61.2248 152.901 61.2248 152.807 61.2248C152.618 61.2248 152.523 61.2248 152.334 61.2248C152.145 61.2248 152.051 61.2248 151.956 61.2248C151.862 61.2248 151.767 61.2248 151.673 61.2248C151.578 61.2248 151.578 61.2248 151.578 61.2248C151.578 61.2248 151.484 61.2248 151.389 61.2248C151.295 61.2248 151.2 61.2248 151.106 61.2248C151.011 61.2248 150.917 61.2248 150.728 61.2248C150.633 61.2248 150.539 61.2248 150.444 61.2248C150.35 61.2248 150.255 61.2248 150.255 61.1473C150.255 61.0698 150.255 61.0698 150.35 61.0698C150.444 61.0698 150.444 61.0698 150.539 61.0698C150.633 61.0698 150.633 61.0698 150.728 61.0698C150.822 61.0698 150.917 60.9923 150.917 60.9148C150.917 60.8373 151.011 60.7598 151.011 60.6048C151.011 60.4498 151.011 60.2173 151.106 59.9073C151.106 59.5973 151.106 59.2098 151.106 58.8223V57.3498C151.106 57.0398 151.106 56.7298 151.106 56.5748C151.106 56.3423 151.106 56.1873 151.106 56.1098C151.106 55.9548 151.106 55.8773 151.106 55.7998C151.106 55.7223 151.106 55.6448 151.106 55.5673C151.106 55.4123 151.011 55.3348 151.011 55.2573C150.917 55.1798 150.917 55.1798 150.728 55.1023C150.633 55.1023 150.633 55.1023 150.539 55.1023C150.444 55.1023 150.444 55.1023 150.35 55.1023C150.255 55.1023 150.255 55.1023 150.255 55.0248C150.255 54.9473 150.35 54.9473 150.444 54.9473C150.539 54.9473 150.633 54.9473 150.728 54.9473C150.822 54.9473 150.917 54.9473 151.106 54.9473C151.2 54.9473 151.295 54.9473 151.389 54.9473C151.484 54.9473 151.484 54.9473 151.578 54.9473H151.673C151.767 54.9473 151.862 54.9473 151.956 54.9473C152.051 54.9473 152.145 54.9473 152.334 54.9473C152.429 54.9473 152.523 54.9473 152.618 54.9473C152.712 54.9473 152.807 54.9473 152.807 55.0248C152.807 55.1023 152.807 55.1023 152.712 55.1023H152.618C152.618 55.1023 152.523 55.1023 152.429 55.1023C152.24 55.1023 152.145 55.1798 152.145 55.2573C152.145 55.3348 152.051 55.4123 152.051 55.5673C152.051 55.6448 152.051 55.7223 152.051 55.7998C152.051 55.8773 152.051 55.9548 152.051 56.1098C152.051 56.2648 152.051 56.4198 152.051 56.5748C152.051 56.8073 152.051 57.0398 152.051 57.3498V58.8223Z" fill="#009900"/>
<path d="M155.736 57.2726C155.736 56.9626 155.736 56.6526 155.736 56.4976C155.736 56.2651 155.736 56.1101 155.736 56.0326C155.736 55.8776 155.736 55.8001 155.736 55.7226C155.736 55.6451 155.736 55.5676 155.736 55.4901C155.736 55.3351 155.642 55.2576 155.642 55.1801C155.547 55.1026 155.453 55.0251 155.264 55.0251C155.264 55.0251 155.169 55.0251 155.075 55.0251C154.98 55.0251 154.98 55.0251 154.886 55.0251C154.791 55.0251 154.791 55.0251 154.791 54.9476C154.791 54.8701 154.886 54.8701 154.98 54.8701C155.075 54.8701 155.264 54.8701 155.358 54.8701C155.453 54.8701 155.642 54.8701 155.736 54.8701C155.831 54.8701 155.925 54.8701 156.02 54.8701C156.114 54.8701 156.114 54.8701 156.209 54.8701C156.209 54.8701 156.303 54.8701 156.398 54.8701C156.492 54.8701 156.587 54.8701 156.776 54.8701C156.87 54.8701 157.059 54.8701 157.248 54.8701C157.437 54.8701 157.532 54.8701 157.721 54.8701C158.004 54.8701 158.288 54.8701 158.666 54.8701C159.044 54.8701 159.422 54.8701 159.8 54.9476C160.178 55.0251 160.556 55.1026 160.934 55.2576C161.312 55.4126 161.69 55.5676 161.973 55.8776C162.257 56.1101 162.446 56.4201 162.729 56.7301C162.918 57.1176 163.013 57.5051 163.013 58.0476C163.013 58.2801 163.013 58.5901 162.918 58.8226C162.824 59.0551 162.729 59.2876 162.635 59.4426C162.54 59.6751 162.446 59.8301 162.257 59.9851C162.068 60.1401 161.973 60.2951 161.784 60.4501C161.69 60.5276 161.501 60.6826 161.312 60.7601C161.123 60.8376 160.934 60.9926 160.65 61.0701C160.367 61.1476 160.083 61.2251 159.705 61.3026C159.327 61.3801 158.949 61.3801 158.477 61.3801C158.288 61.3801 158.004 61.3801 157.721 61.3801C157.437 61.3801 157.248 61.3801 156.965 61.3801C156.776 61.3801 156.492 61.3801 156.398 61.3801C156.303 61.3801 156.114 61.3801 156.114 61.3801C156.114 61.3801 156.02 61.3801 155.925 61.3801C155.831 61.3801 155.736 61.3801 155.642 61.3801C155.547 61.3801 155.453 61.3801 155.264 61.3801C155.169 61.3801 155.075 61.3801 154.98 61.3801C154.886 61.3801 154.791 61.3801 154.791 61.3026C154.791 61.2251 154.791 61.2251 154.886 61.2251C154.98 61.2251 154.98 61.2251 155.075 61.2251C155.169 61.2251 155.169 61.2251 155.264 61.2251C155.358 61.2251 155.453 61.1476 155.453 61.0701C155.453 60.9926 155.547 60.9151 155.547 60.7601C155.547 60.6051 155.642 60.3726 155.642 60.0626C155.642 59.7526 155.642 59.3651 155.642 58.9776V57.2726H155.736ZM156.681 58.2026C156.681 58.4351 156.681 58.6676 156.681 58.8226C156.681 58.9776 156.681 59.2101 156.681 59.3651C156.681 59.5201 156.681 59.6751 156.681 59.7526C156.681 59.8301 156.681 59.9076 156.681 59.9851C156.681 60.0626 156.681 60.2176 156.681 60.2951C156.681 60.4501 156.681 60.5276 156.776 60.5276C156.776 60.6051 156.87 60.6051 156.965 60.6826C157.059 60.7601 157.154 60.7601 157.248 60.7601C157.343 60.7601 157.532 60.8376 157.721 60.8376C157.91 60.8376 158.193 60.8376 158.477 60.8376C158.949 60.8376 159.422 60.7601 159.894 60.6826C160.272 60.5276 160.65 60.3726 161.028 60.1401C161.123 60.0626 161.312 59.9076 161.406 59.7526C161.501 59.5976 161.595 59.4426 161.69 59.2876C161.784 59.1326 161.784 58.9001 161.879 58.7451C161.973 58.5901 161.973 58.3576 161.973 58.2026C161.973 57.9701 161.973 57.6601 161.879 57.5051C161.784 57.3501 161.69 57.1176 161.595 56.8851C161.501 56.7301 161.406 56.5751 161.312 56.4201C161.217 56.2651 161.123 56.1876 160.934 56.1101C160.65 55.8776 160.461 55.7226 160.178 55.6451C159.894 55.4901 159.611 55.4126 159.327 55.3351C159.044 55.2576 158.76 55.2576 158.477 55.1801C158.193 55.1801 157.815 55.1801 157.532 55.1801C157.437 55.1801 157.343 55.1801 157.154 55.1801C157.059 55.1801 156.965 55.1801 156.87 55.2576C156.776 55.2576 156.776 55.3351 156.776 55.4126V58.2026H156.681Z" fill="#009900"/>
<path d="M167.076 55.0248C167.171 54.8698 167.171 54.7923 167.265 54.7923C167.265 54.7148 167.36 54.7148 167.36 54.7148C167.454 54.7148 167.454 54.7148 167.454 54.7923C167.454 54.8698 167.549 54.9473 167.549 55.0248C167.549 55.1023 167.643 55.2573 167.738 55.4123C167.832 55.6448 168.021 55.8773 168.116 56.1873C168.305 56.4973 168.399 56.8073 168.588 57.1948C168.777 57.5823 168.966 57.8923 169.155 58.2798C169.344 58.6673 169.533 58.9773 169.628 59.2873C169.817 59.5973 169.911 59.9073 170.006 60.0623C170.1 60.2173 170.195 60.3723 170.289 60.5273C170.384 60.6823 170.478 60.7598 170.573 60.7598C170.667 60.7598 170.762 60.8373 170.762 60.9148C170.762 60.9923 170.856 60.9923 170.951 60.9923C171.045 60.9923 171.14 60.9923 171.14 61.0698C171.234 61.0698 171.234 61.0698 171.329 61.0698H171.423C171.423 61.0698 171.423 61.0698 171.423 61.1473C171.423 61.2248 171.423 61.2248 171.329 61.2248C171.234 61.2248 171.234 61.2248 171.14 61.2248C171.14 61.2248 171.045 61.2248 170.951 61.2248C170.856 61.2248 170.667 61.2248 170.573 61.2248C170.384 61.2248 170.289 61.2248 170.1 61.2248C169.911 61.2248 169.722 61.2248 169.533 61.2248C169.439 61.2248 169.344 61.2248 169.25 61.2248C169.155 61.2248 169.155 61.2248 169.155 61.1473C169.155 61.1473 169.155 61.1473 169.25 61.1473C169.25 61.1473 169.344 61.1473 169.344 61.0698C169.344 61.0698 169.344 60.9923 169.344 60.9148L168.399 58.9773L168.305 58.8998H165.848C165.753 58.8998 165.753 58.8998 165.753 58.9773L165.186 60.2948C165.092 60.5273 164.997 60.6823 164.997 60.8373C164.997 60.9148 164.997 60.9923 165.092 60.9923C165.186 60.9923 165.281 61.0698 165.375 61.0698H165.47C165.564 61.0698 165.564 61.0698 165.564 61.1473C165.564 61.2248 165.47 61.2248 165.375 61.2248C165.281 61.2248 165.186 61.2248 165.092 61.2248C164.997 61.2248 164.903 61.2248 164.808 61.2248C164.714 61.2248 164.619 61.2248 164.525 61.2248C164.43 61.2248 164.43 61.2248 164.336 61.2248C164.336 61.2248 164.241 61.2248 164.147 61.2248C164.052 61.2248 163.958 61.2248 163.863 61.2248C163.769 61.2248 163.674 61.2248 163.58 61.2248C163.485 61.2248 163.391 61.2248 163.202 61.2248C163.107 61.2248 163.013 61.2248 163.013 61.1473C163.013 61.0698 163.013 61.0698 163.107 61.0698C163.107 61.0698 163.202 61.0698 163.296 61.0698C163.391 61.0698 163.391 61.0698 163.485 61.0698C163.769 61.0698 163.958 60.9923 164.052 60.8373C164.147 60.6823 164.336 60.5273 164.43 60.2948L167.076 55.0248ZM168.21 58.5123C168.305 58.5123 168.305 58.5123 168.21 58.5123L167.171 56.1098C167.076 55.9548 167.076 55.9548 166.982 56.1098L166.037 58.4348C166.037 58.5123 166.037 58.5123 166.037 58.5123H168.21Z" fill="#009900"/>
<path d="M180.968 60.1395C180.968 60.217 180.968 60.2945 180.968 60.372C180.968 60.4495 180.968 60.527 181.062 60.6045C181.062 60.682 181.157 60.7595 181.251 60.837C181.346 60.9145 181.44 60.992 181.535 60.992C181.724 61.0695 181.818 61.0695 181.913 61.0695C182.007 61.0695 182.102 61.0695 182.196 61.0695C182.291 61.0695 182.291 61.0695 182.291 61.147C182.291 61.147 182.291 61.2245 182.196 61.2245C182.196 61.2245 182.102 61.2245 182.007 61.2245C181.913 61.2245 181.818 61.2245 181.629 61.2245C181.44 61.2245 181.251 61.2245 181.062 61.2245C180.873 61.2245 180.684 61.2245 180.495 61.2245C180.306 61.2245 180.212 61.2245 180.117 61.2245C180.023 61.2245 179.928 61.2245 179.834 61.147C179.834 61.147 179.739 61.147 179.739 61.0695C179.739 61.0695 179.739 60.992 179.834 60.992C179.834 60.992 179.928 60.992 179.928 60.9145C179.928 60.837 179.928 60.7595 179.928 60.682L179.456 56.4195L176.904 60.7595C176.81 60.9145 176.715 61.0695 176.715 61.147C176.715 61.2245 176.621 61.2245 176.621 61.2245C176.526 61.2245 176.526 61.2245 176.526 61.147C176.526 61.0695 176.432 60.992 176.337 60.837C176.243 60.7595 176.148 60.6045 176.054 60.4495C175.959 60.2945 175.865 60.062 175.676 59.907C175.581 59.752 175.392 59.5195 175.298 59.3645C175.203 59.2095 175.109 59.0545 175.014 58.8995C174.92 58.7445 174.825 58.5895 174.731 58.357C174.636 58.1245 174.447 57.892 174.353 57.6595C174.258 57.427 174.069 57.1945 173.975 57.0395C173.88 56.807 173.786 56.7295 173.691 56.5745H173.597L173.219 60.372C173.219 60.4495 173.219 60.527 173.219 60.6045C173.219 60.682 173.219 60.7595 173.219 60.837C173.219 60.992 173.313 61.0695 173.502 61.0695C173.597 61.0695 173.691 61.0695 173.786 61.147C173.88 61.147 173.88 61.147 173.975 61.147C174.069 61.147 174.069 61.147 174.069 61.2245C174.069 61.302 173.975 61.302 173.88 61.302C173.786 61.302 173.691 61.302 173.597 61.302C173.502 61.302 173.408 61.302 173.313 61.302C173.219 61.302 173.124 61.302 173.03 61.302C172.935 61.302 172.935 61.302 172.935 61.302H172.841C172.746 61.302 172.652 61.302 172.652 61.302C172.557 61.302 172.463 61.302 172.368 61.302C172.274 61.302 172.179 61.302 172.085 61.302C171.99 61.302 171.896 61.302 171.896 61.2245C171.896 61.147 171.896 61.147 171.99 61.147H172.085C172.085 61.147 172.179 61.147 172.274 61.147C172.463 61.147 172.557 61.0695 172.557 60.9145C172.557 60.7595 172.652 60.6045 172.652 60.4495L173.408 54.947C173.408 54.8695 173.502 54.792 173.502 54.792C173.597 54.792 173.691 54.8695 173.691 54.947L176.904 60.217L180.023 55.0245C180.117 54.947 180.117 54.8695 180.212 54.8695C180.306 54.8695 180.306 54.947 180.401 55.102L180.968 60.1395Z" fill="#009900"/>
</svg>
