<svg width="68" height="83" viewBox="0 0 68 83" fill="none" xmlns="http://www.w3.org/2000/svg">
<path d="M10.7541 56.8443C10.7541 58.4496 9.63009 59.756 8.24898 59.756C6.86788 59.756 5.7439 58.4496 5.7439 56.8443C5.7439 55.239 8.24898 50.4316 8.24898 50.4316C8.24898 50.4316 10.7541 55.2304 10.7541 56.8443Z" fill="#ABF15C" stroke="#ABF15C" stroke-linecap="square" stroke-linejoin="round"/>
<path d="M20.6715 56.8443C20.6715 58.4496 19.5476 59.756 18.1665 59.756C16.7854 59.756 15.6614 58.4496 15.6614 56.8443C15.6614 55.239 18.1665 50.4316 18.1665 50.4316C18.1665 50.4316 20.6715 55.2304 20.6715 56.8443Z" fill="#ABF15C" stroke="#ABF15C" stroke-linecap="square" stroke-linejoin="round"/>
<path d="M30.589 56.8443C30.589 58.4496 29.465 59.756 28.0839 59.756C26.7028 59.756 25.5789 58.4496 25.5789 56.8443C25.5789 55.239 28.0839 50.4316 28.0839 50.4316C28.0839 50.4316 30.589 55.2304 30.589 56.8443Z" fill="#ABF15C" stroke="#ABF15C" stroke-linecap="square" stroke-linejoin="round"/>
<path d="M65.1635 16.3099V80.5729H60.7264V16.3099C60.7264 10.9475 56.9724 6.57565 52.359 6.57565H33.1484C28.5349 6.57565 24.7736 10.9475 24.7736 16.3099V16.5319C33.5451 17.7956 40.3331 26.4881 40.3331 37.025H42.75V43.0107H2.36743V37.025H4.78436C4.78436 26.4881 11.565 17.7956 20.3438 16.5319V16.3099C20.3438 8.1041 26.0886 1.42676 33.1484 1.42676H52.359C59.4187 1.42676 65.1635 8.1041 65.1635 16.3099Z" fill="#ABF15C" stroke="#ABF15C" stroke-miterlimit="10"/>
<path d="M63.6328 17.3099V81.5729H59.1956V17.3099C59.1956 11.9475 55.4417 7.57565 50.8282 7.57565H31.6176C27.0042 7.57565 23.2429 11.9475 23.2429 17.3099V17.5319C32.0143 18.7956 38.8023 27.4881 38.8023 38.025H41.2192V44.0107H0.83667V38.025H3.2536C3.2536 27.4881 10.0342 18.7956 18.813 17.5319V17.3099C18.813 9.1041 24.5578 2.42676 31.6176 2.42676H50.8282C57.888 2.42676 63.6328 9.1041 63.6328 17.3099Z" fill="white" stroke="#393938" stroke-miterlimit="10"/>
<path d="M11.4887 56.8443C11.4887 58.4496 10.3647 59.756 8.9836 59.756C7.6025 59.756 6.47852 58.4496 6.47852 56.8443C6.47852 55.239 8.9836 50.4316 8.9836 50.4316C8.9836 50.4316 11.4887 55.2304 11.4887 56.8443Z" fill="white" stroke="#393938" stroke-linecap="square" stroke-linejoin="round"/>
<path d="M21.4062 56.8443C21.4062 58.4496 20.2822 59.756 18.9011 59.756C17.52 59.756 16.396 58.4496 16.396 56.8443C16.396 55.239 18.9011 50.4316 18.9011 50.4316C18.9011 50.4316 21.4062 55.2304 21.4062 56.8443Z" fill="white" stroke="#393938" stroke-linecap="square" stroke-linejoin="round"/>
<path d="M31.3236 56.8443C31.3236 58.4496 30.1997 59.756 28.8186 59.756C27.4375 59.756 26.3135 58.4496 26.3135 56.8443C26.3135 55.239 28.8186 50.4316 28.8186 50.4316C28.8186 50.4316 31.3236 55.2304 31.3236 56.8443Z" fill="white" stroke="#393938" stroke-linecap="square" stroke-linejoin="round"/>
</svg>
