<svg width="62" height="82" viewBox="0 0 62 82" fill="none" xmlns="http://www.w3.org/2000/svg">
<g clip-path="url(#clip0_804_12325)">
<path d="M59.8776 27.982C59.8226 27.2662 59.2772 26.7175 58.6218 26.7175C58.6218 26.7175 43.1087 26.7004 42.881 26.3017C42.3238 25.3159 42.104 17.6176 41.8843 16.2975C41.7901 15.7317 41.3348 15.3202 40.809 15.3202H39.1058V11.7197C39.353 11.4753 39.6081 11.2353 39.875 10.9867C40.0869 10.7895 40.2988 10.5881 40.5146 10.3823C40.7854 10.4509 41.0562 10.5195 41.327 10.5838C42.414 10.8538 43.4422 11.111 44.545 11.4282C44.8354 11.5096 45.1297 11.6039 45.4397 11.7068C46.5111 12.0497 47.7277 12.4398 49.0266 12.4398C49.2935 12.4398 49.5604 12.4226 49.8154 12.3883C51.915 12.1183 54.1401 10.2966 54.0656 6.91897C54.0067 4.27859 52.1779 2.06685 49.8115 1.77538C49.5839 1.74537 49.3445 1.73251 49.1012 1.73251C47.4804 1.73251 45.7537 2.36689 44.231 2.9284C43.6071 3.15986 43.0145 3.37418 42.4651 3.53706C42.2885 3.58849 42.0962 3.65279 41.9039 3.7128C41.48 3.84996 40.9071 4.03856 40.6363 4.04284C40.5264 3.99998 40.2831 3.69565 40.1183 3.48991C39.7337 3.01412 39.2549 2.42261 38.4857 2.01541C37.5164 1.50534 36.2174 1.21387 34.9185 1.21387C33.6195 1.21387 32.4265 1.49248 31.4454 2.02398C30.7468 2.40118 30.2367 2.94983 29.7893 3.4299C29.6558 3.57563 29.5263 3.7128 29.4008 3.84139C28.2705 3.66565 27.156 3.27559 25.9826 2.85982C24.3893 2.29831 22.745 1.71965 21.0222 1.71965C20.72 1.71965 20.4218 1.7368 20.1314 1.77538C18.5891 1.96397 16.7917 3.39132 16.207 4.88725C15.5634 6.53748 15.6222 8.24773 16.3757 9.70079C17.1213 11.1367 18.5027 12.1654 19.9862 12.3883C20.2844 12.4312 20.5984 12.4569 20.9162 12.4569C22.6469 12.4569 24.3383 11.8011 25.8335 11.2224C26.4261 10.9953 26.9873 10.7767 27.4778 10.6309C27.6466 10.5795 27.8271 10.5195 28.0155 10.4509C28.4197 10.3095 28.9769 10.1166 29.2634 10.1166C29.2791 10.1166 29.287 10.1166 29.287 10.1166C29.4086 10.1466 29.5577 10.3437 29.7854 10.6695C30.0404 11.0296 30.3583 11.4796 30.8371 11.8268V15.3373C30.7351 15.3373 30.6291 15.3287 30.5231 15.3245C30.3151 15.3159 30.0993 15.303 29.8835 15.303C29.699 15.303 29.5381 15.3116 29.3851 15.3287C28.8867 15.3845 28.4903 15.8002 28.4157 16.3403C28.2274 17.7034 27.4778 26.5546 26.7126 26.6361C26.2769 26.6832 13.2911 26.7175 12.7731 26.7132C12.2551 26.7089 11.7371 26.7047 11.2308 26.7047C9.21762 26.7047 7.11807 26.7861 5.41096 27.3819C3.36243 28.0977 2.04776 29.4993 1.5062 31.5482C0.968555 33.5756 1.31783 51.9811 1.31783 51.9811C1.31783 52.5855 1.67887 53.1213 2.20866 53.297C4.26504 53.9828 6.92185 54.3643 9.68855 54.3643C12.1845 54.3643 14.5626 54.0428 16.3836 53.4556C16.7956 53.3227 17.1213 52.967 17.2391 52.5169C17.5413 51.3725 17.1253 44.7629 17.5295 43.97C17.6001 43.9014 24.7268 43.2799 26.3005 43.4085C27.4386 43.5028 28.6198 44 29.8756 44.5229C31.4336 45.1744 33.0426 45.8517 34.7968 45.8602H34.8321C36.4921 45.8602 38.0344 45.2087 39.5296 44.5786C40.8247 44.0343 42.0491 43.5156 43.3127 43.4042C44.388 43.3099 57.9664 43.4685 58.8455 43.4042C59.5205 43.357 60.0385 42.7355 60.0267 41.9983C59.9914 40.2752 60.0895 30.7424 59.8815 27.9906L59.8776 27.982Z" fill="#ABF15C" stroke="#ABF15C" stroke-miterlimit="10"/>
<path d="M12.6162 64.2534C11.6508 62.7274 10.7365 61.2872 10.2145 59.5084C10.0222 58.8483 9.66903 58.3939 9.1981 58.1882C8.95871 58.0853 8.69578 58.0639 8.44462 58.1282C8.2484 58.1796 8.09535 58.2654 7.98154 58.3425C7.60872 58.5054 7.31832 58.8612 7.22413 59.3069C6.8003 61.3001 5.99972 62.6074 5.06964 64.1205C4.86558 64.4505 4.65758 64.7934 4.44567 65.1492C3.2762 67.1381 -0.2793 73.1861 3.60585 77.7038C4.81848 79.114 6.63548 79.9242 8.58197 79.9242C10.5285 79.9242 12.5221 79.0626 13.825 77.5624C15.0925 76.105 15.7008 74.1591 15.5949 71.943C15.4379 68.7068 14.0016 66.4394 12.6123 64.2491L12.6162 64.2534Z" fill="#ABF15C" stroke="#ABF15C" stroke-miterlimit="10"/>
<path d="M60.6625 28.8394C60.6076 28.1236 60.0621 27.5749 59.4067 27.5749C59.4067 27.5749 43.8936 27.5578 43.666 27.1592C43.1087 26.1733 42.8889 18.4751 42.6692 17.1549C42.575 16.5891 42.1197 16.1776 41.5939 16.1776H39.8907V12.5771C40.1379 12.3328 40.393 12.0927 40.6599 11.8441C40.8718 11.6469 41.0837 11.4455 41.2995 11.2397C41.5703 11.3083 41.8411 11.3769 42.1119 11.4412C43.199 11.7112 44.2271 11.9684 45.3299 12.2856C45.6203 12.367 45.9146 12.4613 46.2247 12.5642C47.296 12.9071 48.5126 13.2972 49.8116 13.2972C50.0784 13.2972 50.3453 13.28 50.6004 13.2457C52.6999 12.9757 54.925 11.154 54.8505 7.77639C54.7916 5.13601 52.9628 2.92427 50.5964 2.6328C50.3688 2.60279 50.1294 2.58993 49.8861 2.58993C48.2653 2.58993 46.5386 3.22431 45.0159 3.78582C44.392 4.01728 43.7994 4.2316 43.25 4.39448C43.0734 4.44591 42.8811 4.51021 42.6888 4.57022C42.2649 4.70738 41.692 4.89598 41.4212 4.90026C41.3113 4.8574 41.068 4.55307 40.9032 4.34733C40.5186 3.87155 40.0398 3.28003 39.2706 2.87283C38.3013 2.36276 37.0023 2.07129 35.7034 2.07129C34.4044 2.07129 33.2114 2.3499 32.2303 2.8814C31.5317 3.2586 31.0216 3.80725 30.5742 4.28732C30.4408 4.43306 30.3113 4.57022 30.1857 4.69881C29.0555 4.52307 27.9409 4.13301 26.7675 3.71724C25.1742 3.15573 23.5299 2.57708 21.8071 2.57708C21.5049 2.57708 21.2067 2.59422 20.9163 2.6328C19.374 2.8214 17.5766 4.24874 16.9919 5.74467C16.3483 7.39491 16.4071 9.10515 17.1606 10.5582C17.9063 11.9941 19.2876 13.0229 20.7711 13.2457C21.0693 13.2886 21.3833 13.3143 21.7011 13.3143C23.4318 13.3143 25.1232 12.6585 26.6184 12.0799C27.211 11.8527 27.7722 11.6341 28.2627 11.4883C28.4315 11.4369 28.612 11.3769 28.8004 11.3083C29.2046 11.1669 29.7618 10.974 30.0483 10.974C30.064 10.974 30.0719 10.974 30.0719 10.974C30.1935 11.004 30.3427 11.2012 30.5703 11.5269C30.8253 11.887 31.1432 12.337 31.622 12.6842V16.1947C31.52 16.1947 31.414 16.1862 31.3081 16.1819C31.1001 16.1733 30.8842 16.1604 30.6684 16.1604C30.4839 16.1604 30.323 16.169 30.17 16.1862C29.6716 16.2419 29.2752 16.6577 29.2007 17.1977C29.0123 18.5608 28.2627 27.4121 27.4975 27.4935C27.0619 27.5406 14.0761 27.5749 13.558 27.5706C13.04 27.5664 12.522 27.5621 12.0157 27.5621C10.0025 27.5621 7.90299 27.6435 6.19588 28.2393C4.14735 28.9551 2.83267 30.3568 2.29111 32.4056C1.75347 34.4331 2.10274 52.8385 2.10274 52.8385C2.10274 53.4429 2.46378 53.9787 2.99357 54.1544C5.04996 54.8403 7.70677 55.2217 10.4735 55.2217C12.9694 55.2217 15.3476 54.9003 17.1685 54.313C17.5805 54.1802 17.9063 53.8244 18.024 53.3743C18.3262 52.2299 17.9102 45.6204 18.3144 44.8274C18.385 44.7588 25.5117 44.1373 27.0854 44.2659C28.2235 44.3602 29.4047 44.8574 30.6605 45.3803C32.2185 46.0319 33.8275 46.7091 35.5817 46.7177H35.617C37.2771 46.7177 38.8193 46.0661 40.3145 45.4361C41.6096 44.8917 42.834 44.373 44.0976 44.2616C45.1729 44.1673 58.7513 44.3259 59.6304 44.2616C60.3054 44.2145 60.8234 43.5929 60.8116 42.8557C60.7763 41.1326 60.8744 31.5998 60.6664 28.848L60.6625 28.8394Z" fill="white" stroke="#393938" stroke-miterlimit="10"/>
<path d="M13.4012 65.1108C12.4358 63.5848 11.5214 62.1446 10.9994 60.3658C10.8071 59.7057 10.4539 59.2514 9.98301 59.0456C9.74363 58.9428 9.48069 58.9213 9.22953 58.9856C9.03331 59.037 8.88026 59.1228 8.76645 59.1999C8.39364 59.3628 8.10323 59.7186 8.00905 60.1644C7.58521 62.1575 6.78464 63.4648 5.85456 64.9779C5.65049 65.3079 5.44249 65.6509 5.23058 66.0066C4.06111 67.9955 0.505612 74.0435 4.39076 78.5613C5.60339 79.9715 7.42039 80.7816 9.36688 80.7816C11.3134 80.7816 13.307 79.92 14.6099 78.4198C15.8774 76.9625 16.4857 75.0165 16.3798 72.8004C16.2228 69.5643 14.7865 67.2968 13.3972 65.1065L13.4012 65.1108Z" fill="white" stroke="#393938" stroke-miterlimit="10"/>
</g>
<defs>
<clipPath id="clip0_804_12325">
<rect width="62" height="82" fill="white"/>
</clipPath>
</defs>
</svg>
