<svg width="92" height="80" viewBox="0 0 92 80" fill="none" xmlns="http://www.w3.org/2000/svg">
<g clip-path="url(#clip0_402_8329)">
<path d="M31.25 17.2649L35.4018 4.34258L54.4887 10.7988" fill="#ABF15C"/>
<path d="M31.25 17.2649L35.4018 4.34258L54.4887 10.7988" stroke="#ABF15C" stroke-width="0.7" stroke-miterlimit="10"/>
<path d="M38.2236 22.229L39.9242 22.8044L36.0669 34.8392L28.4664 58.5479L27.7158 60.8983L45.4346 66.8865L64.0559 73.1672L76.2643 35.0732L85.689 38.2526L90.5819 22.9799L88.8812 22.4045L70.1079 16.0653L69.9464 16.5919C69.4713 18.0646 68.4073 19.2934 66.9536 20.0541C65.1485 20.9904 62.9159 21.1172 60.8257 20.415C58.7451 19.7128 57.0349 18.2499 56.1229 16.3969C55.7333 15.6069 55.5053 14.7877 55.4483 13.9587" fill="#ABF15C"/>
<path d="M38.2236 22.229L39.9242 22.8044L36.0669 34.8392L28.4664 58.5479L27.7158 60.8983L45.4346 66.8865L64.0559 73.1672L76.2643 35.0732L85.689 38.2526L90.5819 22.9799L88.8812 22.4045L70.1079 16.0653L69.9464 16.5919C69.4713 18.0646 68.4073 19.2934 66.9536 20.0541C65.1485 20.9904 62.9159 21.1172 60.8257 20.415C58.7451 19.7128 57.0349 18.2499 56.1229 16.3969C55.7333 15.6069 55.5053 14.7877 55.4483 13.9587" stroke="#ABF15C" stroke-width="0.7" stroke-miterlimit="10"/>
<path d="M50.1846 65.5211C45.9378 54.3835 42.527 47.5177 38.4512 41.8806L36.4086 34.6051L35.9051 34.7417C31.2497 35.99 26.6134 37.2383 21.958 38.4964L2.34863 43.7824L2.47214 44.309C2.89967 46.123 3.3177 47.9468 3.73573 49.7705L3.77374 49.9461C3.85924 50.2874 3.94475 50.6385 4.02075 50.9896V51.0871C3.2132 57.6799 2.47214 67.6179 5.18934 77.7509L5.27484 78.0825L5.60737 78.141C7.66902 78.5312 9.84467 78.7165 12.0583 78.7165C17.1127 78.7165 22.3286 77.7314 26.6514 75.8784L27.0409 75.7126L26.9744 75.2835C26.2334 70.6607 25.4828 65.7844 24.9318 60.9861C26.7844 65.5503 28.5135 70.2901 29.9956 74.4643L30.1381 74.8739L30.5562 74.8251C37.1496 74.0352 44.7977 70.6315 50.0326 66.155L50.3271 65.9014L50.1846 65.5308V65.5211Z" fill="#ABF15C" stroke="#ABF15C" stroke-width="0.7" stroke-miterlimit="10"/>
<path d="M69.1577 13.1395L68.9867 13.6661C68.5116 15.1485 67.4571 16.3774 65.994 17.1283C64.1888 18.0646 61.9562 18.1914 59.866 17.4892C57.7854 16.787 56.0752 15.3338 55.1632 13.4808C54.4221 11.9789 54.2796 10.3405 54.7546 8.86781L54.9257 8.35092L34.4517 1.41677L29.5493 16.6895L38.974 19.8786L26.7656 57.9725L63.1057 70.2414L75.3141 32.1474L84.7388 35.3268L89.6317 20.0541L69.1577 13.1395Z" fill="white" stroke="#393938" stroke-width="0.7" stroke-miterlimit="10"/>
<path d="M49.2354 63.5705C44.9886 52.433 41.5778 45.5671 37.502 39.9301L35.4594 32.6546L34.9558 32.7911C30.3005 34.0395 25.6642 35.2878 21.0088 36.5459L1.39941 41.8318L1.52292 42.3585C1.95045 44.1725 2.36848 45.9962 2.78651 47.82L2.82452 47.9955C2.91002 48.3369 2.99553 48.688 3.07153 49.0391V49.1366C2.26398 55.7294 1.52292 65.6674 4.24012 75.8004L4.32563 76.132L4.65815 76.1905C6.7198 76.5806 8.89545 76.7659 11.1091 76.7659C16.1635 76.7659 21.3794 75.7809 25.7022 73.9279L26.0917 73.7621L26.0252 73.333C25.2841 68.7102 24.5336 63.8339 23.9825 59.0356C25.8352 63.5998 27.5643 68.3396 29.0464 72.5137L29.1889 72.9234L29.6069 72.8746C36.2004 72.0846 43.8485 68.6809 49.0834 64.2045L49.3779 63.9509L49.2354 63.5803V63.5705Z" fill="white" stroke="#393938" stroke-width="0.7" stroke-miterlimit="10"/>
</g>
<defs>
<clipPath id="clip0_402_8329">
<rect width="92" height="80" fill="white"/>
</clipPath>
</defs>
</svg>
