<svg width="56" height="82" viewBox="0 0 56 82" fill="none" xmlns="http://www.w3.org/2000/svg">
<g clip-path="url(#clip0_937_12739)">
<path d="M52.0487 54.3418C47.9549 60.256 40.0336 62.1981 32.4795 62.5404L34.0582 80.8678H23.0436L24.627 62.4489C23.2272 62.3573 21.8366 62.2141 20.4506 61.9753C1.72583 58.7794 1.82221 42.6012 6.38867 29.6625C8.67878 23.1753 11.9143 16.911 15.7098 10.9889C16.9673 9.02282 18.289 7.08461 19.7668 5.23794C23.0803 1.09487 30.2031 0.585447 35.3203 2.54753C36.3162 2.9296 37.2387 3.53853 38.1015 4.29471C41.3875 7.19207 43.7235 12.2823 45.4675 15.3309C49.1069 21.6868 52.2001 28.4049 53.8707 35.3697C55.3439 41.5346 55.9451 48.7183 52.0487 54.3418Z" fill="#ABF15C" stroke="#ABF15C" stroke-miterlimit="10"/>
<path d="M49.2049 54.8985C45.1112 60.8126 37.1899 62.7548 29.6357 63.0971L31.2145 81.4245H20.1999L21.7832 63.0055C20.3835 62.914 18.9929 62.7707 17.6069 62.5319C-1.11792 59.3361 -1.02154 43.1578 3.54492 30.2192C5.83503 23.732 9.07057 17.4676 12.866 11.5455C14.1235 9.57946 15.4453 7.64125 16.923 5.79458C20.2366 1.65151 27.3594 1.14209 32.4765 3.10417C33.4724 3.48624 34.3949 4.09517 35.2577 4.85135C38.5437 7.74871 40.8798 12.839 42.6237 15.8876C46.2631 22.2435 49.3564 28.9615 51.0269 35.9263C52.5001 42.0912 53.1014 49.2749 49.2049 54.8985Z" fill="white" stroke="#393938" stroke-miterlimit="10"/>
<path d="M33.97 49.0939L33.4285 48.6273L28.7062 51.4153L26.6778 28H24.8421L23.6351 41.944L19.5415 39.5317L19 39.9983L23.3322 45.4517L22.1711 58.8776L19.5415 57.3274L19 57.7941L21.9417 61.4956L20.2529 80.9918H31.267L29.0412 55.2987L33.97 49.0939Z" fill="white" stroke="#393938" stroke-miterlimit="10"/>
</g>
<defs>
<clipPath id="clip0_937_12739">
<rect width="56" height="82" fill="white"/>
</clipPath>
</defs>
</svg>
