<svg width="40" height="80" viewBox="0 0 40 80" fill="none" xmlns="http://www.w3.org/2000/svg">
<g clip-path="url(#clip0_402_8227)">
<path d="M39.5596 73.8308C39.5596 76.0301 38.0907 77.8115 36.2652 77.8115H6.93104C5.11602 77.8115 3.63672 76.0301 3.63672 73.8308L3.63672 4.3655C3.64721 2.16619 5.11602 0.384743 6.93104 0.384743L36.2757 0.384743C38.0907 0.384743 39.57 2.16619 39.57 4.3655L39.57 73.8418L39.5596 73.8308Z" fill="#ABF15C" stroke="#ABF15C" stroke-width="0.7" stroke-miterlimit="10"/>
<path d="M36.29 75.6344C36.29 77.8337 34.8212 79.6151 32.9957 79.6151H3.66151C1.84649 79.6151 0.367188 77.8337 0.367188 75.6344L0.367188 6.15808C0.367188 3.96976 1.83599 2.18832 3.66151 2.18832L32.9957 2.18832C34.8107 2.18832 36.29 3.96976 36.29 6.16907L36.29 75.6454V75.6344Z" fill="white" stroke="#393938" stroke-width="0.7" stroke-miterlimit="10"/>
<path d="M6.89334 8.74227C4.74259 10.9966 4.74259 14.6584 6.89334 16.9127L14.6885 8.74227C12.5378 6.48797 9.04409 6.48797 6.89334 8.74227Z" fill="white" stroke="#393938" stroke-width="0.5" stroke-miterlimit="10"/>
<path d="M14.6877 16.9127C16.8385 14.6584 16.8385 10.9966 14.6877 8.74227L6.89258 16.9127C9.04333 19.167 12.537 19.167 14.6877 16.9127Z" fill="white" stroke="#393938" stroke-width="0.5" stroke-miterlimit="10"/>
<path d="M6.89334 22.7739C4.74259 25.0282 4.74259 28.69 6.89334 30.9443L14.6885 22.7739C12.5378 20.5196 9.04409 20.5196 6.89334 22.7739Z" fill="white" stroke="#393938" stroke-width="0.5" stroke-miterlimit="10"/>
<path d="M14.6877 30.9443C16.8385 28.69 16.8385 25.0282 14.6877 22.7739L6.89258 30.9443C9.04333 33.1986 12.537 33.1986 14.6877 30.9443Z" fill="white" stroke="#393938" stroke-width="0.5" stroke-miterlimit="10"/>
<path d="M6.89334 36.8055C4.74259 39.0598 4.74259 42.7217 6.89334 44.9759L14.6885 36.8055C12.5378 34.5512 9.04409 34.5512 6.89334 36.8055Z" fill="white" stroke="#393938" stroke-width="0.5" stroke-miterlimit="10"/>
<path d="M14.6877 44.9869C16.8385 42.7326 16.8385 39.0708 14.6877 36.8165L6.89258 44.9869C9.04333 47.2412 12.537 47.2412 14.6877 44.9869Z" fill="white" stroke="#393938" stroke-width="0.5" stroke-miterlimit="10"/>
<path d="M6.89334 50.8481C4.74259 53.1024 4.74259 56.7643 6.89334 59.0186L14.6885 50.8481C12.5378 48.5938 9.04409 48.5938 6.89334 50.8481Z" fill="white" stroke="#393938" stroke-width="0.5" stroke-miterlimit="10"/>
<path d="M14.6877 59.0186C16.8385 56.7643 16.8385 53.1024 14.6877 50.8481L6.89258 59.0186C9.04333 61.2729 12.537 61.2729 14.6877 59.0186Z" fill="white" stroke="#393938" stroke-width="0.5" stroke-miterlimit="10"/>
<path d="M6.89334 64.8797C4.74259 67.134 4.74259 70.7959 6.89334 73.0502L14.6885 64.8797C12.5378 62.6254 9.04409 62.6254 6.89334 64.8797Z" fill="white" stroke="#393938" stroke-width="0.5" stroke-miterlimit="10"/>
<path d="M14.6877 73.0502C16.8385 70.7959 16.8385 67.134 14.6877 64.8797L6.89258 73.0502C9.04333 75.3045 12.537 75.3045 14.6877 73.0502Z" fill="white" stroke="#393938" stroke-width="0.5" stroke-miterlimit="10"/>
<path d="M21.9588 8.74227C19.808 10.9966 19.808 14.6584 21.9588 16.9127L29.7539 8.74227C27.6032 6.48797 24.1095 6.48797 21.9588 8.74227Z" fill="white" stroke="#393938" stroke-width="0.5" stroke-miterlimit="10"/>
<path d="M29.7542 16.9127C31.9049 14.6584 31.9049 10.9966 29.7542 8.74227L21.959 16.9127C24.1097 19.167 27.6034 19.167 29.7542 16.9127Z" fill="white" stroke="#393938" stroke-width="0.5" stroke-miterlimit="10"/>
<path d="M21.9588 22.7739C19.808 25.0282 19.808 28.69 21.9588 30.9443L29.7539 22.7739C27.6032 20.5196 24.1095 20.5196 21.9588 22.7739Z" fill="white" stroke="#393938" stroke-width="0.5" stroke-miterlimit="10"/>
<path d="M29.7542 30.9443C31.9049 28.69 31.9049 25.0282 29.7542 22.7739L21.959 30.9443C24.1097 33.1986 27.6034 33.1986 29.7542 30.9443Z" fill="white" stroke="#393938" stroke-width="0.5" stroke-miterlimit="10"/>
<path d="M21.9588 36.8055C19.808 39.0598 19.808 42.7217 21.9588 44.9759L29.7539 36.8055C27.6032 34.5512 24.1095 34.5512 21.9588 36.8055Z" fill="white" stroke="#393938" stroke-width="0.5" stroke-miterlimit="10"/>
<path d="M29.7542 44.9869C31.9049 42.7326 31.9049 39.0708 29.7542 36.8165L21.959 44.9869C24.1097 47.2412 27.6034 47.2412 29.7542 44.9869Z" fill="white" stroke="#393938" stroke-width="0.5" stroke-miterlimit="10"/>
<path d="M21.9588 50.8481C19.808 53.1024 19.808 56.7643 21.9588 59.0186L29.7539 50.8481C27.6032 48.5938 24.1095 48.5938 21.9588 50.8481Z" fill="white" stroke="#393938" stroke-width="0.5" stroke-miterlimit="10"/>
<path d="M29.7542 59.0186C31.9049 56.7643 31.9049 53.1024 29.7542 50.8481L21.959 59.0186C24.1097 61.2729 27.6034 61.2729 29.7542 59.0186Z" fill="white" stroke="#393938" stroke-width="0.5" stroke-miterlimit="10"/>
<path d="M21.9588 64.8797C19.808 67.134 19.808 70.7959 21.9588 73.0502L29.7539 64.8797C27.6032 62.6254 24.1095 62.6254 21.9588 64.8797Z" fill="white" stroke="#393938" stroke-width="0.5" stroke-miterlimit="10"/>
<path d="M29.7542 73.0502C31.9049 70.7959 31.9049 67.134 29.7542 64.8797L21.959 73.0502C24.1097 75.3045 27.6034 75.3045 29.7542 73.0502Z" fill="white" stroke="#393938" stroke-width="0.5" stroke-miterlimit="10"/>
</g>
<defs>
<clipPath id="clip0_402_8227">
<rect width="40" height="80" fill="white"/>
</clipPath>
</defs>
</svg>
