<svg width="30" height="80" viewBox="0 0 30 80" fill="none" xmlns="http://www.w3.org/2000/svg">
<g clip-path="url(#clip0_402_8170)">
<path d="M29.3785 75.5042V76.119C29.3785 76.7914 27.5254 77.7713 25.239 78.1075C19.4308 78.8952 13.5396 78.8952 7.73132 78.1075C5.4449 77.7713 3.5918 76.7914 3.5918 76.119V75.5042C4.01589 75.7252 4.5414 75.9365 5.12222 76.119C5.67539 76.2919 6.28387 76.4168 6.92001 76.5129C8.22917 76.6954 9.53832 76.8299 10.829 76.9259C15.9089 77.339 21.0073 77.1949 26.0687 76.5129C27.3871 76.3208 28.5672 75.9365 29.3877 75.5042H29.3785Z" fill="#ABF15C" stroke="#ABF15C" stroke-width="0.7" stroke-miterlimit="10"/>
<path d="M30.5864 22.5455V74.3515C30.5864 74.6877 30.1255 75.12 29.3787 75.5042C28.5582 75.9365 27.3781 76.3208 26.0597 76.5129C21.0075 77.1853 15.8999 77.3294 10.82 76.9259C9.52005 76.8299 8.22011 76.6954 6.91096 76.5129C6.27482 76.4168 5.67555 76.2823 5.11317 76.119C4.53234 75.9365 4.01606 75.7252 3.58274 75.5042C2.82675 75.12 2.375 74.6973 2.375 74.3515V22.5455C2.375 22.0268 2.50407 21.1911 2.6608 20.7012L4.28342 15.6291L4.43093 15.1872C4.52313 15.216 4.62454 15.216 4.71673 15.216C5.06707 15.1872 5.42663 15.1776 5.76775 15.168C6.44076 15.1392 7.11378 15.12 7.77758 15.0912C8.88391 15.0527 9.99946 15.0143 11.1058 15.0047C11.6866 14.9759 12.249 14.9759 12.8298 14.9663C13.1617 14.9663 13.5028 14.9567 13.8347 14.9567C14.0283 15.1968 14.2404 15.4178 14.4617 15.5715C14.812 15.8212 15.1439 16.0806 15.4942 16.3111C16.2963 16.8683 16.6651 16.8491 17.4488 16.2823C17.753 16.0614 18.0665 15.8404 18.3891 15.6099C18.6104 15.437 18.8317 15.216 19.0253 14.9567C22.0953 14.9855 25.1654 15.0623 28.2078 15.2064H28.2908C28.3646 15.2064 28.4383 15.2064 28.5121 15.1776L28.6504 15.6195L30.273 20.6916C30.4389 21.1815 30.5588 22.0172 30.5588 22.5359L30.5864 22.5455Z" fill="#ABF15C" stroke="#ABF15C" stroke-width="0.7" stroke-miterlimit="10"/>
<path d="M13.8621 14.9471C13.5302 14.9471 13.1891 14.9567 12.8572 14.9567C12.2763 14.9663 11.714 14.9663 11.1331 14.9951C10.0268 15.0047 8.91125 15.0431 7.80492 15.0816C7.13191 15.1104 6.45889 15.1296 5.79509 15.1584C5.44475 15.168 5.08519 15.1872 4.74408 15.2064C4.65188 15.2064 4.55047 15.2064 4.45827 15.1776C3.84057 15.1008 3.35194 14.6973 3.31507 14.1498C3.26897 13.5446 3.84979 13.0162 4.59657 12.997C5.68446 12.949 6.78157 12.901 7.87868 12.8721C7.96165 12.8625 8.04463 12.8625 8.13682 12.8625C9.68569 12.8145 11.253 12.7665 12.8019 12.7569C12.8756 13.1219 13.0139 13.5158 13.2075 13.9288C13.2997 14.1209 13.4196 14.3131 13.5302 14.4956C13.6316 14.6493 13.7515 14.8126 13.8805 14.9567L13.8621 14.9471Z" fill="#ABF15C" stroke="#ABF15C" stroke-width="0.7" stroke-miterlimit="10"/>
<path d="M29.6735 14.1594C29.6366 14.6877 29.1572 15.1104 28.5395 15.1872C28.4658 15.216 28.392 15.216 28.3183 15.216H28.2353C25.1929 15.0719 22.1136 14.9855 19.0527 14.9663C19.1818 14.8222 19.2832 14.6685 19.3846 14.5052C19.5137 14.3227 19.6243 14.1305 19.7165 13.9384C19.9101 13.5254 20.0669 13.1219 20.113 12.7569C22.8788 12.8049 25.6354 12.8914 28.3828 13.0066C29.1388 13.0354 29.7104 13.5638 29.6643 14.1594H29.6735Z" fill="#ABF15C" stroke="#ABF15C" stroke-width="0.7" stroke-miterlimit="10"/>
<path d="M18.2512 0.432186C17.0803 0.2977 15.9094 0.2977 14.7478 0.432186C12.9869 0.67234 11.4749 2.66081 11.4933 4.44756C11.7146 7.25255 12.1203 8.94323 12.6181 11.729C12.6734 12.0268 12.7195 12.3438 12.7841 12.68C12.7841 12.7088 12.7933 12.7281 12.7933 12.7569C12.867 13.1219 13.0053 13.5158 13.1989 13.9288C13.2911 14.1209 13.411 14.3131 13.5216 14.4956C13.623 14.6493 13.7429 14.8126 13.8719 14.9567C14.0656 15.1968 14.2776 15.4178 14.4989 15.5715C14.8492 15.8212 15.1811 16.0806 15.5314 16.3112C16.3335 16.8683 16.7023 16.8491 17.486 16.2823C17.7902 16.0614 18.1037 15.8404 18.4263 15.6099C18.6476 15.437 18.8689 15.216 19.0625 14.9567C19.1915 14.8126 19.293 14.6589 19.3944 14.4956C19.5234 14.3131 19.6341 14.1209 19.7263 13.9288C19.9199 13.5158 20.0766 13.1123 20.1227 12.7473C20.1319 12.7377 20.1319 12.7088 20.1319 12.6992C20.1872 12.3534 20.261 12.0364 20.3163 11.7194C20.8234 8.93363 21.2567 7.24295 21.4872 4.44756C21.5333 2.66081 20.0305 0.681946 18.2604 0.432186H18.2512ZM20.2333 5.2929C20.2333 6.90673 18.9518 8.21317 17.3384 8.21317H15.6421C14.0471 8.21317 12.7472 6.90673 12.7472 5.2929V4.55322C12.7472 2.949 14.0471 1.65217 15.6421 1.65217H17.3384C18.9426 1.65217 20.2333 2.9586 20.2333 4.55322V5.2929Z" fill="#ABF15C" stroke="#ABF15C" stroke-width="0.7" stroke-miterlimit="10"/>
<path d="M27.318 76.4649V77.0797C27.318 77.7522 25.4649 78.732 23.1785 79.0682C17.3702 79.8559 11.479 79.8559 5.67077 79.0682C3.38435 78.732 1.53125 77.7522 1.53125 77.0797V76.4649C1.95534 76.6859 2.48085 76.8972 3.06167 77.0797C3.61484 77.2526 4.22332 77.3775 4.85946 77.4736C6.16862 77.6561 7.47778 77.7906 8.7685 77.8866C13.8484 78.2997 18.9467 78.1556 24.0082 77.4736C25.3266 77.2815 26.5067 76.8972 27.3272 76.4649H27.318Z" fill="white" stroke="#393938" stroke-width="0.7" stroke-miterlimit="10"/>
<path d="M28.5161 23.5062V75.3122C28.5161 75.6484 28.0551 76.0807 27.3084 76.4649C26.4878 76.8972 25.3078 77.2815 23.9894 77.4736C18.9371 78.146 13.8296 78.2901 8.74968 77.8867C7.44974 77.7906 6.1498 77.6561 4.84064 77.4736C4.2045 77.3775 3.60524 77.243 3.04286 77.0797C2.46203 76.8972 1.94574 76.6859 1.51243 76.4649C0.756439 76.0807 0.304688 75.658 0.304688 75.3122V23.5062C0.304688 22.9875 0.433759 22.1518 0.59049 21.6619L2.21311 16.5898L2.36062 16.1479C2.45281 16.1768 2.55423 16.1768 2.64642 16.1768C2.99676 16.1479 3.35632 16.1383 3.69743 16.1287C4.37045 16.0999 5.04347 16.0807 5.70727 16.0519C6.8136 16.0134 7.92915 15.975 9.03548 15.9654C9.6163 15.9366 10.1787 15.9366 10.7595 15.927C11.0914 15.927 11.4325 15.9174 11.7644 15.9174C11.958 16.1575 12.1701 16.3785 12.3913 16.5322C12.7417 16.7819 13.0736 17.0413 13.4239 17.2719C14.226 17.829 14.5948 17.8098 15.3784 17.243C15.6827 17.0221 15.9961 16.8012 16.3188 16.5706C16.5401 16.3977 16.7614 16.1768 16.955 15.9174C20.025 15.9462 23.0951 16.0231 26.1375 16.1671H26.2205C26.2942 16.1671 26.368 16.1671 26.4417 16.1383L26.58 16.5802L28.2027 21.6523C28.3686 22.1422 28.4885 22.9779 28.4885 23.4966L28.5161 23.5062Z" fill="white" stroke="#393938" stroke-width="0.7" stroke-miterlimit="10"/>
<path d="M11.8015 15.9078C11.4696 15.9078 11.1285 15.9174 10.7966 15.9174C10.2158 15.927 9.65341 15.927 9.07259 15.9558C7.96626 15.9654 6.85071 16.0038 5.74438 16.0423C5.07136 16.0711 4.39834 16.0903 3.73454 16.1191C3.38421 16.1287 3.02465 16.1479 2.68353 16.1671C2.59133 16.1671 2.48992 16.1671 2.39773 16.1383C1.78003 16.0615 1.2914 15.658 1.25452 15.1105C1.20842 14.5053 1.78925 13.9769 2.53602 13.9577C3.62391 13.9097 4.72102 13.8617 5.81813 13.8328C5.90111 13.8232 5.98408 13.8232 6.07628 13.8232C7.62514 13.7752 9.19244 13.7272 10.7413 13.7176C10.8151 14.0826 10.9534 14.4765 11.147 14.8895C11.2392 15.0816 11.359 15.2738 11.4696 15.4563C11.5711 15.61 11.6909 15.7733 11.82 15.9174L11.8015 15.9078Z" fill="white" stroke="#393938" stroke-width="0.7" stroke-miterlimit="10"/>
<path d="M27.6032 15.1201C27.5663 15.6484 27.0869 16.0711 26.4692 16.1479C26.3955 16.1767 26.3217 16.1767 26.2479 16.1767H26.165C23.1226 16.0327 20.0433 15.9462 16.9824 15.927C17.1115 15.7829 17.2129 15.6292 17.3143 15.4659C17.4434 15.2834 17.554 15.0913 17.6462 14.8991C17.8398 14.4861 17.9966 14.0826 18.0427 13.7176C20.8085 13.7656 23.5651 13.8521 26.3125 13.9673C27.0685 13.9962 27.6401 14.5245 27.594 15.1201H27.6032Z" fill="white" stroke="#393938" stroke-width="0.7" stroke-miterlimit="10"/>
<path d="M16.1896 1.39289C15.0188 1.25841 13.8479 1.25841 12.6863 1.39289C10.9254 1.63305 9.41337 3.62152 9.43181 5.40826C9.65307 8.21326 10.0587 9.90394 10.5566 12.6897C10.6119 12.9875 10.658 13.3045 10.7225 13.6407C10.7225 13.6696 10.7317 13.6888 10.7317 13.7176C10.8055 14.0826 10.9438 14.4765 11.1374 14.8895C11.2296 15.0817 11.3494 15.2738 11.4601 15.4563C11.5615 15.61 11.6813 15.7733 11.8104 15.9174C12.004 16.1575 12.2161 16.3785 12.4373 16.5322C12.7877 16.7819 13.1196 17.0413 13.4699 17.2719C14.272 17.829 14.6408 17.8098 15.4244 17.243C15.7287 17.0221 16.0421 16.8012 16.3648 16.5706C16.5861 16.3977 16.8073 16.1768 17.001 15.9174C17.13 15.7733 17.2314 15.6196 17.3329 15.4563C17.4619 15.2738 17.5726 15.0817 17.6648 14.8895C17.8584 14.4765 18.0151 14.073 18.0612 13.708C18.0704 13.6984 18.0704 13.6696 18.0704 13.6599C18.1257 13.3141 18.1995 12.9971 18.2548 12.6801C18.7619 9.89434 19.1952 8.20365 19.4257 5.40826C19.4718 3.62152 17.969 1.64265 16.1989 1.39289H16.1896ZM18.1718 6.25361C18.1718 7.86744 16.8903 9.17388 15.2769 9.17388H13.5805C11.9856 9.17388 10.6856 7.86744 10.6856 6.25361V5.51393C10.6856 3.90971 11.9856 2.61288 13.5805 2.61288H15.2769C16.8811 2.61288 18.1718 3.91931 18.1718 5.51393V6.25361Z" fill="white" stroke="#393938" stroke-width="0.7" stroke-miterlimit="10"/>
</g>
<defs>
<clipPath id="clip0_402_8170">
<rect width="30" height="80" fill="white"/>
</clipPath>
</defs>
</svg>
