<svg width="60" height="80" viewBox="0 0 60 80" fill="none" xmlns="http://www.w3.org/2000/svg">
<path d="M59.5702 0.808083H2.81348V78.3838H59.5702V0.808083Z" fill="#ABF15C" stroke="#ABF15C" stroke-width="0.7" stroke-miterlimit="10"/>
<path d="M57.6253 4.04041H0.810547V79.0038H57.6253V4.04041Z" fill="white" stroke="#393938" stroke-width="0.7" stroke-miterlimit="10"/>
<path d="M53.704 7.77063H3.9834V19.3395H53.704V7.77063Z" fill="white" stroke="#393938" stroke-width="0.5" stroke-miterlimit="10"/>
<path d="M53.704 22.2379H3.9834V23.4959H53.704V22.2379Z" fill="white" stroke="#393938" stroke-width="0.5" stroke-miterlimit="10"/>
<path d="M53.704 52.7634H3.9834V54.0215H53.704V52.7634Z" fill="white" stroke="#393938" stroke-width="0.5" stroke-miterlimit="10"/>
<path d="M53.7043 30.008H24.5654V31.2661H53.7043V30.008Z" fill="white" stroke="#393938" stroke-width="0.5" stroke-miterlimit="10"/>
<path d="M53.7043 37.2232H24.5654V38.4812H53.7043V37.2232Z" fill="white" stroke="#393938" stroke-width="0.5" stroke-miterlimit="10"/>
<path d="M53.7043 44.4506H24.5654V45.7086H53.7043V44.4506Z" fill="white" stroke="#393938" stroke-width="0.5" stroke-miterlimit="10"/>
<path d="M23.2495 26.3819H3.9834V45.7086H23.2495V26.3819Z" fill="white" stroke="#393938" stroke-width="0.5" stroke-miterlimit="10"/>
<path d="M33.1223 60.5336H3.9834V61.7916H33.1223V60.5336Z" fill="white" stroke="#393938" stroke-width="0.5" stroke-miterlimit="10"/>
<path d="M33.1223 67.761H3.9834V69.0191H33.1223V67.761Z" fill="white" stroke="#393938" stroke-width="0.5" stroke-miterlimit="10"/>
<path d="M33.1223 74.9885H3.9834V76.2465H33.1223V74.9885Z" fill="white" stroke="#393938" stroke-width="0.5" stroke-miterlimit="10"/>
<path d="M53.7046 56.9199H34.4385V76.2466H53.7046V56.9199Z" fill="white" stroke="#393938" stroke-width="0.5" stroke-miterlimit="10"/>
</svg>
