<svg width="50" height="80" viewBox="0 0 50 80" fill="none" xmlns="http://www.w3.org/2000/svg">
<g clip-path="url(#clip0_402_8137)">
<path d="M47.5284 23.8932C33.4864 22.6069 19.3877 22.6173 5.3457 23.9559C5.92464 23.2134 6.7306 22.3768 7.7409 21.7284C9.25066 20.7663 12.9967 18.8525 16.9698 17.0223C20.7499 15.2654 22.3845 12.5882 22.271 10.4443C22.2596 10.3501 22.2483 10.2456 22.2369 10.1201C22.2369 9.97366 22.2029 9.79588 22.1688 9.60764C22.1688 9.4926 22.1348 9.3671 22.1121 9.24161H30.8188C30.7961 9.3671 30.7733 9.4926 30.762 9.60764C30.7279 9.79588 30.7052 9.97366 30.6939 10.1201C30.6825 10.2456 30.6712 10.3501 30.6598 10.4443C30.5463 12.5882 32.181 15.2654 35.961 17.0223C39.9228 18.8525 43.6802 20.7663 45.1899 21.7284C46.1775 22.3559 46.9608 23.1716 47.5284 23.8932Z" fill="#ABF15C" stroke="#ABF15C" stroke-width="0.7" stroke-miterlimit="10"/>
<path d="M47.4141 29.9064V33.8909C33.4516 33.3262 19.4891 33.3262 5.52661 33.8909V31.4019L5.50391 29.896C19.5913 28.9652 33.3154 28.9652 47.4141 29.9064Z" fill="#ABF15C" stroke="#ABF15C" stroke-width="0.7" stroke-miterlimit="10"/>
<path d="M5.51562 59.1363V39.6531C19.4895 39.0989 33.452 39.0989 47.4145 39.6531V59.1363C33.4633 60.0671 19.4668 60.0671 5.51562 59.1363Z" fill="#ABF15C" stroke="#ABF15C" stroke-width="0.7" stroke-miterlimit="10"/>
<path d="M48.6744 74.3213C48.2658 75.7959 45.5754 77.9293 43.5548 78.5359C40.5126 79.4457 26.4593 79.247 26.4593 79.247C26.4593 79.247 12.4173 79.4457 9.37508 78.5359C7.35449 77.9293 4.67551 75.7959 4.2555 74.3213C4.01711 73.4847 3.84684 69.8558 4.2555 69.1342C4.43712 68.81 4.69821 68.5381 4.94795 68.3499C5.32255 68.0466 5.51553 67.5969 5.51553 67.1263V64.8987C19.4667 65.8399 33.4632 65.8399 47.4144 64.8987V67.2936C47.4144 67.691 47.6074 68.057 47.9366 68.308C48.1977 68.5067 48.4928 68.7891 48.6744 69.1342C49.0831 69.8558 48.9128 73.4847 48.6744 74.3213Z" fill="#ABF15C" stroke="#ABF15C" stroke-width="0.7" stroke-miterlimit="10"/>
<path d="M48.6748 25.5978V28.16L47.4147 29.9064C33.316 28.9652 19.5919 28.9652 5.50454 29.896L4.25586 28.16V25.5978C4.25586 25.5978 4.25586 25.5873 4.26721 25.5664C4.34667 25.4095 4.72128 24.7507 5.34562 23.9559C19.3876 22.6172 33.4863 22.6068 47.5283 23.8931C48.198 24.7088 48.5726 25.4095 48.6634 25.5664C48.6748 25.5873 48.6748 25.5978 48.6748 25.5978Z" fill="#ABF15C" stroke="#ABF15C" stroke-width="0.7" stroke-linecap="round" stroke-linejoin="round"/>
<path d="M48.6748 35.5433V38.1055C48.2548 38.6179 47.8348 39.1408 47.4147 39.6532C33.4522 39.099 19.4897 39.099 5.52724 39.6532H5.51589C5.09588 39.1408 4.67587 38.6179 4.25586 38.1055V35.5433C4.67587 34.989 5.09588 34.4452 5.51589 33.8909H5.52724C19.4897 33.3262 33.4522 33.3262 47.4147 33.8909C47.8348 34.4452 48.2548 34.989 48.6748 35.5433Z" fill="#ABF15C" stroke="#ABF15C" stroke-width="0.7" stroke-linecap="round" stroke-linejoin="round"/>
<path d="M48.6748 60.6528V63.215C48.2548 63.7797 47.8348 64.3445 47.4147 64.8987C33.4636 65.8399 19.467 65.8399 5.51589 64.8987C5.09588 64.3445 4.67587 63.7797 4.25586 63.215V60.6528C4.67587 60.1508 5.09588 59.6384 5.51589 59.1364C19.467 60.0672 33.4636 60.0672 47.4147 59.1364C47.8348 59.6384 48.2548 60.1508 48.6748 60.6528Z" fill="#ABF15C" stroke="#ABF15C" stroke-width="0.7" stroke-linecap="round" stroke-linejoin="round"/>
<path d="M31.8063 9.24153H21.1244C20.6703 6.53292 19.8871 1.92096 20.2163 1.61768C20.3525 1.49219 20.8293 1.37715 21.499 1.27257C22.3617 1.1157 23.5309 1.00066 24.5866 0.916999C25.3131 0.86471 25.9942 0.833336 26.4597 0.833336C28.1511 0.833336 32.2944 1.23074 32.7144 1.61768C33.0436 1.92096 32.2603 6.53292 31.8063 9.24153Z" fill="#ABF15C" stroke="#ABF15C" stroke-width="0.7" stroke-miterlimit="10"/>
<path d="M43.92 24.2592C29.878 22.9729 15.7793 22.9833 1.7373 24.322C2.31624 23.5795 3.1222 22.7428 4.1325 22.0944C5.64227 21.1323 9.3883 19.2185 13.3614 17.3883C17.1415 15.6314 18.7761 12.9542 18.6626 10.8103C18.6512 10.7162 18.6399 10.6116 18.6285 10.4861C18.6285 10.3397 18.5945 10.1619 18.5604 9.97366C18.5604 9.85863 18.5264 9.73313 18.5037 9.60764H27.2104C27.1877 9.73313 27.165 9.85863 27.1536 9.97366C27.1195 10.1619 27.0968 10.3397 27.0855 10.4861C27.0741 10.6116 27.0628 10.7162 27.0514 10.8103C26.9379 12.9542 28.5726 15.6314 32.3526 17.3883C36.3144 19.2185 40.0718 21.1323 41.5815 22.0944C42.5691 22.7219 43.3524 23.5376 43.92 24.2592Z" fill="white" stroke="#393938" stroke-width="0.7" stroke-miterlimit="10"/>
<path d="M43.8057 30.2725V34.2569C29.8432 33.6922 15.8807 33.6922 1.91821 34.2569V31.7679L1.89551 30.262C15.9829 29.3312 29.707 29.3312 43.8057 30.2725Z" fill="white" stroke="#393938" stroke-width="0.7" stroke-miterlimit="10"/>
<path d="M1.90723 59.5023V40.0192C15.8811 39.4649 29.8436 39.4649 43.8061 40.0192V59.5023C29.8549 60.4331 15.8584 60.4331 1.90723 59.5023Z" fill="white" stroke="#393938" stroke-width="0.7" stroke-miterlimit="10"/>
<path d="M45.066 74.6874C44.6574 76.1619 41.967 78.2954 39.9464 78.9019C36.9042 79.8118 22.8509 79.6131 22.8509 79.6131C22.8509 79.6131 8.80892 79.8118 5.76668 78.9019C3.74609 78.2954 1.06711 76.1619 0.647097 74.6874C0.408713 73.8507 0.238439 70.2218 0.647097 69.5002C0.828723 69.176 1.08981 68.9041 1.33955 68.7159C1.71415 68.4126 1.90713 67.9629 1.90713 67.4923V65.2648C15.8583 66.206 29.8548 66.206 43.806 65.2648V67.6596C43.806 68.057 43.999 68.4231 44.3282 68.674C44.5893 68.8727 44.8844 69.1551 45.066 69.5002C45.4747 70.2218 45.3044 73.8507 45.066 74.6874Z" fill="white" stroke="#393938" stroke-width="0.7" stroke-miterlimit="10"/>
<path d="M45.0664 25.9638V28.526L43.8064 30.2725C29.7076 29.3312 15.9835 29.3312 1.89614 30.262L0.647461 28.526V25.9638C0.647461 25.9638 0.647461 25.9533 0.658813 25.9324C0.738274 25.7755 1.11288 25.1167 1.73722 24.3219C15.7792 22.9833 29.8779 22.9728 43.9199 24.2591C44.5896 25.0749 44.9642 25.7755 45.055 25.9324C45.0664 25.9533 45.0664 25.9638 45.0664 25.9638Z" fill="white" stroke="#393938" stroke-width="0.7" stroke-linecap="round" stroke-linejoin="round"/>
<path d="M45.0664 35.9093V38.4715C44.6464 38.9839 44.2264 39.5068 43.8064 40.0193C29.8438 39.465 15.8813 39.465 1.91884 40.0193H1.90749C1.48748 39.5068 1.06747 38.9839 0.647461 38.4715V35.9093C1.06747 35.355 1.48748 34.8112 1.90749 34.2569H1.91884C15.8813 33.6922 29.8438 33.6922 43.8064 34.2569C44.2264 34.8112 44.6464 35.355 45.0664 35.9093Z" fill="white" stroke="#393938" stroke-width="0.7" stroke-linecap="round" stroke-linejoin="round"/>
<path d="M45.0664 61.0188V63.581C44.6464 64.1458 44.2264 64.7105 43.8064 65.2648C29.8552 66.206 15.8586 66.206 1.90749 65.2648C1.48748 64.7105 1.06747 64.1458 0.647461 63.581V61.0188C1.06747 60.5168 1.48748 60.0044 1.90749 59.5024C15.8586 60.4332 29.8552 60.4332 43.8064 59.5024C44.2264 60.0044 44.6464 60.5168 45.0664 61.0188Z" fill="white" stroke="#393938" stroke-width="0.7" stroke-linecap="round" stroke-linejoin="round"/>
<path d="M28.1979 9.60755H17.516C17.0619 6.89895 16.2787 2.28699 16.6079 1.98371C16.7441 1.85821 17.2209 1.74318 17.8906 1.6386C18.7533 1.48173 19.9225 1.36669 20.9782 1.28303C21.7047 1.23074 22.3858 1.19936 22.8513 1.19936C24.5427 1.19936 28.686 1.59677 29.106 1.98371C29.4352 2.28699 28.6519 6.89895 28.1979 9.60755Z" fill="white" stroke="#393938" stroke-width="0.7" stroke-miterlimit="10"/>
</g>
<defs>
<clipPath id="clip0_402_8137">
<rect width="50" height="80" fill="white"/>
</clipPath>
</defs>
</svg>
