<svg width="56" height="82" viewBox="0 0 56 82" fill="none" xmlns="http://www.w3.org/2000/svg">
<path d="M52.0487 54.3418C47.9549 60.256 40.0336 62.1982 32.4795 62.5404L34.0582 80.8678H23.0436L24.627 62.4489C23.2272 62.3573 21.8366 62.2141 20.4506 61.9753C1.72583 58.7794 1.82221 42.6012 6.38867 29.6625C8.67878 23.1753 11.9143 16.911 15.7098 10.9889C16.9673 9.02282 18.289 7.08461 19.7668 5.23794C23.0803 1.09487 30.2031 0.585447 35.3203 2.54753C36.3162 2.9296 37.2387 3.53853 38.1015 4.29471C41.3875 7.19207 43.7235 12.2823 45.4675 15.3309C49.1069 21.6868 52.2001 28.4049 53.8707 35.3697C55.3439 41.5346 55.9451 48.7183 52.0487 54.3418Z" fill="#ABF15C" stroke="#ABF15C" stroke-miterlimit="10"/>
<g clip-path="url(#clip0_804_12308)">
<path d="M33.9276 4.65243L33.9246 4.64987C33.0988 3.92685 32.2265 3.35824 31.2995 3.00483L33.9276 4.65243ZM33.9276 4.65243L33.929 4.65369C33.9296 4.65417 33.9301 4.65464 33.9307 4.65511C35.5148 6.04361 36.8881 7.97502 38.0919 9.9633C38.835 11.1906 39.4908 12.3985 40.0934 13.5085C40.4779 14.2167 40.8408 14.8851 41.1909 15.4932L41.191 15.4934C44.8169 21.7857 47.8858 28.4151 49.541 35.2726C51.0081 41.3734 51.5603 48.3209 47.795 53.7209L47.795 53.721M33.9276 4.65243L47.795 53.721M16.3142 5.52441L16.3141 5.52452C14.8522 7.33973 13.546 9.25293 12.2879 11.1964C8.50901 17.0595 5.29277 23.2493 3.01824 29.6517L3.01819 29.6519C0.747822 36.0358 -0.381445 43.1503 1.32243 49.0277C2.17135 51.956 3.72279 54.5767 6.19189 56.6607C8.6631 58.7464 12.0799 60.3167 16.692 61.0989L16.6084 61.5919L16.6921 61.0989C19.5653 61.5863 22.4788 61.6891 25.4381 61.7167L16.3142 5.52441ZM16.3142 5.52441C17.8663 3.59592 20.34 2.4807 23.0942 2.09451M16.3142 5.52441L23.0942 2.09451M47.795 53.721C45.5398 56.9561 42.0649 58.976 38.0759 60.1778M47.795 53.721L38.0759 60.1778M23.0942 2.09451C25.845 1.70879 28.8197 2.06003 31.2994 3.00479L23.0942 2.09451ZM38.0759 60.1778C34.0864 61.3799 29.619 61.752 25.4382 61.7167L38.0759 60.1778Z" fill="white" stroke="#393938"/>
<path d="M32.9139 48.4621L32.3723 47.9954L27.65 50.7834L25.6216 27.3682H23.7859L22.579 41.3121L18.4854 38.8998L17.9438 39.3665L22.2761 44.8199L21.115 58.2458L18.4854 56.6956L17.9438 57.1622L20.8855 60.8638L19.1967 80.36H30.2108L27.985 54.6669L32.9139 48.4621Z" fill="white" stroke="#393938" stroke-miterlimit="10"/>
</g>
<defs>
<clipPath id="clip0_804_12308">
<rect width="51.1563" height="80" fill="white" transform="translate(0 1)"/>
</clipPath>
</defs>
</svg>
