<svg width="80" height="80" viewBox="0 0 80 80" fill="none" xmlns="http://www.w3.org/2000/svg">
<g clip-path="url(#clip0_402_8344)">
<path d="M50.6613 66.864C64.8062 59.6091 70.6654 41.7017 63.7481 26.8665C56.8308 12.0314 39.7565 5.88633 25.6116 13.1412C11.4667 20.396 5.60756 38.3034 12.5248 53.1386C19.4421 67.9737 36.5164 74.1188 50.6613 66.864Z" fill="#393938"/>
<path d="M54.3888 66.8588C68.5337 59.604 74.3929 41.6966 67.4756 26.8614C60.5583 12.0263 43.4841 5.8812 29.3392 13.136C15.1943 20.3909 9.3351 38.2983 16.2524 53.1335C23.1697 67.9686 40.2439 74.1137 54.3888 66.8588Z" fill="#ABF15C" stroke="#ABF15C" stroke-width="0.7" stroke-miterlimit="10"/>
<path d="M50.6613 66.864C64.8062 59.6091 70.6654 41.7017 63.7481 26.8665C56.8308 12.0314 39.7565 5.88633 25.6116 13.1412C11.4667 20.396 5.60756 38.3034 12.5248 53.1386C19.4421 67.9737 36.5164 74.1188 50.6613 66.864Z" fill="white" stroke="#393938" stroke-width="0.7" stroke-miterlimit="10"/>
<path d="M57.9235 40.0003C57.9235 51.2075 49.2646 60.2889 38.5789 60.2889C27.8932 60.2889 19.2344 51.2075 19.2344 40.0003C19.2344 28.7932 27.8932 19.7118 38.5789 19.7118C49.2646 19.7118 57.9235 28.7932 57.9235 40.0003Z" fill="white" stroke="#393938" stroke-width="0.7" stroke-miterlimit="10"/>
<path d="M40.3376 23.0021C40.3376 23.0021 38.9367 22.8926 38.8845 24.3619V29.9108C38.8845 29.9108 38.8324 31.0518 39.6073 31.2706C39.6073 31.2706 41.9919 31.8724 43.0798 32.5758C43.0798 32.5758 43.7058 33.1776 44.5851 32.0834L48.296 28.168C48.296 28.168 49.1753 27.2692 48.7878 26.6752C48.7878 26.6752 46.1425 23.8227 40.3301 23.0021H40.3376Z" fill="white" stroke="#393938" stroke-width="0.7" stroke-miterlimit="10"/>
<path d="M35.9258 23.0021C35.9258 23.0021 37.3267 22.8926 37.3789 24.3619V29.9108C37.3789 29.9108 37.431 31.0518 36.656 31.2706C36.656 31.2706 34.2715 31.8724 33.1836 32.5758C33.1836 32.5758 32.5576 33.1776 31.6783 32.0834L27.9674 28.168C27.9674 28.168 27.0881 27.2692 27.4756 26.6752C27.4756 26.6752 30.1209 23.8227 35.9332 23.0021H35.9258Z" fill="white" stroke="#393938" stroke-width="0.7" stroke-miterlimit="10"/>
<path d="M54.6074 37.2962C54.6074 37.2962 54.7937 38.7577 53.3928 38.8906L48.1096 39.2032C48.1096 39.2032 47.0216 39.3204 46.7757 38.5232C46.7757 38.5232 46.0753 36.0536 45.3376 34.9595C45.3376 34.9595 44.734 34.3421 45.7176 33.3573L49.2348 29.2543C49.2348 29.2543 50.0396 28.2774 50.6282 28.6525C50.6282 28.6525 53.4971 31.2628 54.6 37.2962H54.6074Z" fill="white" stroke="#393938" stroke-width="0.7" stroke-miterlimit="10"/>
<path d="M21.6635 37.2962C21.6635 37.2962 21.4772 38.7576 22.8781 38.8905L28.1614 39.2031C28.1614 39.2031 29.2493 39.3203 29.4952 38.5232C29.4952 38.5232 30.1957 36.0535 30.9334 34.9594C30.9334 34.9594 31.537 34.342 30.5533 33.3573L27.0362 29.2542C27.0362 29.2542 26.2314 28.2773 25.6427 28.6525C25.6427 28.6525 22.7738 31.2628 21.6709 37.2962H21.6635Z" fill="white" stroke="#393938" stroke-width="0.7" stroke-miterlimit="10"/>
<path d="M40.3376 56.9909C40.3376 56.9909 38.9367 57.1003 38.8845 55.631V50.0822C38.8845 50.0822 38.8324 48.9411 39.6073 48.7223C39.6073 48.7223 41.9919 48.1205 43.0798 47.4172C43.0798 47.4172 43.7058 46.8154 44.5851 47.9095L48.296 51.825C48.296 51.825 49.1753 52.7238 48.7878 53.3177C48.7878 53.3177 46.1425 56.1703 40.3301 56.9909H40.3376Z" fill="white" stroke="#393938" stroke-width="0.7" stroke-miterlimit="10"/>
<path d="M35.9258 56.9908C35.9258 56.9908 37.3267 57.1002 37.3789 55.6309V50.0821C37.3789 50.0821 37.431 48.941 36.656 48.7222C36.656 48.7222 34.2715 48.1204 33.1836 47.4171C33.1836 47.4171 32.5576 46.8153 31.6783 47.9094L27.9674 51.8249C27.9674 51.8249 27.0881 52.7236 27.4756 53.3176C27.4756 53.3176 30.1209 56.1702 35.9332 56.9908H35.9258Z" fill="white" stroke="#393938" stroke-width="0.7" stroke-miterlimit="10"/>
<path d="M54.6074 42.6966C54.6074 42.6966 54.7937 41.2351 53.3928 41.1023L48.1096 40.7897C48.1096 40.7897 47.0216 40.6724 46.7757 41.4696C46.7757 41.4696 46.0753 43.9314 45.3376 45.0334C45.3376 45.0334 44.734 45.6508 45.7176 46.6355L49.2348 50.7385C49.2348 50.7385 50.0396 51.7155 50.6282 51.3403C50.6282 51.3403 53.4971 48.73 54.6 42.6966H54.6074Z" fill="white" stroke="#393938" stroke-width="0.7" stroke-miterlimit="10"/>
<path d="M21.6635 42.6966C21.6635 42.6966 21.4772 41.2351 22.8781 41.1023L28.1614 40.7897C28.1614 40.7897 29.2493 40.6724 29.4952 41.4696C29.4952 41.4696 30.1957 43.9314 30.9334 45.0334C30.9334 45.0334 31.537 45.6508 30.5533 46.6355L27.0362 50.7385C27.0362 50.7385 26.2314 51.7155 25.6427 51.3403C25.6427 51.3403 22.7738 48.73 21.6709 42.6966H21.6635Z" fill="white" stroke="#393938" stroke-width="0.7" stroke-miterlimit="10"/>
<path d="M33.0867 37.6479C33.0867 38.0621 32.7663 38.3904 32.3788 38.3904C31.9913 38.3904 31.6709 38.0543 31.6709 37.6479C31.6709 37.2415 31.9913 36.9055 32.3788 36.9055C32.7663 36.9055 33.0867 37.2415 33.0867 37.6479Z" fill="#393938"/>
<path d="M36.0828 34.0529C36.0828 34.4671 35.7624 34.7953 35.3749 34.7953C34.9874 34.7953 34.667 34.4593 34.667 34.0529C34.667 33.6465 34.9874 33.3104 35.3749 33.3104C35.7624 33.3104 36.0828 33.6465 36.0828 34.0529Z" fill="#393938"/>
<path d="M41.5301 33.8808C41.5301 34.295 41.2097 34.6232 40.8222 34.6232C40.4347 34.6232 40.1143 34.2872 40.1143 33.8808C40.1143 33.4744 40.4347 33.1383 40.8222 33.1383C41.2097 33.1383 41.5301 33.4744 41.5301 33.8808Z" fill="#393938"/>
<path d="M44.5926 37.6479C44.5926 38.0621 44.2722 38.3904 43.8847 38.3904C43.4972 38.3904 43.1768 38.0543 43.1768 37.6479C43.1768 37.2415 43.4972 36.9055 43.8847 36.9055C44.2722 36.9055 44.5926 37.2415 44.5926 37.6479Z" fill="#393938"/>
<path d="M33.0867 42.47C33.0867 42.0558 32.7663 41.7275 32.3788 41.7275C31.9913 41.7275 31.6709 42.0636 31.6709 42.47C31.6709 42.8764 31.9913 43.2124 32.3788 43.2124C32.7663 43.2124 33.0867 42.8764 33.0867 42.47Z" fill="#393938"/>
<path d="M36.0828 46.065C36.0828 45.6508 35.7624 45.3225 35.3749 45.3225C34.9874 45.3225 34.667 45.6586 34.667 46.065C34.667 46.4714 34.9874 46.8074 35.3749 46.8074C35.7624 46.8074 36.0828 46.4714 36.0828 46.065Z" fill="#393938"/>
<path d="M41.5291 46.2369C41.5291 45.8227 41.2087 45.4945 40.8212 45.4945C40.4337 45.4945 40.1133 45.8306 40.1133 46.2369C40.1133 46.6433 40.4337 46.9794 40.8212 46.9794C41.2087 46.9794 41.5291 46.6433 41.5291 46.2369Z" fill="#393938"/>
<path d="M44.5926 42.47C44.5926 42.0558 44.2722 41.7275 43.8847 41.7275C43.4972 41.7275 43.1768 42.0636 43.1768 42.47C43.1768 42.8764 43.4972 43.2124 43.8847 43.2124C44.2722 43.2124 44.5926 42.8764 44.5926 42.47Z" fill="#393938"/>
</g>
<defs>
<clipPath id="clip0_402_8344">
<rect width="80" height="80" fill="white"/>
</clipPath>
</defs>
</svg>
